<svg width="144" height="52" viewBox="0 0 144 52" fill="none" xmlns="http://www.w3.org/2000/svg">
<path d="M86.9634 16.5151C92.6762 16.4423 98.9199 16.1501 104.633 16.409C105.342 16.4405 105.298 16.9783 105.497 17.047C106.037 17.2366 106.351 16.5991 106.738 16.6411C108.666 16.8422 110.442 16.91 112.309 17.0853C114.246 17.2645 113.355 18.9485 114.025 19.3447C115.355 20.1196 114.197 17.9606 114.708 17.463C115.983 17.5525 117.291 17.7155 118.539 17.89C118.77 17.9203 118.999 17.951 119.225 17.9816C119.002 18.1107 118.777 18.2381 118.548 18.3624C118.411 18.4415 118.273 18.5194 118.133 18.5957C118.269 18.6024 118.416 18.6219 118.555 18.654C119.099 18.773 119.511 19.0681 118.639 19.5356C118.891 19.6871 119.125 19.8654 119.379 20.0129C119.439 19.2185 120.564 19.1289 120.666 18.6558C120.755 18.1833 120.12 18.3064 120.124 18.2652C120.136 17.6803 122.815 18.4136 123.026 18.4712C123.538 18.6304 123.123 19.6261 123.55 19.5503C124.279 19.4201 123.711 17.4363 124.818 20.0622C125.189 19.1856 125.239 19.633 125.731 19.6758C125.796 19.681 125.728 19.1828 125.757 19.1687C126.526 18.7697 125.959 19.7209 125.965 19.7711C126.071 20.6242 126.881 20.2134 127.046 20.2887C129.23 21.2234 130.899 21.8426 133.156 21.9064C133.673 21.9203 135.1 21.4319 135.555 21.5121C136.032 21.5927 135.871 22.2369 136.149 22.4962C136.327 20.9632 136.572 20.7817 137.52 21.5374C137.492 20.981 137.491 20.9248 137.572 20.9548C137.608 20.971 137.656 21.0114 137.697 21.0303C137.736 21.0527 137.786 21.0335 137.687 21.0368C137.649 21.0377 137.556 21.0568 137.427 21.139C137.292 21.229 137.101 21.4273 136.986 21.7298C136.869 22.0223 136.856 22.3321 136.849 22.5073C136.847 22.7018 136.838 22.7974 136.816 22.8622C136.727 23.0839 136.465 22.8532 136.658 22.2733C136.85 22.5338 136.99 22.5279 137.176 22.4947C137.265 22.4753 137.367 22.4507 137.461 22.4213C137.556 22.3831 137.642 22.3898 137.663 22.1986C137.67 22.1682 137.65 22.0851 137.677 21.903C137.697 21.717 137.853 21.476 137.927 21.4415C138.087 21.3605 137.881 21.5628 137.66 21.7015C137.203 22.0095 136.619 22.3855 136.826 22.9131C137.042 23.468 137.794 22.7578 137.84 22.8437C138.229 23.3763 137.877 24.275 137.36 24.1018C137.453 23.9555 137.543 23.8067 137.651 23.6532C136.51 23.1017 137.707 25.8953 136.513 23.4639C136.371 23.1634 136.345 22.8311 136.16 22.5163C136.151 22.6593 136.374 22.9771 136.236 23.0609C136.093 23.146 135.697 22.5336 135.719 23.0909C135.76 23.9024 136.392 23.4936 136.444 23.5311C136.443 23.5262 136.443 23.5213 136.443 23.5164C136.971 23.8689 136.031 24.0631 135.99 24.1418C135.743 24.6818 136.015 25.0391 135.613 25.5069C135.362 25.7762 134.723 25.702 134.47 25.8018C134.238 25.9022 134.649 26.2479 134.491 26.3451C134.343 26.4415 134.124 26.1695 133.942 26.2805C133.864 26.3292 133.904 26.7539 133.865 26.7721C133.446 26.9712 133.651 26.0646 133.289 26.1474C133.063 26.2018 132.269 27.0866 132.872 27.291C132.587 27.3975 132.35 27.4765 132.081 27.5612C132.259 27.6768 132.438 27.7513 132.609 27.8891C132.103 27.7201 131.912 28.4631 131.582 28.5375C131.274 28.6103 130.947 27.7517 130.613 28.1977C129.913 29.146 131.72 28.627 131.991 28.7696C132.088 28.8275 131.776 29.5345 131.72 29.5574C131.48 29.658 131.19 29.1834 131.006 29.2157C130.338 29.3351 130.005 30.0001 129.376 30.1608C127.27 30.7054 124.724 31.1484 122.747 31.3433C122.038 31.4147 121.575 30.6978 121.243 30.7265C120.452 30.7942 120.412 31.4297 119.737 31.4786C119.461 31.4991 119.15 31.474 118.822 31.4246C118.021 31.2942 117.095 30.9982 116.495 30.9228C115.934 30.851 115.424 31.4739 115.274 31.4915C113.206 31.7478 110.697 31.7699 108.982 31.7992C108.184 31.8132 107.788 31.1278 107.621 31.1502C106.9 31.2447 107.1 31.8323 106.527 31.7794C106.217 31.7513 106.152 31.1857 106.11 31.1641C105.741 30.9816 105.676 31.7219 105.388 31.7494C103.728 31.9077 102.125 31.4397 100.506 31.3836C100.387 31.3791 100.395 31.0514 100.318 31.0689C99.9888 31.1523 100.147 31.6668 99.8016 31.7074C99.0774 31.7941 98.3474 31.7151 97.5884 31.6561C97.5131 31.6502 97.4759 31.2294 97.3036 31.2306C97.131 31.232 97.0032 31.6323 96.7309 31.6122C96.0132 31.5601 95.3245 31.0878 94.5741 31.0672C94.4502 31.0643 94.3002 31.5728 94.1138 31.5686C93.5269 31.5561 92.66 31.1015 92.1635 31.088C90.5128 31.0469 89.0005 31.3449 87.4415 31.3575C87.073 31.3593 86.752 30.8911 86.562 30.8809C86.1353 30.8591 86.4598 31.3015 86.0272 31.3057C82.4854 31.3359 78.9292 31.1494 75.3504 31.1976C73.9435 31.2157 72.2348 31.6808 70.8741 31.5579C70.3087 31.5054 70.2044 30.8916 69.805 30.8871C69.092 30.8819 68.9673 31.6694 68.2135 31.7499C67.6126 31.813 66.9227 31.0289 66.2996 31.0789C65.6771 31.1289 65.3897 31.8929 64.6715 31.986C64.0801 32.0619 63.2553 31.7172 62.615 31.7745C56.719 32.3014 50.908 32.6213 44.996 32.0274C42.8824 31.8177 40.5897 31.9281 38.413 31.1783C38.2103 31.1073 38.519 30.3701 37.871 30.5251C37.523 30.6091 37.0461 31.2444 36.2246 31.2763C34.2156 31.3557 32.0701 31.1569 29.9942 30.9222C27.1298 30.6034 24.238 30.2184 21.4256 30.3732C14.1106 30.7783 6.52956 36.0241 0.172982 28.3478C-0.138817 27.9709 0.0302634 26.1236 0.217068 25.5988C0.390427 25.9739 0.550702 26.4193 0.73212 26.8429C0.960574 24.5348 0.92029 25.1358 1.76706 25.3429C2.28838 25.4716 1.87197 24.4844 2.14986 24.2043C2.5101 23.8422 4.20148 22.702 3.87619 24.2306C3.98103 23.9656 4.0778 23.7117 4.17996 23.4523C5.40445 23.2209 6.59415 22.8382 7.79177 22.3996C7.99865 22.3229 8.00819 21.8433 8.22187 21.7667C8.79578 21.5578 9.25144 21.8729 9.84283 21.8244C10.1641 21.7982 10.2087 21.244 10.6294 21.2794C11.0499 21.3151 11.0407 22.0633 11.6143 21.2501C11.2407 20.3114 12.9075 20.9925 13.5003 20.9347C13.5864 20.9272 14.292 20.0839 14.667 20.1808C15.0433 20.276 15.6146 20.8148 16.1966 20.5089C16.4694 20.3652 16.635 19.7084 16.9294 19.671C17.1363 19.6449 17.385 20.2287 17.6471 20.2531C17.9091 20.2773 18.476 19.7981 18.5799 19.7902C18.9549 19.7585 18.5412 20.1689 18.7976 20.1896C20.0356 20.2829 21.4739 20.5029 22.6944 20.2267C22.8444 20.1932 22.6368 19.7096 22.6568 19.6935C23.6754 19.1001 23.1317 19.7302 23.4068 20.1632C23.6732 20.5819 25.623 20.3535 25.6374 19.5128C25.6973 20.5656 26.1307 19.7615 26.2433 19.7306C26.6814 19.6113 26.5955 20.5221 27.0202 20.2404C27.176 20.1378 26.8726 19.5221 27.0401 19.5402C27.4541 19.585 27.8266 20.574 28.3777 20.673C28.5108 20.6973 28.554 20.2567 28.7906 20.2716C29.0275 20.2868 30.0203 20.8258 29.5621 19.8966C29.7385 20.1148 29.8737 20.2339 29.9942 20.2939C30.2781 20.4386 30.4787 20.2386 30.9718 20.2531C31.1488 20.2593 31.3769 20.9693 31.7597 20.7492C31.8894 20.6744 31.8854 19.9901 32.0815 19.9845C32.5256 19.9698 32.9225 20.6782 33.4832 20.7061C34.547 20.7602 35.6241 20.2621 36.7313 20.4393C37.0305 20.4879 36.9609 21.1759 37.3832 21.1892C37.4452 21.1892 37.9575 20.5941 38.2549 20.6499C38.4319 20.6835 39.3656 21.1015 39.5571 21.135C39.8647 21.1888 39.9169 20.5233 40.0848 20.6534C40.5702 21.0284 40.1801 22.0081 40.7662 20.6679C40.9594 21.4106 41.3045 21.3362 41.4159 22.2507C41.6168 21.2484 41.8798 22.2112 42.2725 21.8753C42.6554 21.5392 42.9712 19.598 43.0657 21.6865C43.2452 21.4326 44.0185 20.9991 44.1503 20.9673C44.537 20.8776 44.3304 21.4554 44.623 21.3772C44.6747 21.3641 44.62 20.9691 44.9519 21.0079C45.162 21.0339 46.732 21.0572 46.8292 21.1112C47.9092 21.7289 46.2406 21.5034 46.0121 21.9311C45.9712 21.8188 45.9307 21.7062 45.8871 21.5952C45.4151 21.409 45.6841 22.3013 45.8984 22.5083C46.1125 22.7153 46.5141 22.3174 46.6937 22.6103C46.7832 22.7574 46.7283 23.8274 46.4585 23.6984C46.7473 24.0278 46.3534 24.376 46.4677 24.6857C46.5904 25.0252 47.9008 25.1288 47.902 24.5392C47.6638 24.5188 47.355 24.5394 47.1099 24.5153C46.7856 23.4909 47.7688 19.991 48.6498 21.3882C49.296 22.3992 48.2299 23.2044 49.7609 22.3541C49.5247 22.3132 49.3254 22.2177 49.1117 22.1749C49.0883 21.4065 49.4357 22.2512 49.6149 22.0065C49.7009 21.8869 49.1699 21.3432 49.6304 21.1618C50.0255 22.2603 50.3409 21.1547 50.9955 21.141C50.8121 21.3372 50.6324 21.5323 50.445 21.7284C51.5673 22.5243 48.9633 22.7897 51.1401 23.2337C50.879 23.2693 50.6238 23.2601 50.3559 23.3145C50.485 23.7176 50.28 24.9014 50.3955 25.1514C50.7014 25.8075 51.135 25.4114 51.5009 25.4687C51.6604 25.4928 51.5618 25.8124 51.5752 25.8143C51.7938 25.8495 51.745 25.3811 51.937 25.351C52.1783 25.3135 52.8797 25.7681 52.9939 25.7161C53.2886 25.5832 52.7967 24.6594 52.8251 24.5903C53.0122 24.1423 53.3971 24.5132 53.3763 23.9276C52.4469 24.3317 49.8133 23.8169 52.1995 22.8459C51.5391 21.9003 51.7264 20.5955 52.6776 20.4918C53.4662 20.4051 52.9577 20.9284 53.3697 21.5028C53.4266 21.5747 54.4688 21.8483 54.5235 21.4418C54.4826 22.3778 54.8251 23.2062 54.5972 24.1722C54.5637 24.3141 54.1336 24.2586 54.2846 25.0349C54.3601 25.4248 54.5766 26.2734 54.5425 26.7699C54.6306 26.4246 54.7227 26.0361 54.8122 25.6758C55.4586 25.5742 55.5518 25.946 55.9076 26.5894C55.8911 26.3207 55.5613 25.1918 56.0602 25.5345C56.0859 25.555 56.1084 25.9603 56.3624 26.1611C56.8726 26.5634 56.9766 26.6886 56.5898 27.8795C57.6388 27.199 57.868 28.5253 58.9529 28.1356C58.7347 26.6058 58.3522 26.9853 57.3638 27.2817C57.3204 26.9178 57.2997 26.5576 57.255 26.19C58.5728 27.0129 57.9221 26.9299 58.6692 26.1898C58.8522 26.0085 59.8312 26.2006 59.5034 25.1708C59.426 24.9286 58.8173 24.9575 58.8866 24.5752C58.8996 24.5024 59.6402 24.316 59.7027 24.4146C60.5173 25.6319 59.0642 26.484 61.3054 26.0358C61.3673 26.0226 61.3881 25.5771 61.509 25.5149C61.7364 25.3988 61.7402 25.9148 61.9435 25.7953C62.1462 25.6755 62.4298 24.9809 62.7339 25.6219C63.2938 26.7891 61.9786 27.4638 61.3893 26.8452C61.1569 28.3726 65.3419 28.3976 65.6057 28.2661C66.7361 27.6943 64.8518 28.0272 64.7523 27.6039C64.7115 27.4249 64.7264 25.1538 64.2521 26.6285C64.1117 27.0655 64.7036 27.6396 64.3517 27.8812C63.9997 28.1227 64.1379 27.4537 64.1123 27.4071C64.0242 27.2474 63.6503 27.4961 63.6015 27.4014C62.8523 25.9639 62.9156 23.7893 63.9124 26.9993C64.3423 26.2724 63.3496 25.1173 63.8848 24.6234C64.5351 24.0231 65.0146 25.0577 65.0969 25.1041C66.0826 25.6541 64.9465 24.1449 66.1455 24.6251C66.8134 24.8923 65.1493 25.6337 66.673 25.5311C67.9498 25.4439 67.2589 24.9193 67.3486 23.7227C67.3698 23.4428 68.0688 23.0978 67.1161 23.2233C67.09 23.535 67.0402 23.9459 66.9805 24.2334C66.7462 24.0065 66.3532 22.4477 66.2293 22.3935C65.6234 22.1355 65.6557 22.945 65.2946 21.9923C65.553 23.0348 65.1349 22.4072 64.9792 22.6278C64.4013 23.4408 65.1613 23.7409 63.8591 22.7006C64.0295 23.1892 64.1837 23.6688 64.3489 24.1556C64.1929 24.1727 64.037 24.1903 63.8812 24.2074C63.6462 23.131 62.82 23.2704 63.5664 22.1846C62.6658 21.8786 62.3025 22.114 62.1051 22.9522C62.0678 23.1122 61.932 23.1764 61.7724 23.1921C61.803 23.4277 61.8431 24.1555 61.8181 24.2448C61.5945 25.0303 61.2436 23.6747 61.3614 23.1568C61.2498 23.1322 61.1616 23.1033 61.1304 23.0908C60.9329 23.0108 61.319 22.5419 61.1587 22.3818C61.1057 22.3297 60.5504 22.4326 60.5394 22.2423C60.4709 21.0223 61.3833 21.901 59.5517 21.1952C59.5092 22.3058 60.3589 22.0601 60.1427 23.24C59.9097 24.5076 59.4312 22.8086 59.3265 24.3635C59.2869 24.108 59.2692 23.8948 59.235 23.6039C58.4895 24.2825 58.4783 22.9877 58.2504 22.7022C57.8065 22.1449 55.7883 22.2316 57.6037 23.3506C57.3381 23.463 57.0673 23.5152 56.804 23.6145C56.7389 21.2933 56.908 22.217 55.6243 21.8642C55.3425 21.7862 55.2497 20.7654 54.9757 21.9783C55.0112 20.7888 54.183 21.5085 54.1062 21.3642C53.6092 20.4261 55.4482 19.1171 55.6909 21.2196C56.0027 20.4004 56.003 21.4827 56.3529 21.3388C56.8556 21.1309 56.9221 20.92 57.5191 21.7179C58.1022 20.5917 55.2276 21.2261 56.9685 19.7305C58.7211 18.2362 68.9018 17.3821 71.2777 17.1493C75.5805 16.731 77.8441 16.4577 81.7087 16.5076C82.0929 16.5116 84.9641 16.3895 84.3749 17.693C84.2874 17.8801 83.0556 18.3808 84.1203 19.3964C83.9003 18.7948 84.5255 18.4002 84.5776 18.3365C85.7735 16.8894 85.0786 16.5404 86.9634 16.5151ZM92.6497 28.0798C90.1795 27.7996 91.9989 28.6569 91.4987 30.6237C91.8167 30.6272 92.1327 30.6305 92.4491 30.6339C92.3652 30.5113 92.2823 30.3891 92.1982 30.2665C92.1979 30.2665 92.1975 30.2665 92.1972 30.2665C92.3479 29.5377 92.4995 28.8086 92.6497 28.0798ZM133.41 28.5054C133.33 28.7708 133.249 29.0367 133.156 29.2971C132.789 29.2435 132.46 29.187 132.112 29.1289C132.141 28.9512 132.169 28.7715 132.198 28.5939C132.587 28.5761 133.009 28.5547 133.41 28.5054ZM61.0438 27.13C60.5801 26.4124 60.6238 27.6945 60.0101 27.1114C60.0867 28.0574 60.1718 28.9829 60.2526 29.9196C60.7192 29.7787 60.8247 29.4187 61.3337 29.649C61.2739 29.3451 61.2127 29.0392 61.1543 28.7334C61.0698 28.7988 60.9799 28.8732 60.8981 28.9311C60.7661 28.0804 61.5781 27.9519 61.0454 27.1281C61.0448 27.1287 61.0443 27.1294 61.0438 27.13ZM56.3075 27.5186C56.0562 27.3957 55.0675 26.934 54.9342 27.3261C54.478 28.6556 57.2658 27.8085 55.2118 28.9927C55.2215 29.1791 55.2123 29.3618 55.2126 29.5464C55.5869 29.6113 55.9612 29.667 56.3403 29.7187C56.319 28.9835 56.3315 28.2575 56.3075 27.5186ZM83.7012 28.2141C83.3206 28.1137 81.4987 28.7473 82.0975 29.5861C82.2739 29.8316 83.0824 28.6239 83.3911 28.6746C83.5911 28.7073 83.3704 29.3685 83.7636 29.124C83.7448 28.8331 83.7324 28.5106 83.7001 28.2161C83.7005 28.2154 83.7009 28.2148 83.7012 28.2141ZM84.399 24.3697C84.001 24.4893 83.6057 24.6403 83.2084 24.7672C83.5022 25.5178 84.0687 25.032 84.108 26.09C83.9994 26.1707 83.8929 26.2511 83.7847 26.3318C83.7005 26.1009 83.6175 25.8697 83.5346 25.6387C83.1966 26.2152 83.4047 26.4998 82.7684 26.3368C83.1607 27.9344 83.2348 28.7926 84.316 27.169C84.1136 28.0379 84.323 30.8647 84.9182 28.8408C85.0296 28.4651 84.5552 28.2168 84.5494 28.1571C84.4728 27.4149 84.733 26.9397 84.6513 26.2386C84.6147 25.9215 84.326 25.9278 84.2805 25.4875C84.2595 25.2728 84.531 24.6583 84.399 24.3697ZM85.2084 28.1313C85.0881 28.5817 85.5128 29.6469 85.8746 29.4285C86.4386 29.0896 85.5411 28.0792 85.2084 28.1313ZM133.412 28.5042C133.412 28.5046 133.411 28.505 133.41 28.5054C133.41 28.5044 133.411 28.5034 133.411 28.5024C133.411 28.503 133.412 28.5036 133.412 28.5042ZM57.5877 28.0372C57.2956 28.42 56.8635 28.3649 56.8963 28.9728C56.7542 28.8536 56.6111 28.7362 56.4688 28.617C56.4704 28.7998 56.4734 28.9829 56.475 29.1638C56.9016 29.2771 57.3277 29.3907 57.7565 29.5057C57.702 29.0168 57.6515 28.5261 57.5877 28.0372ZM52.915 27.6176C52.3734 27.5566 52.8283 28.3833 52.7099 28.7828C52.5913 29.1824 52.1099 28.8579 52.1671 29.4309C52.4847 29.4529 52.817 29.4751 53.1405 29.4952C53.0545 28.872 52.9943 28.2371 52.9139 27.6176C52.9143 27.6176 52.9146 27.6176 52.915 27.6176ZM102.762 28.647C102.392 28.4715 102.538 27.8389 101.815 28.585C101.815 28.585 101.816 28.585 101.816 28.585C102.518 29.0952 103.41 29.5469 104.155 29.039C103.689 28.378 103.342 28.9211 102.762 28.647ZM62.3291 28.9899C62.4831 28.4895 61.7604 28.0732 61.6026 28.5382C61.3467 29.2908 62.0941 29.75 62.3291 28.9899ZM117.487 24.0111C118.022 22.4605 116.9 20.7546 115.839 21.52C115.747 21.5871 116.455 22.0639 116.253 22.3681C116.233 22.3981 115.848 22.3684 115.756 22.5842C115.663 22.8005 115.773 23.2968 115.619 23.5086C115.35 23.8789 114.703 23.2129 114.498 23.6959C114.471 23.7607 114.879 24.4202 114.904 24.445C115.317 24.8412 115.685 23.9635 115.746 23.9567C116.062 23.9212 116.026 24.6047 116.108 24.7638C116.264 25.0629 116.52 24.7563 116.538 24.7783C117.034 25.3681 115.935 25.2171 115.792 25.4659C115.402 26.1372 115.791 26.7484 114.822 27.1402C114.73 27.1771 113.609 27.1558 115.031 27.8965C112.319 29.5358 116.426 28.7802 116.846 28.4197C117.052 28.2531 116.723 27.6084 116.844 27.3131C117.122 26.6379 117.604 26.5103 117.542 25.5669C117.415 23.5837 116.786 24.897 116.352 24.5708C116.388 24.1389 116.398 23.7182 116.472 23.2949C116.345 23.8649 117.454 24.1278 117.488 24.015C117.488 24.0137 117.487 24.0124 117.487 24.0111ZM110.655 26.3925C110.035 25.8019 110.094 27.0545 109.517 26.3454C109.043 27.4772 110.015 27.3888 110.133 27.4506C110.658 27.7271 110.664 28.9508 111.186 28.5669C110.995 27.8455 110.837 27.116 110.655 26.3925ZM115.968 26.8252C115.576 27.4669 116.299 27.4432 116.329 27.5639C116.676 28.8452 114.494 28.6338 115.968 26.8252ZM81.3159 25.7038C81.1081 25.6619 81.2426 26.2688 81.0602 26.4491C80.8783 26.6309 80.2524 26.1137 80.2696 26.4917C80.2874 26.8705 81.4352 27.848 80.2882 28.0658C80.328 28.2783 80.3156 28.437 80.3352 28.6291C80.6513 28.6333 80.9678 28.6412 81.2859 28.6454C81.109 28.0341 80.9283 27.3909 80.7595 26.8001C80.9345 26.3122 81.0365 26.9365 81.0462 26.9365C81.0462 26.9358 81.0462 26.9352 81.0462 26.9345C81.3779 26.8841 81.7822 25.7972 81.3159 25.7038ZM97.6323 27.51C97.6817 25.9884 97.2077 27.6912 97.0077 27.8813C96.8082 28.0708 96.5265 27.5099 96.6358 28.1636C96.9662 28.6127 97.6273 27.6798 97.6323 27.5081C97.6323 27.5087 97.6323 27.5094 97.6323 27.51ZM107.337 26.4384C106.82 26.8138 106.915 27.2082 106.288 26.7643C106.316 27.1316 106.345 27.507 106.373 27.8688C106.867 27.8705 106.81 26.8038 107.401 27.2258C107.497 27.2955 107.303 28.1505 107.729 27.8712C107.599 27.4178 107.466 26.9143 107.337 26.4384ZM104.82 27.8306C105.411 27.768 105.846 24.7878 104.773 26.1415C104.613 26.3438 104.374 27.8783 104.82 27.8306ZM86.7234 25.6016C85.7287 25.5213 86.8611 25.9952 87.1217 26.451C84.8114 26.8294 87.3771 26.3245 87.6259 27.8437C87.9086 27.409 88.4349 26.4157 87.8419 26.1539C87.5944 26.0452 87.6871 26.4975 87.6722 26.4957C87.2171 26.3863 87.2649 25.6453 86.7234 25.6016ZM111.706 26.3043C111.67 26.3272 111.735 26.8399 111.619 26.9443C111.502 27.0479 111.228 26.6923 111.205 27.0079C111.184 27.3254 111.727 27.5636 111.887 27.3301C112.047 27.0944 112.038 26.1016 111.706 26.3043ZM107.866 25.09C107.369 25.4658 108.213 27.3477 108.32 27.3375C109.269 27.2266 107.847 25.6895 107.866 25.09ZM89.0223 22.3744C87.8271 23.3427 88.7166 25.0078 89.4732 26.0036C89.5711 25.7997 89.6714 25.5954 89.7678 25.3934C89.326 26.6317 88.5426 27.8578 90.2936 26.77C89.3284 26.4853 90.132 26.1483 90.1376 26.0786C90.229 23.8085 88.8139 24.8712 89.0234 22.3744C89.023 22.3744 89.0227 22.3744 89.0223 22.3744ZM113.345 26.8205C113.861 26.805 115.223 26.39 114.565 25.4118C114.144 25.8817 113.758 26.3512 113.345 26.8205ZM69.3507 22.5905C68.9221 22.0261 68.5286 22.0369 68.0008 22.0756C68.478 22.8973 68.166 22.9927 68.0064 23.1947C67.7642 23.4988 68.3527 23.4723 68.3545 23.5278C68.3457 24.3097 67.9712 24.4322 68.825 24.4113C68.6155 24.6842 68.4068 24.9593 68.1964 25.2303C68.8488 25.2641 69.0015 25.7739 69.416 26.396C69.0115 24.8742 69.5411 25.8263 70.0176 25.0672C70.2553 24.6871 69.5686 22.8791 69.3491 22.5905C69.3496 22.5905 69.3501 22.5905 69.3507 22.5905ZM87.7781 22.0761C87.6556 22.3511 87.5441 22.7229 87.4257 23.0371C87.2952 23.0677 87.163 23.0946 87.0334 23.1252C87.0161 22.8828 87.0013 22.6291 86.9812 22.396C86.8099 22.3264 86.8784 22.6637 86.8278 22.6957C86.8278 22.6944 86.8277 22.6931 86.8277 22.6918C86.101 23.1435 85.8008 23.0948 85.2229 22.3479C85.2267 23.091 85.2306 23.8342 85.2345 24.5774C85.3633 24.5058 85.4932 24.436 85.6218 24.3663C85.6882 23.9666 85.7549 23.5667 85.8213 23.167C85.9715 23.3864 86.1203 23.6043 86.2703 23.8238C86.3888 23.6795 86.5312 23.5277 86.6335 23.3872C87.2383 25.4611 85.8818 24.0574 85.8736 24.9197C85.8704 25.474 87.2242 25.4424 87.4237 25.0586C87.4517 25.0025 87.1472 23.4574 87.6525 24.2604C87.7313 24.3869 87.7787 27.733 88.3016 25.0204C88.3761 24.6355 88.0962 22.5582 87.7781 22.0761ZM82.8263 21.0229C83.6029 23.16 80.7634 20.9096 81.9927 22.6655C81.6487 23.6506 81.7133 23.6375 82.0685 24.509C82.0998 24.5871 81.8584 24.8584 81.8791 24.8927C82.21 25.3727 82.604 25.1155 82.6108 25.9908C82.6993 25.9438 82.7825 25.9019 82.8709 25.8548C82.4977 25.0318 83.0824 24.4747 83.3055 23.7775C83.4072 23.4617 83.1694 23.3656 83.255 23.0892C83.2867 22.9883 83.6189 23.1879 83.6311 22.8989C83.656 22.2456 83.4438 21.3638 83.0887 20.884C83.0887 20.8833 83.0887 20.8827 83.0887 20.882C83.0004 20.9253 82.9146 20.9777 82.8263 21.0229ZM99.2046 22.6937C99.346 23.8758 99.8771 24.2099 98.8683 24.7973C98.9206 25.03 98.9743 25.2606 99.0266 25.4933C99.1975 25.4712 99.3628 25.4494 99.5358 25.4292C100.025 21.9387 100.999 25.864 100.374 23.3972C100.306 23.129 99.9074 23.4329 100.297 22.6996C100.297 22.6989 100.296 22.6983 100.296 22.6977C99.7441 22.9267 99.6773 23.3465 99.2046 22.6937ZM95.5064 23.5492C94.2515 26.0487 97.2822 24.9247 96.7708 24.2679C96.7236 24.2086 95.4132 24.7538 95.5064 23.5492ZM105.732 21.2868C105.16 21.2504 105.135 22.594 105.199 23.0771C105.262 23.5617 105.654 23.0669 105.706 23.1427C105.875 23.3928 105.524 23.5632 105.744 23.906C105.818 24.0174 106.813 24.4848 106.856 24.4264C107.102 24.1022 106.723 22.9981 106.793 22.8704C107.019 22.4517 107.358 23.0243 107.419 22.4342C107.554 21.1749 106.961 22.5023 106.862 22.5248C106.563 22.5881 106.58 21.8799 106.353 21.7407C106.125 21.6018 105.979 21.846 105.778 21.7981C105.711 21.7821 105.761 21.291 105.732 21.2868ZM103.866 24.1442C104.448 23.1212 102.994 22.0304 102.821 22.2701C102.319 22.9826 103.59 24.6325 103.866 24.1442ZM84.7598 24.2439C85.3054 23.5039 84.0202 22.9138 83.6621 23.2123C83.7296 23.5183 84.5721 24.4986 84.7598 24.2439ZM89.3547 22.3763C88.8548 22.6089 89.5301 24.2657 89.9467 24.237C90.1842 23.144 89.9558 23.3618 89.6827 23.3187C89.4098 23.2751 89.7442 22.1951 89.3547 22.3763ZM111.939 22.4205C111.837 22.4049 110.112 23.3316 111.116 23.6924C111.192 23.7194 112.404 23.5428 112.503 23.3731C112.686 23.0306 112.225 22.4649 111.939 22.4205ZM91.7561 20.7487C91.4967 21.6946 91.2344 21.6836 91.4865 22.7906C91.4868 22.7906 91.4872 22.7906 91.4876 22.7906C90.8158 23.1345 90.7704 20.8668 90.6252 20.9162C90.1162 21.0897 90.6099 22.7008 90.2929 23.2328C91.0343 22.7299 90.8278 23.8196 91.3925 23.885C91.5193 23.8991 92.0201 23.2458 92.0908 22.8403C92.1617 22.4346 91.8961 21.2219 91.7561 20.7487ZM114.403 22.1465C113.81 21.7945 113.308 23.3329 114.116 23.5626C114.51 23.6756 114.777 22.3605 114.403 22.1465ZM55.4452 22.133C55.536 22.5341 55.6295 22.9335 55.7272 23.3309C55.5088 23.4282 55.2906 23.5275 55.073 23.6267C55.245 23.4995 55.4174 23.3743 55.5911 23.249C55.1812 23.1096 54.9935 22.38 55.4441 22.133C55.4445 22.133 55.4448 22.133 55.4452 22.133ZM40.8944 21.8387C40.7113 21.4524 40.3534 22.6489 40.399 22.7422C40.7409 23.4375 41.1485 22.3743 40.8944 21.8387ZM83.9315 20.6142C83.2539 20.4502 83.7282 22.3931 84.1452 22.5243C83.8877 22.1536 84.317 20.7074 83.9315 20.6142ZM46.0121 21.9311C46.0731 22.0983 46.1345 22.2655 46.2029 22.4329C45.9881 22.2005 45.9511 22.0441 46.0121 21.9311ZM111.641 20.707C111.538 20.5592 110.777 20.4468 110.674 20.6329C110.465 21.024 111.078 22.0895 111.42 21.7542C111.459 21.7182 111.744 20.8548 111.639 20.707C111.64 20.707 111.64 20.707 111.641 20.707ZM54.5251 21.3891C54.5263 21.4077 54.5257 21.4254 54.5235 21.4418C54.5243 21.4244 54.524 21.4065 54.5251 21.3891ZM25.6315 19.424C25.6357 19.4541 25.6379 19.4841 25.6374 19.5128C25.6358 19.4846 25.6325 19.4549 25.6315 19.424ZM106.224 19.1258C105.95 17.2755 105.375 18.2678 105.848 19.1789C105.875 19.2268 106.163 19.1229 106.224 19.1258ZM137.947 35.5324C136.818 36.7427 135.951 37.8199 135.067 38.9273C134.284 39.9044 133.447 40.8517 132.531 41.7046C132.252 41.964 131.866 41.5884 131.743 41.6211C131.407 41.7063 131.764 42.258 131.587 42.3859C130.732 43.0033 129.997 43.6539 129.143 44.2359C128.262 44.8312 127.426 43.2997 126.889 43.2615C125.846 43.1739 127.789 44.3146 127.94 44.8532C127.814 44.9424 127.685 45.0283 127.554 45.1113C127.007 45.4552 126.451 45.7226 125.937 45.9567C125.909 45.6992 125.889 45.4411 125.881 45.1856C125.632 45.365 125.098 45.4189 125.055 44.6643C124.865 44.63 124.663 44.5711 124.476 44.5411C125.007 45.1301 124.697 45.5298 125.004 45.8889C125.309 46.25 125.421 45.9829 125.45 46.0125C125.839 46.4456 124.542 46.6383 124.451 46.6505C124.193 46.6769 123.577 45.8919 123.51 46.0617C123.392 46.3598 125.046 47.5046 122.765 46.0796C123.325 46.7576 122.975 46.4763 122.801 46.5955C122.778 46.6114 123.181 46.9095 123.184 46.9265C123.292 47.3863 122.703 46.6321 122.664 46.6001C121.978 46.0866 122.066 46.5909 121.96 46.5965C121.356 46.6381 120.824 46.7122 120.353 46.8496L120.485 46.6278C119.93 46.8468 119.467 47.183 119.094 47.6756C118.948 47.8683 118.965 48.6732 118.736 48.8272C118.584 48.9293 118.301 48.7962 118.035 48.695C117.907 48.6465 117.783 48.6057 117.679 48.6021C118.953 49.3834 119.022 49.65 117.91 49.6805C118.769 50.3667 118.023 49.9322 117.983 50.4072C117.989 50.7687 118.383 52.3093 117.288 51.7895C117.715 51.5258 117.327 51.1685 117.398 50.5747C117.411 50.4794 117.673 50.057 117.706 49.6447C117.745 49.2324 117.602 48.8483 117.081 48.661C116.538 48.4655 116.837 49.0664 116.731 49.036C116.142 48.8252 115.555 48.3047 115.875 48.2501C115.967 48.3466 116.057 48.4528 116.147 48.554C117.041 48.4772 114.204 47.5202 116.714 48.2815C117.023 48.3729 117.319 48.5247 117.658 48.5971C117.536 48.526 117.183 48.4646 117.157 48.3693C117.152 48.3472 117.182 48.3371 117.226 48.3316C117.375 48.3142 117.681 48.3504 117.297 48.1592C116.86 47.9404 116.744 48.01 116.709 48.0993C116.687 48.1584 116.699 48.2251 116.678 48.2263C116.682 48.2285 116.687 48.2307 116.691 48.233C116.374 48.2447 116.327 48.0627 116.315 47.9219C116.308 47.8505 116.31 47.7894 116.29 47.7724C115.888 47.4384 115.495 47.3665 115.202 47.0035C115.035 46.7964 115.29 46.5718 115.268 46.4354C115.244 46.2989 114.823 46.3022 114.78 46.198C114.737 46.0936 115.042 46.1265 114.993 46.0041C114.971 45.9511 114.583 45.7745 114.577 45.751C114.514 45.4961 115.263 45.9903 115.292 45.8C115.308 45.6784 114.736 44.9528 114.392 45.1052C114.373 44.9446 114.374 44.7955 114.374 44.6402C114.222 44.6648 114.105 44.7098 113.933 44.723C114.229 44.5747 113.624 44.1488 113.651 43.9692C113.68 43.7882 114.532 44.0417 114.24 43.673C113.625 42.8776 113.52 44.0128 113.331 44.0409C113.252 44.0571 112.716 43.59 112.712 43.5539C112.692 43.3983 113.202 43.4749 113.229 43.3725C113.275 43.1903 113.187 42.9722 113.097 42.7439C113.184 42.6435 113.339 42.2673 113.436 42.177C113.364 41.9422 113.285 41.7062 113.339 41.5133C113.684 40.2291 114.471 38.6915 115.197 37.717C115.466 37.3514 116.17 37.6733 116.286 37.525C116.557 37.1794 116.146 36.6945 116.383 36.4114C116.738 35.9878 117.62 35.9086 117.973 35.7316C118.082 35.6765 118.092 35.531 118.072 35.3796C118.044 35.1876 117.967 34.9858 117.987 34.9545C118.472 34.1725 119.21 33.4288 119.697 32.8904C119.924 32.6387 120.545 32.9812 120.578 32.9143C120.721 32.6281 120.226 32.2957 120.437 32.1502C120.549 32.0718 120.99 32.4282 121.018 32.4293C121.264 32.4331 120.731 31.9197 120.795 31.8104C121.16 31.183 121.981 30.9636 122.505 30.4439C122.543 30.4061 122.792 30.6192 122.801 30.5819C122.834 30.4166 122.392 30.1412 122.462 29.9975C122.602 29.7043 122.87 29.5033 123.134 29.28C123.14 29.2746 123.145 29.2692 123.151 29.2638C123.184 29.2343 123.523 29.4843 123.584 29.4091C123.646 29.3339 123.384 29.0237 123.497 28.9208C123.797 28.6482 124.414 28.658 124.704 28.3626C124.751 28.3142 124.424 27.917 124.498 27.8412C124.725 27.6055 125.386 27.5575 125.58 27.3693C126.221 26.741 126.564 25.9621 127.087 25.4097C127.209 25.2826 127.656 25.4954 127.725 25.4391C127.88 25.3122 127.455 25.1146 127.591 24.9683C128.14 24.3851 128.633 23.9133 128.906 23.6306C129.187 23.3373 129.224 23.3016 129.208 23.3023C129.202 23.297 129.083 23.2583 128.988 23.2071C128.741 24.0645 128.707 24.9235 129.118 25.8968C129.545 26.7832 130.179 26.6675 130.857 27.4326C131.055 27.6395 131.257 27.843 131.466 28.0392C130.771 27.6913 130.258 27.9993 129.784 27.6283C129.371 27.2986 129.651 26.4344 129.36 26.1776C129.072 25.9219 128.381 26.2868 128.046 26.0299C127.769 25.8136 127.754 25.2469 127.493 25.0112C125.141 22.8875 123.228 20.7914 122.009 18.1866C121.858 17.8605 121.662 17.5434 121.481 17.2271C121.255 16.7908 121.044 16.3367 121.076 15.6558C121.081 15.5552 121.702 15.1421 121.428 15.0719C121.278 15.0344 120.699 15.3436 120.481 15.1679C119.812 14.6275 119.364 13.8192 118.79 13.0313C118.048 12.1389 117.261 11.2519 116.274 10.7016C113.266 9.04105 107.093 11.1114 109.659 3.80332C109.912 3.49791 110.438 1.71942 110.721 1.268C110.628 1.63617 110.47 2.05436 110.335 2.45997C111.435 0.431021 111.18 0.96948 111.406 1.33333C111.545 1.56112 111.871 0.610459 112.128 0.434656C112.459 0.203612 113.789 -0.314954 112.84 0.895657C113.022 0.697057 113.196 0.506761 113.377 0.313988C114.015 0.441548 114.716 0.443347 115.453 0.407214C115.581 0.40038 115.852 0.0048584 115.983 0.000499606C116.334 -0.0160893 116.348 0.373748 116.616 0.497074C116.763 0.565489 117.093 0.119445 117.245 0.266002C117.396 0.413034 116.971 1.02838 117.663 0.517633C118.043 -0.360827 118.337 0.66885 118.609 0.788744C118.648 0.806221 119.417 0.314691 119.513 0.500444C119.611 0.685079 119.532 1.28801 119.943 1.20307C120.135 1.16311 120.581 0.673842 120.721 0.72743C120.82 0.765258 120.583 1.31261 120.674 1.40706C120.765 1.50155 121.271 1.27312 121.317 1.29639C121.486 1.37764 121.082 1.59383 121.173 1.68381C121.615 2.11402 122.061 2.70495 122.71 2.83354C122.789 2.84956 122.99 2.39808 123.007 2.39072C123.761 2.20391 123.176 2.55807 123.031 2.98799C122.89 3.40284 123.801 3.78386 124.304 3.11081C123.706 3.97775 124.351 3.45393 124.416 3.46344C124.663 3.49662 124.087 4.20368 124.423 4.10115C124.547 4.0651 124.789 3.4787 124.846 3.54336C124.988 3.70354 124.546 4.60604 124.707 4.84901C124.736 4.89298 124.902 4.70969 125.017 4.65133C125.057 4.63415 125.092 4.6307 125.117 4.65336C125.218 4.74601 125.332 5.51545 125.694 4.62133C125.51 5.42101 125.813 5.13866 126.111 5.40748C126.186 5.47706 125.832 6.10476 126.134 6.07174C126.237 6.06062 126.678 5.53729 126.766 5.60535C126.969 5.75988 126.68 6.44769 126.891 6.67678C127.285 7.10624 128.085 7.18634 128.389 7.75556C128.471 7.91028 127.946 8.3559 128.099 8.53686C128.122 8.56072 128.754 8.36568 128.826 8.52886C128.871 8.62598 128.9 9.28944 128.94 9.3885C129.01 9.55215 129.536 9.1439 129.498 9.3011C129.388 9.75316 128.492 10.2078 129.733 9.6053C129.228 10.1601 129.403 10.2591 128.726 10.8768C129.576 10.335 128.91 11.0431 129.3 10.9992C129.445 10.9837 129.759 10.8332 130.019 10.7161C130.457 10.5045 130.732 10.3882 129.699 11.2107C129.956 11.1287 130.531 11.1696 130.595 11.2022C130.781 11.2999 130.26 11.568 130.407 11.6335C130.432 11.6455 130.732 11.3864 130.797 11.5381C130.842 11.6402 131.284 12.2686 131.268 12.3375C131.087 13.1277 130.784 12.3456 130.373 12.5109C130.451 12.4274 130.529 12.3439 130.605 12.2601C130.615 11.9631 129.981 12.6048 129.878 12.813C129.776 13.0215 130.211 12.9392 130.029 13.1842C129.937 13.3072 129.065 13.9277 129.09 13.7462C128.91 14.0553 128.518 14.1123 128.303 14.3423C128.068 14.5939 128.361 15.1587 128.834 14.8079C128.78 14.7013 128.678 14.5985 128.625 14.4881C129.352 13.7487 132.435 12.0283 131.576 13.2128C130.954 14.0698 130.001 14.1388 131.124 14.2229C131.089 14.107 131.108 13.9733 131.08 13.8642C131.689 13.395 131.113 14.0357 131.36 13.9583C131.481 13.9199 131.763 13.389 132.041 13.4584C131.276 14.2701 132.25 13.7257 132.452 13.9739C132.242 14.0202 132.032 14.0657 131.822 14.112C131.508 15.0229 130.544 14.1739 130.819 15.2843C130.714 15.204 130.646 15.0973 130.526 15.0279C130.241 15.3189 129.234 15.9493 129.067 16.1434C128.628 16.6528 129.074 16.5883 129.134 16.7645C129.162 16.8411 128.877 16.9943 128.879 17.0006C128.915 17.1069 129.276 16.8071 129.355 16.8638C129.456 16.9353 129.295 17.48 129.37 17.4928C129.561 17.5268 130.158 16.7822 130.221 16.7518C130.634 16.5552 130.448 16.9259 130.91 16.5661C130.32 16.4531 129.967 15.1181 131.436 15.4633C132.002 14.6402 133.101 13.9321 133.457 14.2352C133.752 14.4851 133.188 14.6044 132.847 15.1071C132.805 15.171 132.889 15.7396 133.229 15.5156C132.47 16.0631 131.908 16.6944 131.07 17.1877C130.947 17.2602 130.866 17.0593 130.29 17.5851C130 17.8491 129.386 18.4445 128.98 18.7301C129.282 18.5567 129.619 18.3588 129.932 18.1766C130.202 18.366 129.933 18.627 129.524 19.1534C129.733 18.9845 130.538 18.1758 130.409 18.5752C130.401 18.5976 130.084 18.8505 129.998 19.0707C129.829 19.5132 129.761 19.6312 128.697 20.1991C129.551 20.1993 128.566 21.0951 129.202 21.2855C130.349 20.2666 129.934 20.35 129.404 20.1416C129.68 19.9038 129.96 19.6772 130.239 19.4367C129.977 20.4517 129.85 20.1473 130.66 19.988C130.857 19.9478 130.997 20.4453 131.714 19.6877C131.882 19.5094 131.68 19.2933 132.003 19.0869C132.064 19.0468 132.43 19.2171 132.371 19.3018C131.652 20.3614 130.542 20.3227 131.574 20.9186C131.603 20.9346 131.959 20.667 132.044 20.6749C132.204 20.6903 131.799 21.0103 131.956 21.0157C132.113 21.0213 132.74 20.6947 132.332 21.2119C131.599 22.164 130.656 22.0646 130.963 21.4522C129.674 22.2931 131.011 24.0019 131.227 24.0338C132.062 24.1315 131.139 23.5626 131.442 23.2597C131.565 23.1277 133.317 21.6835 132.028 22.4375C131.644 22.6584 131.398 23.2633 131.094 23.274C130.793 23.2873 131.355 22.9176 131.383 22.8778C131.478 22.7422 131.164 22.7501 131.221 22.6701C132.103 21.4725 133.808 20.1243 131.633 22.5403C132.331 22.2463 132.914 21.1317 133.463 21.0248C134.122 20.8839 133.479 21.7268 133.469 21.7874C133.366 22.5184 134.15 21.1109 134.167 21.8699C134.183 22.2956 133.077 22.153 133.66 22.6662C134.163 23.096 134.31 22.4728 135.22 21.697C135.434 21.5157 135.895 21.5075 135.515 21.2795C135.276 21.48 134.958 21.7408 134.726 21.9126C134.819 21.6764 135.865 20.505 135.874 20.4322C135.892 20.058 135.287 20.5943 135.907 19.8529C135.188 20.6174 135.543 20.0639 135.329 20.1518C134.538 20.4702 134.525 20.9293 134.944 19.7978C134.616 20.1694 134.291 20.5291 133.966 20.9002C133.905 20.8534 133.845 20.8078 133.784 20.76C134.543 19.9876 134.197 19.7791 135.257 19.3644C135.234 18.8478 134.945 18.8608 134.231 19.3093C134.095 19.3952 134.003 19.3829 133.945 19.3337C133.769 19.4911 133.21 19.958 133.133 20.0042C132.451 20.4078 133.41 19.4342 133.852 19.1587C133.839 19.1016 133.835 19.0503 133.836 19.0307C133.84 18.9065 134.323 18.7627 134.402 18.6032C134.426 18.5503 134.185 18.4077 134.331 18.286C135.273 17.5091 134.844 18.3913 134.872 17.2727C133.981 17.9368 134.422 18.1056 133.428 18.749C132.358 19.4381 133.56 18.2144 132.3 19.1258C132.49 18.9543 132.654 18.8172 132.874 18.6263C132.119 18.7577 133.142 17.9627 133.302 17.7022C133.617 17.1972 132.96 16.4735 132.599 17.8497C132.432 17.8156 132.312 17.743 132.156 17.7016C133.985 16.2721 133.296 16.8929 133.209 16.1921C133.19 16.0371 133.978 15.3862 132.931 16.0125C133.891 15.3099 133.077 15.4246 133.17 15.308C133.778 14.5542 135.35 14.4684 133.742 15.8285C134.485 15.4525 133.622 16.1055 133.837 16.1514C134.148 16.2183 134.333 16.1139 133.872 16.8263C134.935 16.3645 133.603 15.6561 135.294 15.4123C135.996 15.3078 137.028 15.828 138.023 16.4384C138.518 16.7406 139.007 17.0674 139.406 17.3059C139.603 17.4224 139.779 17.5182 139.89 17.5489C139.987 17.5715 140.082 17.5625 139.801 17.2805C142.586 19.6175 142.598 21.0873 142.966 22.0137C143.337 23.3999 143.371 24.6289 143.207 25.8279C142.944 29.0139 141.616 31.5012 140.053 33.2742C139.844 33.5381 138.743 34.9008 138.04 33.7404C137.937 33.5786 138.047 32.726 136.89 32.4774C137.414 32.7979 137.467 33.3182 137.493 33.3828C138.103 34.8378 138.593 34.8335 137.947 35.5324ZM127.629 29.584C128.706 28.8394 127.434 28.9462 126.167 27.4218C126.049 27.5414 125.929 27.6659 125.809 27.7898C125.93 27.8396 126.052 27.8882 126.173 27.9375C126.173 27.9373 126.174 27.9372 126.174 27.937C126.655 28.4896 127.141 29.0373 127.629 29.584ZM113.165 44.7766C112.952 44.6215 112.739 44.466 112.533 44.3078C112.681 44.1828 112.828 44.0565 112.979 43.9279C113.127 44.0236 113.278 44.1192 113.427 44.2142C113.329 44.4012 113.234 44.5839 113.165 44.7766ZM130.633 21.492C131.057 20.8682 130.061 21.676 130.332 21.0741C129.608 21.6842 128.905 22.2873 128.191 22.8955C128.449 22.999 128.762 22.8149 128.744 23.1651C128.964 22.9529 129.185 22.7391 129.407 22.5266C129.329 22.5331 129.241 22.5419 129.171 22.5458C129.799 21.968 130.153 22.2124 130.635 21.4914C130.634 21.4916 130.634 21.4918 130.633 21.492ZM128.901 19.8699C128.925 19.6985 129.003 19.0336 128.651 19.2182C127.455 19.84 128.954 20.4226 127.403 20.3311C127.257 20.4472 127.108 20.5538 126.961 20.6651C127.021 20.8522 127.087 21.0327 127.158 21.2129C127.737 20.76 128.319 20.326 128.901 19.8699ZM130.544 26.3539C130.745 26.2913 130.723 25.3568 129.934 24.9835C129.714 24.8634 130.421 25.8842 130.291 25.9496C130.211 25.9877 129.784 25.4765 129.855 25.7591C130.075 25.9497 130.316 26.1637 130.543 26.3523C130.544 26.3528 130.544 26.3534 130.544 26.3539ZM133.15 29.1946C133.193 28.975 133.216 28.7301 133.248 28.5066C132.598 28.1055 132.772 28.6306 131.984 27.9242C131.958 27.8334 131.933 27.7428 131.908 27.6518C132.104 27.7796 132.301 27.9075 132.498 28.0347C132.176 27.5332 131.901 27.4132 132.212 27.3118C130.895 26.386 130.266 25.8067 131.128 27.2586C130.551 26.6044 128.425 24.7395 129.723 26.3099C129.962 26.6031 130.288 26.6218 130.334 26.6602C130.9 27.1417 131.165 27.5527 131.702 28.0052C131.946 28.2095 132.034 28.1074 132.371 28.3918C132.535 28.5303 132.895 29.0437 133.15 29.1946ZM130.149 26.8908C129.859 26.5424 128.954 25.9466 128.997 26.215C129.06 26.6368 130.081 27.0366 130.149 26.8908ZM113.165 44.778C113.165 44.7776 113.165 44.7771 113.165 44.7766C113.166 44.7772 113.166 44.7778 113.167 44.7784C113.166 44.7783 113.166 44.7782 113.165 44.778ZM128.87 20.6884C128.478 20.8049 128.393 20.6012 127.919 20.9822C127.971 20.8537 128.021 20.7258 128.074 20.5973C127.929 20.7084 127.784 20.8204 127.64 20.9304C127.678 21.1688 127.716 21.4061 127.754 21.6469C128.126 21.3284 128.501 21.0104 128.87 20.6884ZM127.826 18.6037C127.717 18.3566 127.188 19.0295 126.834 19.2233C126.48 19.4169 126.599 19.0342 126.158 19.4002C126.233 19.5376 126.312 19.6806 126.39 19.8187C126.863 19.4109 127.354 19.0064 127.826 18.6032C127.826 18.6034 127.826 18.6035 127.826 18.6037ZM123.919 32.9817C124.164 32.9699 124.602 33.4293 124.252 32.6979C124.252 32.6981 124.252 32.6983 124.252 32.6984C123.652 32.6083 123.043 32.6133 123.196 33.2C123.838 33.4758 123.535 33.0004 123.919 32.9817ZM129.576 23.1567C130.016 22.9066 130.112 22.3569 129.7 22.5848C129.029 22.9483 128.905 23.5347 129.576 23.1567ZM122.384 41.0538C123.262 42.3463 124.825 43.2396 124.699 42.3219C124.687 42.2426 124.094 42.1354 123.959 41.8473C123.946 41.8188 124.109 41.7116 123.994 41.5248C123.898 41.3685 123.614 41.1181 123.471 40.921C123.443 40.8821 123.42 40.8453 123.405 40.8118C123.247 40.4562 123.94 40.7235 123.676 40.3107C123.64 40.2559 123.037 39.9146 123.011 39.9046C122.665 39.7789 122.928 40.2683 123.021 40.4586C123.04 40.4989 123.052 40.5257 123.049 40.5301C122.959 40.6596 122.5 40.1532 122.36 40.0651C122.097 39.8997 122.215 40.2059 122.193 40.1961C121.609 39.9282 122.111 39.6808 121.989 39.4548C121.964 39.4082 121.938 39.3632 121.911 39.3198C121.58 38.7958 121.112 38.4808 121.163 37.9442C121.169 37.8885 121.555 37.5636 120.566 37.4655C120.394 36.0594 119.935 36.5269 119.709 37.0603C119.61 37.2894 119.549 37.5352 119.576 37.6542C119.619 37.8389 120.178 38.204 120.339 38.4557C120.708 39.0309 120.621 39.2789 121.293 39.9431C122.706 41.3387 122.021 40.1911 122.405 40.2849C122.689 40.6098 122.975 40.9177 123.239 41.2492C122.89 40.7978 122.317 40.9571 122.381 41.051C122.382 41.052 122.383 41.0529 122.384 41.0538ZM123.093 37.139C123.724 37.3438 122.798 36.4992 123.498 36.8002C122.831 35.8657 122.581 36.244 122.499 36.2375C122.13 36.2151 121.249 35.3659 121.357 35.7974C121.936 36.24 122.512 36.6958 123.093 37.139ZM120.987 38.5292C120.682 37.9406 120.444 38.1872 120.349 38.1103C119.866 37.7168 119.826 37.3885 119.994 37.3522C120.152 37.3193 120.507 37.5472 120.854 38.235C120.899 38.325 120.943 38.423 120.987 38.5292ZM133.113 27.2382C133.203 27.195 132.695 26.8574 132.602 26.6861C132.507 26.5164 133.073 26.6312 132.767 26.4085C132.451 26.1992 131.433 25.9119 131.503 25.4694C131.325 25.3522 131.201 25.2535 131.044 25.1429C130.98 25.2182 130.91 25.2931 130.837 25.3743C131.35 25.7133 131.896 26.0621 132.403 26.3738C132.743 26.7296 132.226 26.3755 132.225 26.3775C132.225 26.3779 132.226 26.3783 132.226 26.3787C132.186 26.5075 132.909 27.336 133.113 27.2382ZM126.349 31.9021C126.624 32.1329 126.768 32.2399 126.827 32.2662C127.023 32.348 126.332 31.5707 126.272 31.4166C126.194 31.2158 126.719 31.4648 126.18 31.0891C125.786 30.9531 126.1 31.5799 126.279 31.8226C126.308 31.86 126.333 31.8883 126.351 31.9033C126.35 31.9029 126.35 31.9025 126.349 31.9021ZM124.141 36.0039C124.027 35.5783 123.706 35.3448 124.236 35.4281C123.954 35.192 123.666 34.9505 123.388 34.7179C123.232 34.882 124.037 35.5832 123.54 35.4939C123.458 35.4783 122.888 34.8379 122.961 35.1654C123.336 35.4293 123.748 35.7263 124.141 36.0039ZM123.901 34.2203C123.767 34.4592 125.855 36.5904 125.183 35.3208C125.082 35.1318 124.002 34.0397 123.901 34.2203ZM131.479 29.1509C131.871 28.8642 131.15 28.925 130.731 28.7008C131.235 27.6435 130.737 28.8763 129.558 27.9092C129.772 28.3111 130.314 29.1784 130.702 29.1559C130.865 29.1443 130.507 28.8635 130.513 28.8595C130.748 28.7761 131.262 29.3111 131.479 29.1509ZM122.803 37.5461C122.799 37.518 122.411 37.1804 122.376 37.0693C122.341 36.959 122.687 37.1174 122.468 36.8903C122.248 36.662 121.898 36.6707 122.011 36.8863C122.125 37.1037 122.834 37.7983 122.803 37.5461ZM124.963 37.0948C124.848 36.6714 123.191 35.6814 123.166 35.7216C122.941 36.1126 124.526 36.6855 124.963 37.0948ZM133.034 32.1767C132.731 31.1005 131.237 30.2466 130.252 29.8326C130.366 30.0089 130.481 30.1835 130.595 30.3565C129.846 29.3498 129.232 28.2194 129.412 29.5999C129.954 29.447 129.921 29.9683 129.97 30.0178C131.591 31.6054 131.298 30.3808 133.034 32.177C133.034 32.1769 133.034 32.1768 133.034 32.1767ZM121.889 37.706C121.725 37.8828 121.548 38.6092 122.455 39.1031C122.271 38.6347 122.081 38.1694 121.889 37.706ZM136.555 21.4319C136.852 20.9439 136.771 20.8822 136.604 20.7654C136.14 21.4662 135.997 21.457 135.804 21.5474C135.514 21.6849 135.707 21.8463 135.671 21.8876C135.119 22.4398 134.901 22.4024 135.211 22.6724C134.948 22.7998 134.686 22.9278 134.412 23.0358C134.638 23.3093 134.32 23.7128 134.179 24.4052C134.641 23.5433 134.703 23.6272 134.841 23.6835C134.844 23.657 134.866 23.6072 135.112 23.4662C135.391 23.3416 136.39 22.4763 136.392 21.6815C136.468 21.5658 136.527 21.4779 136.554 21.4317C136.554 21.4318 136.554 21.4319 136.555 21.4319ZM133.664 31.9588C133.507 31.7257 133.277 31.4295 133.09 31.171C133.112 31.1048 133.137 31.0412 133.158 30.9755C133.339 31.1375 133.527 31.3083 133.702 31.4627C133.811 31.4504 133.544 31.2409 133.539 31.2008C133.54 31.2017 133.541 31.2026 133.542 31.2035C133.465 30.6361 133.601 30.5664 134.342 30.8733C133.801 30.3635 133.261 29.8536 132.72 29.3437C132.729 29.4381 132.735 29.5317 132.743 29.6238C133.01 29.9225 133.277 30.2218 133.543 30.5213C133.333 30.4224 133.124 30.3251 132.915 30.2252C132.979 30.3659 133.04 30.5205 133.107 30.6536C131.405 29.4274 132.878 29.9286 132.258 29.3289C131.859 28.9448 131.423 29.4367 131.634 29.7692C131.665 29.8179 132.882 30.7833 132.132 30.4016C132.014 30.3412 129.584 28.04 131.364 30.0994C131.617 30.3914 133.211 31.7322 133.664 31.9588ZM136.173 30.8537C134.292 29.7593 137.009 30.0657 135.234 29.4348C134.601 28.6594 134.58 28.705 133.806 28.2685C133.737 28.2287 133.604 27.967 133.571 27.9526C133.106 27.7579 133.178 28.0638 132.519 27.4883C132.528 27.5486 132.534 27.6041 132.543 27.6651C133.274 28.0823 133.512 28.6523 133.951 29.204C134.151 29.4529 134.303 29.43 134.479 29.6464C134.543 29.7259 134.282 29.7153 134.491 29.9146C134.965 30.3643 135.689 30.8812 136.179 31.0548C136.18 31.0552 136.18 31.0556 136.181 31.0561C136.182 30.9906 136.174 30.9203 136.173 30.8537ZM129.582 35.5381C128.626 34.838 128.205 34.8168 128.065 34.0749C127.87 33.9459 127.676 33.8181 127.48 33.6891C127.444 33.7655 127.41 33.8393 127.372 33.9145C129.904 36.3244 126.578 34.1712 128.67 35.522C128.897 35.669 128.791 35.3264 129.23 35.941C129.23 35.9412 129.231 35.9414 129.232 35.9416C129.232 35.5897 128.93 35.297 129.582 35.5381ZM130.077 33.6359C128.581 31.5476 128.456 33.4061 129.132 33.6311C129.188 33.6552 129.191 32.8182 130.077 33.6359ZM128.498 38.8867C128.723 38.6973 127.723 37.7986 127.341 37.5008C126.958 37.2015 127.197 37.6722 127.123 37.6404C126.881 37.5346 126.87 37.2951 126.542 37.1455C126.435 37.0975 125.755 37.1404 125.784 37.1943C125.941 37.5004 126.886 38.1072 126.957 38.2179C127.189 38.5826 126.653 38.3153 127.068 38.7356C127.95 39.6348 127.173 38.5255 127.189 38.4755C127.245 38.3233 127.765 38.8043 127.947 38.8137C128.128 38.8228 127.998 38.6043 128.101 38.5628C128.136 38.5489 128.485 38.8946 128.498 38.8867ZM126.976 36.316C127.554 37.2031 128.861 37.3806 128.737 37.1582C128.359 36.5113 126.699 35.8961 126.976 36.316ZM133.121 29.4075C133.476 30.1074 134.342 30.0555 134.249 29.7149C133.996 29.5381 132.998 29.1686 133.121 29.4075ZM132.922 32.2892C132.922 31.9563 131.493 31.0487 131.374 31.2138C132.089 32.047 132.008 31.8172 132.13 31.7534C132.252 31.6899 132.924 32.5486 132.922 32.2892ZM125.489 40.3496C125.543 40.3213 125.487 39.0746 124.875 39.1721C124.83 39.1801 124.528 39.7191 124.615 39.8695C124.793 40.1732 125.357 40.416 125.489 40.3496ZM133.341 34.2061C132.725 33.4805 132.818 33.399 131.924 32.7327C131.924 32.7328 131.924 32.733 131.924 32.7331C131.891 32.2672 133.564 33.7998 133.573 33.7187C133.606 33.4328 132.274 32.4951 131.99 32.0227C132.115 32.6194 131.387 31.8035 131.151 31.958C131.099 31.9919 131.416 32.6087 131.693 32.9067C131.97 33.2045 132.95 33.9315 133.341 34.2061ZM124.79 41.3893C125.256 41.437 124.36 40.1683 123.905 40.2795C123.684 40.3314 124.508 41.3588 124.79 41.3893ZM132.943 16.2857C132.65 16.5624 132.358 16.8393 132.069 17.1166C131.929 17.0917 131.786 17.0667 131.644 17.0431C131.795 17.0324 131.945 17.0238 132.095 17.015C132.088 16.7728 132.616 16.2611 132.943 16.2852C132.943 16.2854 132.943 16.2855 132.943 16.2857ZM128.872 10.4023C129.108 10.0796 128.064 10.6957 128.009 10.7755C127.587 11.3552 128.541 10.8441 128.872 10.4023ZM136.066 31.5761C136.44 31.4138 134.825 30.2998 134.587 30.3602C134.95 30.516 135.858 31.6617 136.066 31.5761ZM130.373 12.5109C130.258 12.6353 130.142 12.7598 130.028 12.8872C130.151 12.6633 130.265 12.5549 130.373 12.5109ZM126.82 41.4449C126.964 41.5112 127.326 41.312 127.229 41.1457C127.023 40.7993 126.038 40.2768 126.153 40.6323C126.166 40.6707 126.676 41.3786 126.821 41.4443C126.82 41.4445 126.82 41.4447 126.82 41.4449ZM133.272 15.4845C133.257 15.4962 133.243 15.5066 133.229 15.5156C133.243 15.5055 133.257 15.4946 133.272 15.4845ZM124.354 3.03738C124.338 3.06295 124.321 3.08776 124.304 3.11081C124.32 3.08757 124.336 3.06266 124.354 3.03738ZM129.934 40.5164C131.408 41.6479 130.875 40.7616 130.028 40.3363C129.983 40.3143 129.958 40.4949 129.934 40.5164Z" fill="#F15D2B"/>
</svg>
