<svg width="165" height="165" viewBox="0 0 165 165" fill="none" xmlns="http://www.w3.org/2000/svg">
<path d="M87.1869 18.7953C87.4199 18.8715 87.6529 18.9478 87.893 19.0263C88.6631 19.2787 89.4322 19.5339 90.2013 19.7892C90.7476 19.969 91.2939 20.1487 91.8402 20.3282C93.3 20.8086 94.7588 21.2915 96.2174 21.7752C97.1236 22.0756 98.0299 22.3753 98.9363 22.6749C114.36 27.7731 129.7 33.0189 144.778 39.0748C145.003 39.1647 145.229 39.2547 145.461 39.3473C146.089 39.5982 146.715 39.8521 147.341 40.107C147.695 40.2504 148.049 40.3939 148.415 40.5416C149.209 40.9278 149.209 40.9278 149.531 41.5723C149.584 42.0019 149.619 42.4336 149.646 42.8656C149.663 43.1377 149.681 43.4098 149.698 43.6901C149.716 43.9907 149.733 44.2914 149.751 44.6011C149.771 44.9193 149.79 45.2374 149.81 45.5652C149.873 46.6377 149.934 47.7103 149.994 48.783C150.015 49.157 150.037 49.531 150.058 49.9164C150.628 60.1262 150.905 70.3443 151.142 80.5664C151.156 81.1435 151.156 81.1435 151.17 81.7322C151.291 87.0214 151.37 92.3109 151.433 97.6011C151.457 99.5936 151.482 101.586 151.508 103.579C151.565 107.904 151.617 112.229 151.662 116.554C151.686 118.778 151.711 121.002 151.741 123.225C151.768 125.344 151.791 127.463 151.81 129.582C151.818 130.374 151.828 131.166 151.839 131.958C151.855 133.058 151.864 134.157 151.872 135.256C151.878 135.574 151.884 135.892 151.89 136.22C151.899 139.137 151.447 142.075 149.531 144.375C146.746 147.096 143.94 147.097 140.247 147.092C139.759 147.095 139.272 147.099 138.784 147.102C137.446 147.111 136.108 147.114 134.771 147.116C133.323 147.119 131.875 147.128 130.427 147.136C127.583 147.15 124.74 147.16 121.896 147.167C119.579 147.173 117.263 147.18 114.946 147.189C107.584 147.217 100.222 147.239 92.8601 147.256C87.2321 147.269 81.6042 147.287 75.9763 147.307C69.2469 147.332 62.5174 147.351 55.7879 147.363C55.064 147.364 54.3401 147.366 53.6162 147.367C53.0815 147.368 53.0815 147.368 52.5359 147.369C50.0232 147.374 47.5105 147.382 44.9978 147.391C41.9279 147.403 38.8581 147.409 35.7882 147.41C34.2177 147.411 32.6474 147.413 31.0769 147.422C29.6353 147.429 28.1938 147.43 26.7522 147.427C26.2311 147.427 25.7099 147.429 25.1888 147.433C21.8177 147.461 19.2112 147.147 16.3345 145.302C13.7052 142.489 13.6122 139.45 13.6038 135.779C13.5967 135.218 13.589 134.656 13.5808 134.095C13.5597 132.501 13.5495 130.908 13.5412 129.314C13.5324 127.845 13.5181 126.376 13.5042 124.906C13.4534 119.47 13.4263 114.034 13.4021 108.598C13.3967 107.397 13.391 106.197 13.3854 104.996C13.3666 100.997 13.3485 96.9985 13.3322 92.9996C13.3281 91.9754 13.3239 90.9512 13.3198 89.927C13.3187 89.6726 13.3177 89.4182 13.3166 89.156C13.2996 85.0004 13.2783 80.8449 13.2553 76.6894C13.2317 72.398 13.2116 68.1067 13.1952 63.8153C13.186 61.4153 13.1751 59.0154 13.1602 56.6155C13.1463 54.3699 13.1372 52.1243 13.1316 49.8787C13.1288 49.0546 13.1242 48.2306 13.1179 47.4065C13.1096 46.2844 13.1072 45.1625 13.1064 44.0403C13.1025 43.7127 13.0987 43.3851 13.0947 43.0476C13.104 40.2572 13.104 40.2572 14.1794 38.9942C14.9806 38.5495 14.9806 38.5495 15.9619 38.2036C16.3387 38.0701 16.7155 37.9365 17.1037 37.7989C19.2224 37.0942 21.3539 36.4326 23.4906 35.7848C24.987 35.3307 26.4818 34.8709 27.9764 34.4107C28.294 34.3129 28.6116 34.2152 28.9389 34.1144C32.3213 33.0699 35.6903 31.9846 39.0592 30.8976C51.0422 27.0325 63.0414 23.1988 75.1424 19.7169C75.7834 19.5322 76.4241 19.3461 77.0644 19.1585C77.9396 18.9029 78.8163 18.6534 79.6937 18.4057C79.9469 18.3308 80.2002 18.256 80.4611 18.1788C80.6981 18.1134 80.9352 18.048 81.1794 17.9806C81.3814 17.923 81.5833 17.8653 81.7914 17.8059C83.6553 17.5921 85.4397 18.2113 87.1869 18.7953ZM78.8339 25.0361C78.6054 25.2965 78.377 25.557 78.1416 25.8254C77.7124 26.3215 77.2838 26.8181 76.8582 27.3173C73.3228 31.4246 69.4287 35.4039 65.0974 38.6719C64.6769 39.0004 64.2569 39.3294 63.8372 39.6589C60.9095 41.9442 57.9221 44.0959 54.7849 46.084C54.6001 46.2017 54.4153 46.3194 54.225 46.4406C43.9919 52.9051 32.553 57.912 20.3736 58.8245C19.9977 58.8528 19.6219 58.8811 19.2347 58.9103C18.8061 58.9422 18.8061 58.9422 18.3688 58.9747C18.3612 67.058 18.3556 75.1413 18.3521 83.2247C18.3505 86.9799 18.3483 90.7351 18.3445 94.4903C18.3413 97.7722 18.3392 101.054 18.3385 104.336C18.3381 106.066 18.3372 107.795 18.3348 109.525C18.3253 116.656 18.3472 123.786 18.4559 130.916C18.4662 131.629 18.475 132.343 18.4822 133.056C18.4927 134.045 18.5092 135.033 18.5273 136.022C18.5293 136.313 18.5312 136.605 18.5332 136.905C18.5736 138.658 18.799 139.932 19.6579 141.475C21.1968 142.388 22.4807 142.559 24.2489 142.536C24.4603 142.534 24.6717 142.533 24.8895 142.532C25.5561 142.526 26.2223 142.514 26.8887 142.502C27.3442 142.497 27.7997 142.493 28.2552 142.489C29.3642 142.478 30.4729 142.461 31.5817 142.441C31.5394 142.207 31.4971 141.972 31.4535 141.731C30.8809 138.208 30.7425 134.692 30.6132 131.13C30.5751 130.088 30.533 129.046 30.4903 128.004C30.3536 124.538 30.2626 121.073 30.2448 117.604C30.2418 117.29 30.2389 116.976 30.2358 116.653C30.2352 114.191 30.5586 111.94 31.2595 109.57C31.014 109.435 31.014 109.435 30.7635 109.297C28.5401 108.002 26.9815 106.639 26.1435 104.152C25.2864 100.78 25.7499 97.6289 27.5131 94.6253C28.6445 92.9501 29.9027 91.9551 31.904 91.5235C33.6161 91.5235 34.9235 91.9545 36.4157 92.8125C36.4157 92.5998 36.4157 92.3871 36.4157 92.168C38.9713 92.1753 41.1549 92.2135 43.2349 93.8171C45.3802 96.0125 45.8787 98.471 45.8533 101.437C45.633 103.939 44.5963 105.923 43.1833 107.959C47.6897 111.586 52.4447 114.534 57.6852 116.982C58.0483 117.154 58.4114 117.326 58.7855 117.504C73.0827 123.966 89.9276 124.147 104.555 118.715C111.005 116.213 116.868 112.761 122.138 108.281C121.905 107.948 121.905 107.948 121.668 107.608C119.486 104.363 118.84 101.857 119.56 97.9688C120.244 95.8495 121.303 93.8707 122.984 92.3896C124.519 91.6224 126.228 91.1825 127.916 91.7224C128.318 91.9035 128.72 92.0857 129.121 92.2687C130.151 92.5722 131.079 92.5063 132.149 92.4701C134.121 92.4301 135.104 92.537 136.64 93.7793C138.378 95.5567 139.325 97.3604 139.369 99.8533C139.366 100.069 139.363 100.284 139.359 100.507C139.357 100.733 139.354 100.959 139.351 101.193C139.256 104.13 138.187 105.896 136.279 108.047C135.594 108.677 134.864 109.102 134.062 109.57C134.105 109.767 134.147 109.963 134.19 110.166C134.851 113.607 134.934 117.074 135.069 120.568C135.083 120.9 135.096 121.232 135.11 121.575C135.287 125.985 135.417 130.394 135.432 134.808C135.433 135.03 135.435 135.251 135.437 135.48C135.452 137.986 135.331 140.33 134.707 142.764C135.935 142.837 137.164 142.902 138.393 142.965C138.737 142.986 139.082 143.007 139.437 143.028C141.879 143.148 144.158 143.172 146.288 141.857C147.831 140.221 147.699 138.404 147.712 136.276C147.716 135.945 147.721 135.613 147.725 135.271C147.74 134.158 147.749 133.046 147.759 131.933C147.769 131.136 147.778 130.338 147.788 129.541C147.809 127.824 147.828 126.107 147.845 124.39C147.869 121.908 147.897 119.426 147.926 116.943C147.973 112.915 148.017 108.888 148.059 104.86C148.1 100.948 148.142 97.0355 148.186 93.1232C148.189 92.882 148.192 92.6409 148.195 92.3924C148.208 91.1824 148.222 89.9724 148.236 88.7624C148.349 78.7258 148.458 68.6891 148.564 58.6524C148.351 58.635 148.139 58.6176 147.92 58.5997C146.946 58.5194 145.973 58.4375 144.999 58.3555C144.665 58.3282 144.33 58.3009 143.985 58.2727C141.614 58.0714 139.368 57.7482 137.063 57.1418C136.73 57.0573 136.396 56.9729 136.052 56.8859C121.458 53.0878 107.246 45.4658 95.7126 35.7715C95.5395 35.627 95.3663 35.4825 95.188 35.3336C90.7789 31.6456 87.1671 27.7855 83.8844 23.0571C83.4898 22.4789 83.4898 22.4789 82.7011 22.4176C80.9783 22.7048 79.9463 23.757 78.8339 25.0361ZM90.2341 24.8145C93.8376 28.4901 97.9943 31.4817 102.158 34.4825C102.502 34.7324 102.502 34.7324 102.853 34.9874C108.286 38.9312 113.931 42.5515 119.852 45.7201C120.501 46.0701 121.144 46.4288 121.787 46.7902C129.18 50.8973 139.925 56.7188 148.564 56.7188C148.671 51.6141 148.777 46.5094 148.886 41.25C146.806 40.7183 144.726 40.1866 142.582 39.6387C133.778 37.3564 125.055 34.8158 116.338 32.2266C116.111 32.1594 115.885 32.0922 115.652 32.023C109.37 30.1569 103.09 28.282 96.8124 26.4009C96.4603 26.2958 96.1081 26.1908 95.7453 26.0825C95.0963 25.8869 94.4484 25.6878 93.8018 25.4846C93.5171 25.3957 93.2324 25.3068 92.9391 25.2152C92.6948 25.1374 92.4505 25.0596 92.1988 24.9795C91.4303 24.7635 91.4303 24.7635 90.2341 24.8145ZM73.135 25.2914C72.8598 25.3834 72.5846 25.4754 72.301 25.5702C71.9854 25.6743 71.6698 25.7784 71.3446 25.8857C70.9975 26.0029 70.6503 26.1201 70.2926 26.2408C69.9289 26.3613 69.5651 26.4818 69.1903 26.606C68.1897 26.9377 67.1898 27.2714 66.19 27.6056C64.4797 28.1762 62.7672 28.7401 61.0549 29.3047C60.6122 29.4507 60.1696 29.5968 59.7269 29.7429C55.1307 31.2601 50.5198 32.7288 45.9024 34.1803C45.5318 34.2969 45.1612 34.4135 44.7794 34.5336C42.8897 35.1281 40.9997 35.7218 39.1097 36.3152C36.5727 37.112 34.0368 37.9124 31.5012 38.7135C31.1781 38.8155 31.1781 38.8155 30.8486 38.9196C29.7832 39.2562 28.7178 39.5928 27.6524 39.9295C25.6821 40.5521 23.7117 41.1742 21.7413 41.7964C20.6284 42.1478 19.5155 42.4993 18.3688 42.8614C18.3688 47.328 18.3688 51.7946 18.3688 56.3965C31.049 53.5787 43.8654 47.3064 54.7849 40.2832C55.0582 40.1077 55.3316 39.9321 55.6132 39.7512C61.2901 36.0807 66.7825 32.1782 71.8649 27.7149C72.1383 27.4773 72.4116 27.2396 72.6933 26.9948C73.2785 26.485 73.8619 25.9735 74.4431 25.459C73.8139 25.0587 73.8139 25.0587 73.135 25.2914ZM32.9098 95.0155C31.1531 96.9299 30.4611 98.5247 30.5356 101.136C30.7128 102.699 31.4082 103.68 32.5687 104.676C34.2505 105.928 35.6454 105.9 37.7048 105.703C39.2199 105.265 40.0853 104.662 41.0684 103.427C41.9923 101.69 42.2244 100.07 41.6739 98.179C40.8569 96.1483 39.8451 95.1487 37.9868 94.0009C37.2881 93.7054 37.2881 93.7054 36.0935 93.7793C36.0935 93.5666 36.0935 93.3539 36.0935 93.1348C34.7953 93.1348 33.7958 94.1498 32.9098 95.0155ZM126.328 95.0684C124.947 96.5762 124.091 98.2075 124.062 100.299C124.205 102.441 124.924 103.71 126.509 105.179C128.273 106.013 130.051 106.049 131.918 105.468C133.297 104.837 134.199 104.098 135.029 102.803C135.644 100.957 135.645 99.0079 134.828 97.2235C133.646 95.1699 131.701 94.002 129.55 93.1348C128.275 93.1348 127.252 94.2634 126.328 95.0684ZM40.9274 109.57C40.9467 109.78 40.966 109.991 40.9859 110.207C41.3099 114.037 41.4433 117.876 41.5921 121.716C41.6063 122.082 41.6206 122.449 41.6353 122.826C41.9575 131.225 41.9575 131.225 41.9748 135.17C41.9777 135.474 41.9807 135.777 41.9837 136.09C41.9767 137.631 41.8296 139.09 41.5666 140.61C41.5076 140.954 41.4485 141.298 41.3877 141.653C41.3421 141.913 41.2966 142.173 41.2497 142.441C45.8419 142.501 50.4342 142.554 55.0266 142.603C55.3854 142.606 55.7443 142.61 56.114 142.614C71.5224 142.776 86.9301 142.791 102.339 142.784C102.768 142.784 102.768 142.784 103.206 142.783C110.591 142.78 117.976 142.773 125.361 142.764C125.316 142.544 125.271 142.324 125.224 142.098C125.166 141.809 125.107 141.52 125.046 141.222C124.988 140.936 124.929 140.65 124.869 140.355C124.681 139.349 124.593 138.364 124.539 137.342C124.528 137.131 124.516 136.921 124.504 136.704C124.464 135.931 124.429 135.158 124.394 134.385C124.379 134.058 124.364 133.732 124.348 133.395C124.241 131.046 124.147 128.696 124.059 126.346C124.027 125.517 123.994 124.687 123.959 123.858C123.754 119.03 123.681 114.359 124.394 109.57C123.406 110.008 122.766 110.491 122.033 111.281C121.831 111.494 121.629 111.706 121.421 111.925C121.206 112.152 120.99 112.378 120.769 112.612C118.324 115.115 115.768 117.09 112.793 118.916C112.492 119.106 112.492 119.106 112.184 119.299C99.3484 127.32 82.958 129.133 68.3351 125.924C58.0132 123.484 49.6095 118.418 42.2165 110.859C41.787 110.429 41.3574 110 40.9274 109.57ZM35.9122 110.698C35.6459 110.728 35.3796 110.758 35.1053 110.789C34.7968 110.824 34.7968 110.824 34.4821 110.859C34.5016 111.172 34.5212 111.485 34.5413 111.808C34.6151 112.998 34.6866 114.188 34.7575 115.378C34.7882 115.887 34.8194 116.397 34.8513 116.906C35.1803 122.18 35.1936 127.381 34.869 132.655C34.8241 133.384 34.7817 134.114 34.7396 134.843C34.5905 137.381 34.4075 139.911 34.1599 142.441C35.3297 142.441 36.4995 142.441 37.7048 142.441C37.6853 142.117 37.6657 141.793 37.6456 141.458C37.572 140.229 37.5004 138.999 37.4294 137.769C37.3986 137.24 37.3674 136.71 37.3356 136.18C37.2895 135.407 37.2452 134.634 37.2012 133.861C37.1871 133.631 37.173 133.401 37.1585 133.165C36.8778 128.097 37.1591 123.033 37.3825 117.969C37.4137 117.246 37.4447 116.523 37.4757 115.8C37.551 114.046 37.6274 112.291 37.7048 110.537C37.1045 110.537 36.508 110.631 35.9122 110.698ZM129.51 110.698C128.892 110.778 128.892 110.778 128.261 110.859C128.285 111.175 128.308 111.491 128.332 111.816C128.935 121.061 128.69 130.333 128 139.563C127.931 140.635 127.914 141.69 127.939 142.764C129.109 142.764 130.279 142.764 131.484 142.764C131.438 142.401 131.391 142.038 131.343 141.663C130.181 131.395 130.592 120.815 131.484 110.537C130.811 110.537 130.178 110.612 129.51 110.698Z" fill="#103255"/>
<path d="M94.4846 47.2521C94.6885 47.3493 94.8925 47.4465 95.1027 47.5467C96.3367 48.4983 96.9407 49.5816 97.1951 51.1085C97.2156 51.5396 97.2294 51.9711 97.2376 52.4026C97.2467 52.6399 97.2558 52.8772 97.2652 53.1217C97.2922 53.891 97.3094 54.66 97.3245 55.4296C97.3306 55.6834 97.3366 55.9372 97.3429 56.1987C97.3875 58.1213 97.4086 60.0438 97.4265 61.9668C97.4332 62.5835 97.4399 63.2002 97.4468 63.8169C97.4608 65.1019 97.474 66.387 97.4865 67.6721C97.5054 69.6159 97.5266 71.5597 97.548 73.5035C97.578 76.248 97.6022 78.9924 97.6233 81.737C97.637 83.3748 97.6634 85.0115 97.7008 86.6489C97.7069 87.0085 97.713 87.3682 97.7193 87.7387C97.73 88.3615 97.7454 88.9842 97.7673 89.6067C97.7913 91.4721 97.4194 92.8702 96.3577 94.4237C93.7912 96.7458 89.9767 96.4566 86.725 96.4542C86.305 96.4556 85.8849 96.457 85.4522 96.4584C84.5692 96.4608 83.6863 96.4608 82.8034 96.459C81.6757 96.4572 80.5483 96.4627 79.4207 96.4701C78.3374 96.476 77.2541 96.4748 76.1708 96.4744C75.768 96.4774 75.3651 96.4803 74.95 96.4834C71.4555 96.4648 71.4555 96.4648 69.932 95.3905C67.5533 92.8798 67.6268 89.934 67.6497 86.6679C67.651 86.3153 67.6524 85.9626 67.6538 85.5992C67.6591 84.4587 67.6672 83.3182 67.6761 82.1776C67.6799 81.6172 67.6799 81.6172 67.6838 81.0454C67.8083 63.7977 67.8083 63.7977 68.4415 56.6582C68.4599 56.4401 68.4783 56.222 68.4973 55.9973C68.9984 50.2591 68.9984 50.2591 70.8988 48.662C71.6893 48.5902 71.6893 48.5902 72.5906 48.6419C73.6759 48.7016 74.4444 48.6618 75.4957 48.3544C76.6424 48.0335 77.6931 47.8682 78.8761 47.7544C79.4889 47.6942 79.4889 47.6942 80.1142 47.6329C80.536 47.5936 80.9579 47.5544 81.3925 47.5139C81.8057 47.4734 82.2188 47.4329 82.6445 47.3912C92.8238 46.4097 92.8238 46.4097 94.4846 47.2521ZM72.367 49.7298C71.5768 51.0941 71.7736 52.3639 71.8693 53.9051C71.8846 54.2416 71.8999 54.5782 71.9156 54.9249C71.9494 55.6563 71.9861 56.3876 72.0254 57.1187C72.1307 59.0824 72.2138 61.047 72.2999 63.0116C72.3183 63.4193 72.3367 63.8269 72.3557 64.2469C72.5526 68.7051 72.639 73.164 72.7115 77.6256C72.7244 78.3666 72.7372 79.1076 72.7501 79.8485C72.8064 83.2346 72.8458 86.6176 72.8051 90.0041C72.7316 90.8516 72.7316 90.8516 73.1546 91.2011C73.7578 91.2313 74.3622 91.2389 74.9662 91.2376C75.3533 91.2376 75.7404 91.2376 76.1392 91.2376C76.7711 91.2351 76.7711 91.2351 77.4158 91.2325C77.8489 91.2319 78.2819 91.2315 78.715 91.2312C79.8567 91.2299 80.9984 91.2268 82.1401 91.2232C83.3044 91.2199 84.4687 91.2184 85.633 91.2168C87.9188 91.2133 90.2047 91.2078 92.4905 91.2011C92.8987 90.3848 92.8641 89.8008 92.879 88.8867C92.8854 88.5335 92.8918 88.1803 92.8984 87.8164C92.9038 87.4278 92.9092 87.0393 92.9148 86.639C92.9215 86.2323 92.9283 85.8256 92.9352 85.4066C92.9534 84.2934 92.9693 83.1802 92.9845 82.067C92.9941 81.3739 93.004 80.6808 93.0141 79.9877C93.1074 73.5165 93.1745 67.045 93.1919 60.5732C93.1943 59.7492 93.1977 58.9252 93.2022 58.1013C93.2079 56.9564 93.2093 55.8116 93.2094 54.6667C93.2117 54.3266 93.214 53.9866 93.2163 53.6362C93.2153 53.3278 93.2144 53.0195 93.2134 52.7018C93.2138 52.4334 93.2143 52.165 93.2148 51.8884C93.1935 51.1663 93.1935 51.1663 92.4905 50.5956C90.7629 50.3046 89.0549 50.2203 87.3041 50.194C86.8073 50.1834 86.3104 50.1727 85.8136 50.1619C85.0474 50.1468 84.2812 50.1325 83.5149 50.1197C82.7638 50.1066 82.0127 50.0907 81.2616 50.0732C81.016 50.0678 80.7704 50.0624 80.5174 50.0569C78.3769 49.9916 76.3053 49.6912 74.1988 49.3153C73.1589 49.2229 73.1589 49.2229 72.367 49.7298Z" fill="#103255"/>
<path d="M126.832 61.1501C127.2 61.1397 127.2 61.1397 127.576 61.1291C129.499 61.1176 130.493 61.5664 131.867 62.8621C133.547 65.5842 133.205 69.1537 133.197 72.245C133.196 73.0554 133.204 73.8654 133.212 74.6758C133.213 75.1971 133.213 75.7185 133.213 76.2399C133.216 76.479 133.219 76.718 133.222 76.9643C133.204 78.9271 132.814 80.487 131.424 81.9563C129.22 83.2785 126.775 83.2572 124.276 83.3008C123.93 83.3085 123.583 83.3163 123.226 83.3243C122.497 83.3398 121.767 83.3538 121.038 83.3664C119.929 83.3863 118.82 83.4131 117.711 83.4405C116.999 83.4548 116.287 83.4686 115.575 83.4821C115.247 83.4904 114.919 83.4988 114.582 83.5074C109.493 83.579 109.493 83.579 107.967 82.2805C105.402 79.4422 106.236 75.127 106.348 71.5431C106.713 65.2771 106.713 65.2771 108.523 63.1441C109.248 62.8419 109.248 62.8419 110.235 63.0031C111.723 63.1921 112.662 62.8886 114.078 62.4655C118.197 61.3276 122.582 61.2163 126.832 61.1501ZM110.859 64.131C110.459 64.46 110.459 64.46 110.494 65.1523C110.502 67.9094 110.662 70.6468 110.859 73.3961C110.89 73.8443 110.921 74.2924 110.952 74.7406C111.028 75.8233 111.104 76.9059 111.182 77.9884C112.427 78.2802 113.583 78.3522 114.861 78.3535C115.266 78.3539 115.671 78.3543 116.088 78.3548C116.509 78.3535 116.931 78.3523 117.365 78.351C117.77 78.3522 118.175 78.3535 118.593 78.3548C121.837 78.3515 125.011 78.169 128.262 77.9884C128.368 73.8409 128.474 69.6933 128.584 65.4201C127.439 65.354 126.295 65.288 125.116 65.2199C124.006 65.1551 122.897 65.0899 121.788 65.0247C121.018 64.9796 120.247 64.9349 119.476 64.8906C118.368 64.8269 117.261 64.7617 116.153 64.6962C115.636 64.667 115.636 64.667 115.11 64.6372C114.626 64.6082 114.626 64.6082 114.133 64.5786C113.709 64.5539 113.709 64.5539 113.276 64.5287C112.471 64.4533 112.471 64.4533 111.581 64.2642C111.343 64.2202 111.105 64.1763 110.859 64.131Z" fill="#103255"/>
<path d="M52.9923 61.1095C53.3667 61.0969 53.3667 61.0969 53.7487 61.084C55.4188 61.0789 56.3791 61.3921 57.6853 62.5195C59.8615 65.6077 59.3973 70.2044 59.2961 73.8334C59.2763 74.6125 59.269 75.3911 59.2621 76.1704C59.2504 76.6723 59.2381 77.1742 59.2249 77.676C59.2238 78.0205 59.2238 78.0205 59.2226 78.3719C59.1692 79.7551 58.8839 80.7563 57.9125 81.7739C55.7827 83.3389 52.9452 83.3003 50.4142 83.332C50.0688 83.3393 49.7233 83.3466 49.3674 83.3542C48.6416 83.3685 47.9158 83.3805 47.19 83.3905C46.0867 83.4062 44.9839 83.4306 43.8808 83.456C43.1716 83.4689 42.4625 83.4813 41.7533 83.4932C41.4276 83.5005 41.1019 83.5078 40.7663 83.5154C35.6692 83.5706 35.6692 83.5706 34.1676 82.2709C32.3688 80.2416 32.4886 78.6313 32.4889 75.9727C32.4882 75.3242 32.4823 74.6757 32.4762 74.0272C32.4639 65.7468 32.4639 65.7468 34.7239 63.164C35.449 62.8417 35.449 62.8417 36.4788 63.0192C37.8503 63.1811 38.6849 62.9753 40.001 62.5799C44.2296 61.4148 48.6227 61.1934 52.9923 61.1095ZM37.0603 64.1308C36.5271 64.664 36.685 65.3075 36.677 66.021C36.6772 66.248 36.6774 66.475 36.6777 66.7089C36.6774 66.944 36.6772 67.1791 36.677 67.4213C36.7089 70.9529 37.0639 74.4732 37.3826 77.9882C38.6316 78.2811 39.7919 78.352 41.0736 78.3533C41.4771 78.3539 41.8806 78.3546 42.2963 78.3552C42.7263 78.3539 43.1562 78.3524 43.5862 78.3507C43.8024 78.3504 44.0185 78.35 44.2412 78.3496C49.6444 78.7952 49.6444 78.7952 54.4627 77.6659C54.5183 76.7877 54.5542 75.9168 54.576 75.0375C54.5834 74.774 54.5909 74.5106 54.5986 74.2391C54.614 73.6811 54.6285 73.123 54.6424 72.5649C54.664 71.7076 54.6891 70.8504 54.7145 69.9932C54.7289 69.4524 54.7432 68.9115 54.7573 68.3706C54.765 68.1124 54.7727 67.8543 54.7806 67.5883C54.7947 66.9731 54.7916 66.3575 54.785 65.7421C54.2719 65.2291 53.714 65.3397 53.0021 65.2996C52.6912 65.2813 52.3803 65.263 52.0599 65.2442C51.7212 65.2257 51.3825 65.2072 51.0336 65.1882C50.5142 65.1579 50.5142 65.1579 49.9844 65.1269C48.8723 65.062 47.76 64.999 46.6477 64.9364C45.5401 64.8737 44.4324 64.8106 43.3249 64.746C42.6345 64.7058 41.9441 64.6666 41.2536 64.6287C40.7811 64.6013 40.7811 64.6013 40.299 64.5733C40.0231 64.5578 39.7471 64.5423 39.4628 64.5263C38.6717 64.453 38.6717 64.453 37.7844 64.2643C37.5455 64.2202 37.3065 64.1762 37.0603 64.1308Z" fill="#103255"/>
</svg>
