<svg width="113" height="113" viewBox="0 0 113 113" fill="none" xmlns="http://www.w3.org/2000/svg">
<path d="M110.131 9.71102C110.914 10.4857 111.615 11.3266 111.731 12.4476C111.731 12.6465 111.731 12.8454 111.731 13.0504C111.732 13.2812 111.733 13.512 111.734 13.7498C111.732 14.0038 111.731 14.2577 111.73 14.5193C111.73 14.7902 111.731 15.061 111.731 15.34C111.732 16.0971 111.73 16.8541 111.728 17.6111C111.726 18.4383 111.727 19.2656 111.727 20.0928C111.727 21.7393 111.724 23.3858 111.721 25.0324C111.718 26.387 111.716 27.7415 111.715 29.0961C111.702 43.3258 111.649 57.5553 111.59 71.7848C111.583 73.4497 111.576 75.1145 111.57 76.7794C111.559 79.4438 111.548 82.1083 111.536 84.7728C111.53 86.0039 111.524 87.235 111.52 88.466C111.515 89.6043 111.51 90.7425 111.504 91.8808C111.502 92.2921 111.5 92.7034 111.499 93.1148C111.492 95.0697 111.468 97.021 111.365 98.9736C111.357 99.1271 111.35 99.2806 111.343 99.4387C111.244 101.081 110.791 102.052 109.593 103.151C105.438 106.413 95.6225 104.549 90.7094 104.089C90.4316 104.064 90.1538 104.039 89.8675 104.013C85.9625 103.618 85.9625 103.618 84.5297 102.186C83.3048 100.611 83.1373 99.1661 83.2745 97.25C83.2992 96.8346 83.3236 96.4191 83.3478 96.0037C83.361 95.787 83.3743 95.5703 83.3879 95.347C83.4519 94.2353 83.4941 93.1228 83.5366 92.01C83.5455 91.7799 83.5545 91.5498 83.5638 91.3127C83.8056 85.0669 83.9828 78.8231 84.0754 72.5733C84.0865 71.8495 84.0983 71.1257 84.1107 70.4019C84.1495 68.1222 84.1825 65.8424 84.2125 63.5626C84.2163 63.2737 84.2163 63.2737 84.2203 62.979C84.3071 56.3996 84.3117 49.8211 84.2951 43.2413C84.2917 41.9037 84.289 40.5661 84.2864 39.2285C84.2846 38.3284 84.2828 37.4283 84.2809 36.5282C84.2805 36.3043 84.28 36.0805 84.2796 35.8499C84.274 33.132 84.2652 30.4141 84.2518 27.6962C84.2434 25.9623 84.2381 24.2283 84.2351 22.4943C84.2332 21.4753 84.2298 20.4564 84.2224 19.4374C84.2155 18.4906 84.2128 17.5438 84.2132 16.597C84.2126 16.2523 84.2105 15.9076 84.2068 15.5629C84.1857 13.5435 84.2085 11.9775 85.5694 10.368C85.6906 10.2695 85.8118 10.1711 85.9367 10.0697C86.0568 9.96781 86.1768 9.86596 86.3005 9.76102C87.5022 9.01534 88.7002 8.98159 90.068 8.97304C90.264 8.96995 90.46 8.96687 90.6619 8.96368C91.0837 8.95709 91.5054 8.95136 91.9272 8.94641C93.0444 8.93308 94.1615 8.91318 95.2787 8.892C95.6188 8.88558 95.6188 8.88558 95.9658 8.87902C98.5561 8.82459 101.141 8.6791 103.726 8.5131C108.315 8.2279 108.315 8.2279 110.131 9.71102ZM104.064 10.9199C102.325 11.0361 100.589 11.0833 98.8461 11.1145C98.23 11.1282 97.6138 11.143 96.9977 11.1577C96.0412 11.1803 95.0848 11.2015 94.1282 11.2169C93.344 11.2297 92.5602 11.2477 91.7762 11.2692C91.3379 11.2798 90.8995 11.285 90.4611 11.29C88.8597 11.3003 88.8597 11.3003 87.4567 11.9717C86.6219 12.989 86.4603 13.7883 86.4862 15.091C86.4906 15.3744 86.4951 15.6577 86.4997 15.9496C86.5068 16.2607 86.514 16.5719 86.5212 16.883C86.527 17.2094 86.5326 17.5358 86.538 17.8623C86.5499 18.5618 86.563 19.2612 86.5772 19.9607C86.611 21.6513 86.6363 23.3421 86.6624 25.0329C86.6713 25.6082 86.6804 26.1834 86.6895 26.7586C86.7777 32.4055 86.7692 38.0519 86.7368 43.6993C86.7356 43.9065 86.7344 44.1136 86.7332 44.3271C86.6672 55.8659 86.5681 67.4043 86.3226 78.9408C86.3094 79.5634 86.2967 80.186 86.284 80.8086C86.1897 85.3975 86.037 89.9782 85.7783 94.561C85.4484 97.3859 85.4484 97.3859 85.9919 100.061C87.2679 101.472 88.8908 101.488 90.6818 101.661C90.951 101.689 91.2201 101.717 91.4974 101.745C92.2644 101.822 93.0316 101.894 93.7993 101.965C93.9732 101.981 94.1471 101.998 94.3262 102.015C101.337 102.829 101.337 102.829 107.924 101.303C109.048 100.209 109.032 99.0071 109.061 97.5243C109.065 97.0745 109.068 96.6248 109.07 96.175C109.071 95.9248 109.073 95.6746 109.075 95.4168C109.08 94.7189 109.084 94.0211 109.087 93.3232C109.092 92.555 109.097 91.7868 109.102 91.0186C109.115 89.1199 109.125 87.2212 109.135 85.3225C109.14 84.4151 109.145 83.5076 109.15 82.6001C109.167 79.6333 109.183 76.6666 109.199 73.6998C109.227 68.1935 109.261 62.6873 109.3 57.1811C109.335 52.1913 109.367 47.2015 109.396 42.2117C109.413 39.2804 109.432 36.3493 109.454 33.4181C109.473 30.8916 109.49 28.3651 109.502 25.8385C109.509 24.5314 109.517 23.2244 109.528 21.9174C109.539 20.7091 109.546 19.5009 109.55 18.2927C109.552 17.8531 109.555 17.4135 109.56 16.974C109.567 16.3753 109.568 15.7769 109.568 15.1781C109.572 15.0064 109.575 14.8346 109.578 14.6577C109.57 13.4446 109.283 12.4819 108.586 11.4766C107.212 10.4992 105.671 10.8063 104.064 10.9199Z" fill="#103255"/>
<path d="M41.1771 39.9138C41.3431 39.9142 41.5091 39.9147 41.6802 39.9151C43.5251 39.9323 45.3528 40.0926 47.1886 40.2647C51.2381 40.6372 55.2655 40.8717 59.3335 40.8266C59.9082 40.8205 60.483 40.8167 61.0578 40.8135C62.688 40.8042 64.3183 40.7934 65.9485 40.7758C66.9553 40.765 67.962 40.7586 68.9689 40.7551C69.3485 40.7529 69.7282 40.7491 70.1079 40.7436C74.2954 40.6843 74.2954 40.6843 75.8824 42.0625C77.0304 43.2031 77.4958 44.8287 77.5233 46.4228C77.5164 46.7611 77.5064 47.0994 77.4939 47.4375C77.4578 49.4649 77.4886 51.4854 77.5481 53.5118C77.5625 54.0021 77.5759 54.4924 77.5893 54.9828C77.6445 56.9042 77.7356 58.8214 77.8558 60.7399C78.1272 65.106 78.1272 65.106 76.4982 67.0103C75.0806 68.3191 73.4309 68.5162 71.6023 68.4765C71.2959 68.474 71.2959 68.474 70.9834 68.4714C70.3079 68.4649 69.6326 68.4536 68.9572 68.4423C68.4765 68.4366 67.9958 68.4313 67.5151 68.4262C66.2428 68.4119 64.9707 68.3934 63.6985 68.3741C62.4478 68.356 61.1971 68.342 59.9463 68.3276C57.7112 68.3011 55.4762 68.2686 53.2412 68.2323C51.7046 68.2077 50.1679 68.1873 48.6312 68.17C47.6152 68.158 46.5993 68.1434 45.5833 68.1282C45.1041 68.1215 44.6249 68.116 44.1457 68.1115C43.4825 68.1052 42.8195 68.095 42.1563 68.0838C41.9643 68.0829 41.7723 68.0821 41.5744 68.0812C39.984 68.0477 38.2915 67.8091 36.9949 66.818C34.6386 64.3495 35.008 60.5034 35.0224 57.3002C35.0226 57.127 35.0227 56.9537 35.0229 56.7752C35.0293 54.1254 35.1563 51.4972 35.3948 48.8583C35.4157 48.6259 35.4157 48.6259 35.437 48.3887C35.9904 42.3808 35.9904 42.3808 37.8769 40.7397C38.9541 39.9902 39.9064 39.9086 41.1771 39.9138ZM39.2847 42.8166C38.26 43.9151 38.1826 45.1348 38.0295 46.5685C38.0037 46.7788 37.978 46.989 37.9514 47.2056C37.8723 47.8755 37.8039 48.5455 37.7398 49.2169C37.718 49.4443 37.6963 49.6717 37.6738 49.9059C37.4933 52.0673 37.4854 54.2234 37.4903 56.3911C37.4915 57.0133 37.4903 57.6354 37.4889 58.2576C37.4891 58.6595 37.4893 59.0614 37.4898 59.4633C37.4893 59.6461 37.4889 59.8289 37.4884 60.0173C37.4447 62.6407 37.4447 62.6407 38.6226 64.8869C39.8842 65.751 41.2083 65.6679 42.6823 65.693C42.9678 65.7001 43.2532 65.7072 43.5474 65.7146C44.5541 65.7386 45.561 65.7546 46.5679 65.7697C46.7581 65.7726 46.9483 65.7756 47.1443 65.7787C50.2276 65.8262 53.3111 65.8583 56.3946 65.8871C57.3257 65.8961 58.2567 65.9058 59.1877 65.9155C61.3931 65.9385 63.5985 65.9587 65.8039 65.9753C66.877 65.9837 67.95 65.9955 69.023 66.0127C69.7146 66.0233 70.4062 66.0302 71.0979 66.0378C71.4503 66.0456 71.4503 66.0456 71.8099 66.0535C73.312 66.0662 73.312 66.0662 74.5972 65.3283C75.2051 64.7256 75.4568 64.3941 75.574 63.5402C75.5179 61.7796 75.5179 61.7796 75.4279 60.0206C75.3038 57.9787 75.2371 55.9412 75.2128 53.8957C75.2096 53.6525 75.2065 53.4094 75.2032 53.1589C75.1905 52.1538 75.1783 51.1487 75.1707 50.1436C75.1647 49.3987 75.1546 48.6539 75.1438 47.9091C75.1427 47.5698 75.1427 47.5698 75.1416 47.2236C75.1163 45.7596 74.988 44.7368 73.8934 43.6699C73.1261 43.1604 72.6969 43.1533 71.7816 43.1647C71.5624 43.1656 71.5624 43.1656 71.3387 43.1665C70.8548 43.1693 70.3713 43.1783 69.8874 43.1873C69.5456 43.1902 69.2038 43.1927 68.862 43.1948C68.1375 43.1998 67.4131 43.2073 66.6887 43.2168C64.8143 43.2407 62.9398 43.2465 61.0654 43.2537C60.882 43.2545 60.6986 43.2553 60.5097 43.2561C57.7391 43.268 54.9763 43.2442 52.2096 43.0786C51.9741 43.0648 51.9741 43.0648 51.7338 43.0508C49.951 42.9424 48.1736 42.784 46.3955 42.6165C46.2158 42.5999 46.0362 42.5833 45.8511 42.5662C44.9943 42.4868 44.1385 42.4034 43.2833 42.3094C42.9807 42.2792 42.6781 42.2491 42.3754 42.2191C42.1133 42.1907 41.8511 42.1623 41.581 42.1331C40.6358 42.16 40.1211 42.38 39.2847 42.8166Z" fill="#103255"/>
<path d="M44.83 73.8116C45.2946 73.857 45.7591 73.9021 46.2238 73.9465C46.6487 73.987 47.0736 74.0288 47.4984 74.0706C50.4162 74.3202 53.3116 74.4044 56.2392 74.3802C56.8686 74.3753 57.498 74.3722 58.1274 74.3697C59.9138 74.3624 61.7002 74.353 63.4866 74.3393C64.587 74.331 65.6875 74.3259 66.788 74.3229C67.204 74.3211 67.62 74.3181 68.036 74.3139C68.6172 74.308 69.1982 74.3063 69.7794 74.3055C69.948 74.3027 70.1165 74.3 70.2902 74.2972C71.8834 74.3031 73.4715 74.6652 74.6801 75.7565C74.8184 75.876 74.9567 75.9955 75.0991 76.1186C76.0993 77.3405 76.2396 78.5514 76.2397 80.0706C76.2425 80.2584 76.2453 80.4461 76.2481 80.6396C76.2569 81.2557 76.2616 81.8718 76.2664 82.488C76.2776 83.3616 76.2915 84.2352 76.3061 85.1088C76.3114 85.4445 76.3114 85.4445 76.3169 85.787C76.3453 87.3698 76.4065 88.949 76.4889 90.5298C76.5 90.7456 76.5111 90.9614 76.5226 91.1837C76.5666 92.0209 76.6117 92.8581 76.6618 93.695C76.6962 94.271 76.7276 94.8471 76.7587 95.4232C76.7699 95.5909 76.7812 95.7586 76.7927 95.9313C76.8796 97.6207 76.5851 99.0826 75.4802 100.42C74.1254 101.589 73.1794 101.999 71.3818 101.99C71.2109 101.99 71.0401 101.99 70.8641 101.99C70.2929 101.989 69.7217 101.987 69.1505 101.985C68.7444 101.984 68.3384 101.983 67.9323 101.982C63.5334 101.971 59.1347 101.93 54.7361 101.883C53.8264 101.873 52.9168 101.864 52.0071 101.855C43.3281 101.773 43.3281 101.773 40.197 101.668C40.0084 101.663 39.8198 101.659 39.6254 101.654C38.1245 101.591 36.6534 101.268 35.5743 100.144C33.8545 98.2716 33.9548 95.9139 33.9432 93.5145C33.9416 93.3005 33.9401 93.0865 33.9386 92.866C33.9348 92.1746 33.9334 91.4833 33.9328 90.7919C33.9324 90.5565 33.9321 90.3211 33.9317 90.0785C33.9305 77.4737 33.9305 77.4737 36.4157 74.5978C38.7781 72.7406 42.0677 73.5383 44.83 73.8116ZM37.7399 76.8049C36.9634 78.2175 36.8676 79.674 36.7192 81.2603C36.6918 81.5419 36.6644 81.8234 36.6362 82.1135C36.2762 86.0166 36.1221 89.9218 36.2502 93.8404C36.256 94.0526 36.2617 94.2648 36.2676 94.4834C36.3374 96.0329 36.4983 97.6031 37.602 98.7648C39.7197 99.6411 42.3884 99.3588 44.6524 99.3864C44.9793 99.3911 45.3062 99.3957 45.633 99.4005C46.6896 99.4154 47.7461 99.4283 48.8027 99.4407C48.9828 99.4429 49.163 99.445 49.3486 99.4473C51.6067 99.4741 53.8648 99.4979 56.1229 99.5199C57.4237 99.5327 58.7245 99.5481 60.0252 99.5646C61.5846 99.5841 63.144 99.5994 64.7035 99.6094C65.5143 99.6146 66.325 99.6216 67.1358 99.6332C68.0335 99.6459 68.9311 99.6498 69.829 99.6528C70.2251 99.6603 70.2251 99.6603 70.6292 99.6679C72.1198 99.6862 72.1198 99.6862 73.4194 99.0473C74.1758 98.1477 74.4416 97.4134 74.3898 96.2433C74.3816 96.0317 74.3734 95.8202 74.365 95.6022C74.3538 95.3745 74.3425 95.1467 74.331 94.912C74.3163 94.5532 74.3163 94.5532 74.3013 94.1871C74.2691 93.4093 74.2334 92.6317 74.1973 91.8541C74.1503 90.7899 74.1044 89.7258 74.0585 88.6616C74.047 88.3996 74.0355 88.1377 74.0236 87.8678C73.959 86.359 73.9149 84.8524 73.9016 83.3423C73.8974 83.0157 73.8932 82.689 73.889 82.3624C73.8817 81.7825 73.8823 81.2043 73.8871 80.6242C73.8676 79.1976 73.7657 78.3187 72.7388 77.2832C71.9375 76.6908 71.0754 76.779 70.1291 76.7903C69.9661 76.7913 69.8031 76.7923 69.6352 76.7934C69.2795 76.7957 68.9239 76.7985 68.5682 76.8017C67.8 76.8084 67.0317 76.8122 66.2635 76.8161C65.856 76.8181 65.4485 76.8203 65.041 76.8226C57.4419 76.865 49.8796 76.8689 42.3169 76.0152C39.8395 75.6781 39.8395 75.6781 37.7399 76.8049Z" fill="#103255"/>
<path d="M28.098 60.2932C29.557 61.8201 29.8314 63.411 29.8029 65.4624C29.8003 65.7512 29.8003 65.7512 29.7975 66.0458C29.7913 66.6867 29.7835 67.3277 29.7756 67.9686C29.7709 68.4209 29.7663 68.8731 29.7617 69.3254C29.7492 70.5345 29.7352 71.7435 29.7207 72.9525C29.7119 73.6986 29.7034 74.4448 29.695 75.1909C29.6598 78.3165 29.6216 81.442 29.5818 84.5676C29.5723 85.3218 29.5631 86.076 29.554 86.8302C29.5349 88.4029 29.5136 89.9755 29.4885 91.548C29.4812 92.0233 29.4744 92.4985 29.4683 92.9737C29.4598 93.6146 29.4488 94.2553 29.4368 94.8961C29.435 95.0731 29.4331 95.25 29.4312 95.4323C29.3856 97.48 29.0511 99.143 27.5876 100.64C25.1739 102.475 21.5964 102.044 18.7181 102.034C18.3919 102.033 18.3919 102.033 18.0591 102.033C15.1361 102.027 12.2349 101.937 9.3244 101.661C9.17604 101.647 9.02769 101.633 8.87483 101.619C3.75036 101.124 3.75036 101.124 2.12913 99.1792C1.35224 98.0585 1.28519 97.0905 1.29029 95.7686C1.29071 95.5922 1.29114 95.4158 1.29158 95.2341C1.30809 93.3621 1.46497 91.5093 1.64117 89.6467C1.76535 88.3094 1.88272 86.9717 1.98602 85.6326C2.00457 85.3927 2.00457 85.3927 2.02351 85.1478C2.22489 82.3685 2.21228 79.5933 2.18948 76.8088C2.18667 76.4272 2.18389 76.0456 2.18113 75.664C2.1692 74.0838 2.15714 72.5036 2.1356 70.9235C2.12243 69.9451 2.11476 68.9667 2.11062 67.9882C2.10805 67.6198 2.10349 67.2514 2.09679 66.883C2.06065 64.8479 2.06417 63.0769 3.31024 61.3553C4.40679 60.2299 5.73644 59.743 7.28787 59.713C7.53079 59.713 7.53079 59.713 7.77861 59.713C8.04091 59.7088 8.04091 59.7088 8.3085 59.7046C8.68532 59.6988 9.06217 59.6944 9.43902 59.6913C10.4484 59.6826 11.4576 59.6635 12.4668 59.6449C12.675 59.6412 12.8831 59.6376 13.0976 59.6338C15.7411 59.5829 18.3796 59.4373 21.0195 59.2939C21.2863 59.2796 21.2863 59.2796 21.5585 59.2649C21.8876 59.2471 22.2167 59.2288 22.5457 59.2099C24.6706 59.0929 26.2891 59.0987 28.098 60.2932ZM21.1647 61.702C19.394 61.8086 17.6218 61.866 15.8489 61.9209C15.6909 61.9258 15.5329 61.9308 15.3701 61.9359C13.1714 62.0035 10.9747 62.0423 8.77506 61.9899C7.39651 61.9698 6.26519 62.0346 5.14747 62.9339C4.23298 64.0928 4.51025 65.6819 4.54221 67.0781C4.54558 67.4084 4.54839 67.7388 4.55069 68.0691C4.5564 68.7695 4.56524 69.4697 4.57661 70.17C4.60272 71.8085 4.61076 73.4472 4.61945 75.0859C4.62141 75.4468 4.62355 75.8076 4.62587 76.1684C4.64383 78.978 4.61351 81.7783 4.45513 84.5843C4.44591 84.7521 4.43669 84.9199 4.42718 85.0928C4.32004 86.9815 4.16457 88.8647 3.99304 90.7485C3.97643 90.9339 3.95983 91.1194 3.94273 91.3104C3.86331 92.1933 3.77973 93.0752 3.68585 93.9566C3.65568 94.2678 3.62559 94.5789 3.5956 94.8901C3.553 95.2947 3.553 95.2947 3.50955 95.7075C3.54087 96.7904 3.92868 97.4799 4.64739 98.2722C5.57242 98.8164 6.46225 98.9042 7.51739 99.0266C7.71128 99.0523 7.90516 99.0781 8.10493 99.1046C10.4806 99.4104 12.8435 99.5714 15.2386 99.574C15.4805 99.5747 15.7224 99.5755 15.9716 99.5762C16.4783 99.5773 16.9849 99.5779 17.4916 99.5778C18.264 99.5783 19.0363 99.5823 19.8087 99.5865C20.3038 99.5872 20.7989 99.5876 21.2941 99.5878C21.5229 99.5894 21.7517 99.591 21.9874 99.5926C24.1104 99.6136 24.1104 99.6136 26.0073 98.786C26.7421 97.7583 26.9522 97.0702 26.989 95.8228C27.0015 95.4067 27.0015 95.4067 27.0143 94.9823C27.0224 94.6673 27.0305 94.3524 27.0384 94.0375C27.045 93.7915 27.045 93.7915 27.0517 93.5407C27.1831 88.6012 27.2442 83.6599 27.2963 78.7191C27.3136 77.086 27.3338 75.4531 27.358 73.8201C27.377 72.5131 27.3911 71.2061 27.4036 69.8991C27.4095 69.3489 27.417 68.7986 27.4261 68.2484C27.4384 67.4857 27.445 66.7232 27.4503 65.9605C27.4577 65.6236 27.4577 65.6236 27.4652 65.28C27.4672 63.9716 27.3589 63.2327 26.4841 62.2381C24.9152 61.1436 22.9728 61.5872 21.1647 61.702Z" fill="#103255"/>
<path d="M28.1675 9.64209C29.2797 10.725 29.7794 12.1163 29.8149 13.6495C29.8123 14 29.8084 14.3505 29.8035 14.701C29.8009 14.9897 29.8009 14.9897 29.7982 15.2843C29.792 15.9253 29.7841 16.5662 29.7763 17.2072C29.7715 17.6595 29.7669 18.1117 29.7623 18.564C29.7498 19.773 29.7358 20.9821 29.7213 22.1911C29.7125 22.9372 29.704 23.6833 29.6956 24.4295C29.6604 27.5551 29.6222 30.6806 29.5824 33.8061C29.5729 34.5603 29.5637 35.3145 29.5546 36.0688C29.5355 37.6414 29.5142 39.214 29.4892 40.7866C29.4818 41.2618 29.475 41.737 29.4689 42.2123C29.4605 42.8531 29.4494 43.4939 29.4374 44.1347C29.4356 44.3117 29.4337 44.4886 29.4318 44.6709C29.3879 46.6412 29.1086 48.3508 27.6727 49.7971C25.2789 51.8581 21.415 51.2816 18.4566 51.2722C18.0975 51.2719 18.0975 51.2719 17.7311 51.2717C5.35429 51.25 5.35429 51.25 2.86944 49.2169C1.77549 48.1138 1.27214 47.1306 1.26953 45.5631C1.27203 45.409 1.27453 45.2548 1.27711 45.096C1.27853 44.9321 1.27995 44.7682 1.28142 44.5994C1.31002 42.7291 1.47218 40.8713 1.64178 39.0094C1.76532 37.6306 1.88232 36.2516 1.98663 34.8712C1.999 34.7094 2.01137 34.5476 2.02412 34.381C2.22439 31.6033 2.21287 28.8302 2.19009 26.0474C2.18729 25.6658 2.18451 25.2841 2.18174 24.9025C2.16981 23.3223 2.15775 21.7422 2.13621 20.1621C2.12305 19.1836 2.11537 18.2053 2.11123 17.2268C2.10866 16.8583 2.1041 16.4899 2.09741 16.1216C2.06133 14.0907 2.05938 12.3088 3.31085 10.5939C3.82985 10.0964 3.82985 10.0964 4.3316 9.80761C4.58168 9.65697 4.58168 9.65697 4.83681 9.50328C5.84764 8.9903 6.79435 9.00817 7.90165 8.99463C8.30907 8.9876 8.7165 8.98052 9.12392 8.9734C9.44648 8.9683 9.44648 8.9683 9.77555 8.9631C13.7316 8.89956 17.6758 8.76676 21.6243 8.51319C24.067 8.36153 26.0333 8.2701 28.1675 9.64209ZM21.9626 10.9195C20.2211 11.0357 18.4817 11.0868 16.7367 11.1223C16.1195 11.1371 15.5024 11.1529 14.8853 11.1685C13.9268 11.1925 12.9684 11.2152 12.0098 11.2336C11.2243 11.2488 10.439 11.2681 9.6536 11.2902C9.21392 11.3014 8.77414 11.3083 8.33437 11.315C8.06747 11.3231 7.80058 11.3311 7.5256 11.3394C7.17474 11.3473 7.17474 11.3473 6.81679 11.3552C5.87582 11.5347 5.33443 11.9917 4.7895 12.7687C4.58067 13.4091 4.58573 13.9672 4.59196 14.6409C4.5934 14.9264 4.59484 15.2118 4.59632 15.506C4.59813 15.6587 4.59995 15.8115 4.60182 15.9689C4.60758 16.454 4.61069 16.939 4.61312 17.4241C4.61682 18.1166 4.62158 18.8091 4.62717 19.5016C4.64111 21.3007 4.64478 23.0999 4.64628 24.8991C4.64644 25.076 4.6466 25.253 4.64677 25.4354C4.64796 28.2299 4.60946 31.0182 4.45575 33.8091C4.44658 33.9772 4.43742 34.1454 4.42798 34.3187C4.32081 36.2118 4.16563 38.0996 3.99365 39.9879C3.97705 40.1733 3.96045 40.3587 3.94334 40.5497C3.86392 41.4323 3.78031 42.314 3.68647 43.1952C3.65629 43.5063 3.6262 43.8175 3.59621 44.1287C3.55362 44.5333 3.55362 44.5333 3.51016 44.9461C3.5413 46.0228 3.9286 46.7117 4.63507 47.5065C8.9375 50.0162 17.1941 49.1262 22.0292 48.9134C22.2061 48.9067 22.383 48.8999 22.5652 48.8929C24.3885 48.8147 24.3885 48.8147 25.9864 48.0246C26.7446 46.9971 26.9526 46.3172 26.9901 45.0574C26.9985 44.7795 27.0069 44.5016 27.0156 44.2152C27.0238 43.8999 27.0319 43.5845 27.0399 43.2691C27.0443 43.105 27.0487 42.941 27.0533 42.7719C27.1921 37.5741 27.2428 32.3743 27.2941 27.175C27.3074 25.8463 27.3236 24.5177 27.3412 23.189C27.3581 21.8936 27.3713 20.5982 27.3832 19.3027C27.3888 18.7574 27.3955 18.2121 27.4034 17.6668C27.414 16.911 27.4205 16.1553 27.4259 15.3995C27.43 15.177 27.4341 14.9545 27.4383 14.7253C27.4419 13.5457 27.3758 12.7143 26.7054 11.6974C25.3387 10.4589 23.6827 10.7983 21.9626 10.9195Z" fill="#103255"/>
<path d="M43.0806 8.52916C43.317 8.54885 43.5533 8.56855 43.7968 8.58884C44.5507 8.65213 45.3041 8.71934 46.0576 8.78693C50.9387 9.2106 55.7561 9.51147 60.6559 9.48094C60.8424 9.47984 61.029 9.47875 61.2212 9.47762C62.9744 9.4671 64.7277 9.45567 66.4808 9.43595C67.4493 9.42521 68.4176 9.41884 69.3861 9.41526C69.7512 9.41309 70.1162 9.40931 70.4813 9.40383C74.3147 9.34738 74.3147 9.34738 75.9266 10.7664C76.0251 10.8915 76.1235 11.0167 76.2249 11.1457C76.3777 11.3335 76.3777 11.3335 76.5336 11.525C77.5106 12.9439 77.4913 14.3785 77.4664 16.0563C77.4508 18.2237 77.498 20.3871 77.5629 22.5533C77.5678 22.7167 77.5727 22.88 77.5777 23.0483C77.6334 24.8848 77.7001 26.7196 77.8112 28.5537C77.8438 29.1146 77.8759 29.6755 77.9078 30.2365C77.9226 30.4829 77.9374 30.7293 77.9526 30.9831C78.0119 32.6738 77.7903 34.1541 76.6922 35.4998C74.8846 37.2107 72.6788 37.1665 70.325 37.1165C70.0087 37.1123 69.6923 37.1084 69.376 37.1048C68.5218 37.0942 67.6678 37.0793 66.8137 37.0636C65.9167 37.0478 65.0196 37.0357 64.1226 37.0232C62.6163 37.0017 61.11 36.9776 59.6038 36.9518C57.6756 36.9187 55.7473 36.8897 53.819 36.862C52.1549 36.8381 50.4909 36.8125 48.8269 36.7866C48.2951 36.7783 47.7632 36.7703 47.2314 36.7622C46.3928 36.7494 45.5542 36.7356 44.7157 36.7209C44.4095 36.7157 44.1032 36.7108 43.797 36.7063C38.2186 36.6224 38.2186 36.6224 36.2682 34.7359C34.6147 32.5491 35.0105 28.609 35.0224 25.9742C35.0226 25.8014 35.0228 25.6286 35.023 25.4505C35.0294 22.7548 35.1606 20.0796 35.3948 17.3944C35.4087 17.2332 35.4227 17.072 35.437 16.9059C35.9389 11.235 35.9389 11.235 37.6519 9.59302C39.3171 8.28898 41.0695 8.34033 43.0806 8.52916ZM38.9356 11.738C38.1425 12.7539 38.1374 14.413 37.9605 15.6701C37.9368 15.8383 37.9131 16.0065 37.8887 16.1797C37.4757 19.3365 37.4786 22.5067 37.4777 25.6845C37.4775 25.8943 37.4773 26.1042 37.4771 26.3204C37.4771 26.9286 37.4791 27.5368 37.482 28.145C37.4823 28.3262 37.4826 28.5075 37.4828 28.6942C37.4422 31.314 37.4422 31.314 38.6226 33.5471C39.7243 34.1123 40.5524 34.2952 41.8063 34.3163C42.0451 34.3216 42.0451 34.3216 42.2886 34.327C42.8225 34.3379 43.3563 34.3443 43.8902 34.3506C44.2777 34.3574 44.6652 34.3645 45.0527 34.3718C46.1328 34.3911 47.2128 34.4061 48.2929 34.4203C49.0141 34.4301 49.7352 34.4413 50.4563 34.4528C53.3533 34.499 56.2502 34.5381 59.1473 34.5686C60.5268 34.5832 61.9062 34.5991 63.2857 34.6184C64.6467 34.6373 66.0077 34.653 67.3688 34.6663C67.8815 34.6719 68.3941 34.6786 68.9068 34.6865C69.6159 34.6971 70.325 34.7036 71.0342 34.709C71.3468 34.7151 71.3468 34.7151 71.6656 34.7214C73.0028 34.7257 73.9352 34.5363 74.9973 33.6574C76.0336 32.3483 75.5022 29.829 75.4026 28.2295C75.2849 26.3219 75.2374 24.4185 75.2205 22.5076C75.2179 22.2596 75.2153 22.0115 75.2126 21.756C75.2018 20.7298 75.1913 19.7036 75.1874 18.6774C75.184 17.9171 75.1752 17.1571 75.1654 16.3969C75.166 16.0503 75.166 16.0503 75.1666 15.6967C75.1449 14.4028 75.0538 13.5868 74.1558 12.5803C73.4405 11.9235 72.9759 11.8379 72.0135 11.85C71.6303 11.8522 71.6303 11.8522 71.2394 11.8544C70.9617 11.8592 70.684 11.864 70.3978 11.869C69.9529 11.8723 69.508 11.8757 69.0631 11.8788C68.5896 11.8826 68.1162 11.8879 67.6427 11.8936C66.0024 11.9127 64.3619 11.9174 62.7215 11.9216C62.476 11.9223 62.476 11.9223 62.2255 11.9231C59.3206 11.9307 56.4221 11.877 53.5201 11.7388C53.3225 11.7294 53.125 11.72 52.9215 11.7103C49.3882 11.5355 45.8665 11.2398 42.3487 10.8684C40.9546 10.7506 40.0921 10.8727 38.9356 11.738Z" fill="#103255"/>
<path d="M94.4606 65.7695C94.9485 65.7747 94.9485 65.7747 95.5641 65.9902C95.962 66.5511 96.2723 67.0666 96.5848 67.6731C96.679 67.8501 96.7732 68.0271 96.8703 68.2094C97.1762 68.7912 97.4746 69.3763 97.7711 69.9629C97.8697 70.1562 97.9683 70.3495 98.0699 70.5487C100.188 74.7339 101.919 79.0922 103.454 83.5223C103.51 83.6788 103.566 83.8352 103.623 83.9963C103.905 84.8433 104.002 85.4359 103.73 86.2949C103.209 86.2589 103.209 86.2589 102.627 86.0742C102.344 85.5667 102.344 85.5667 102.137 84.8854C102.056 84.6313 101.974 84.3772 101.891 84.1154C101.806 83.8378 101.721 83.5601 101.633 83.274C101.444 82.6859 101.25 82.0995 101.054 81.5136C101.004 81.3621 100.953 81.2107 100.901 81.0546C100.345 79.4139 99.6807 77.8248 98.985 76.2391C98.9243 76.1007 98.8636 75.9624 98.8011 75.8198C97.0702 71.8871 97.0702 71.8871 95.0287 68.1099C94.9254 67.9353 94.8222 67.7607 94.7158 67.5808C94.5717 67.3456 94.5717 67.3456 94.4248 67.1057C94.203 66.562 94.2624 66.3118 94.4606 65.7695Z" fill="#103255"/>
<path d="M90.4879 82.543C90.8577 82.6061 91.2259 82.6793 91.5914 82.7637C92.229 85.5924 92.1482 88.6911 91.9225 91.5642C91.5347 95.0452 91.5347 95.0452 92.695 98.2129C93.8525 98.9846 95.1253 98.6494 96.4469 98.4336C96.5159 98.944 96.5159 98.944 96.4469 99.5371C95.7746 100.209 95.0691 100.263 94.1571 100.31C93.1347 100.277 92.4729 100.117 91.6871 99.4552C90.1198 97.6743 90.2068 95.6032 90.2672 93.3574C90.3 92.8881 90.3366 92.4191 90.3776 91.9504C90.5994 89.3269 90.5019 86.7173 90.3264 84.0947C90.2985 83.6514 90.2818 83.2075 90.2672 82.7637C90.3401 82.6908 90.4129 82.618 90.4879 82.543Z" fill="#103255"/>
<path d="M12.5803 66.2109C13.377 66.2638 13.6565 66.405 14.2373 66.9722C14.4327 67.208 14.6251 67.4465 14.8149 67.6869C14.9203 67.8161 15.0256 67.9452 15.1342 68.0783C15.463 68.4834 15.7876 68.8917 16.1115 69.3008C16.3026 69.539 16.4937 69.7773 16.6848 70.0155C17.311 70.801 17.9256 71.5953 18.5393 72.3906C18.7431 72.6538 18.7431 72.6538 18.951 72.9223C20.5032 74.9294 22.0467 76.9449 23.5189 79.0117C23.6229 79.1529 23.7269 79.2942 23.834 79.4397C24.2742 80.0705 24.5084 80.4233 24.4491 81.205C24.3925 81.3552 24.3359 81.5054 24.2776 81.6602C23.6443 81.5872 23.2775 81.544 22.8212 81.0828C22.72 80.9285 22.6188 80.7742 22.5145 80.6153C22.3379 80.3532 22.3379 80.3532 22.1578 80.0859C22.0334 79.8953 21.909 79.7047 21.7808 79.5083C21.5081 79.1045 21.2345 78.7014 20.9601 78.2987C20.8176 78.0892 20.675 77.8797 20.5282 77.6639C18.5079 74.7585 16.3055 71.9112 13.9493 69.2689C13.8455 69.1501 13.7416 69.0314 13.6346 68.909C13.3426 68.5758 13.0469 68.2459 12.751 67.9162C12.3596 67.3145 12.3596 67.3145 12.4096 66.6851C12.4659 66.5286 12.5222 66.3722 12.5803 66.2109Z" fill="#103255"/>
<path d="M10.8147 21.8496C11.4874 21.9182 11.8236 21.967 12.2886 22.4745C12.3969 22.6501 12.5051 22.8257 12.6166 23.0066C12.7399 23.2033 12.8633 23.4 12.9904 23.6027C13.1835 23.923 13.1835 23.923 13.3804 24.2498C13.5162 24.4697 13.652 24.6896 13.792 24.9162C14.2017 25.5835 14.6058 26.254 15.0081 26.9258C15.1193 27.1102 15.2306 27.2946 15.3452 27.4845C17.0494 30.3211 18.5818 33.2479 20.0843 36.1953C20.1699 36.3524 20.2555 36.5094 20.3437 36.6713C20.5739 37.186 20.4908 37.4406 20.305 37.9609C19.9408 37.9609 19.5767 37.9609 19.2015 37.9609C19.1252 37.8026 19.0489 37.6443 18.9704 37.4812C16.922 33.2519 14.764 29.1031 12.0941 25.2231C11.9888 25.07 11.8835 24.9169 11.7749 24.7591C11.5838 24.4856 11.3893 24.2143 11.1908 23.946C10.7682 23.3507 10.5851 23.0567 10.6492 22.3152C10.7038 22.1615 10.7585 22.0079 10.8147 21.8496Z" fill="#103255"/>
<path d="M54.5138 17.2148C55.1468 17.2872 55.5204 17.3459 55.9949 17.7847C56.1767 18.0284 56.1767 18.0284 56.3622 18.277C56.5124 18.4756 56.6626 18.6741 56.8174 18.8787C56.9042 18.9963 56.9909 19.1139 57.0803 19.235C57.4343 19.7117 57.7947 20.1831 58.1554 20.6547C59.8207 22.8416 61.4057 25.0609 62.9005 27.3672C63.0647 27.6028 63.2288 27.8383 63.398 28.081C63.8091 28.7323 63.8719 29.0421 63.7833 29.7949C63.3463 29.9042 63.3463 29.9042 62.9005 30.0156C62.0157 28.8202 61.1477 27.6197 60.3348 26.374C59.5368 25.1667 58.695 23.9953 57.8381 22.829C57.7052 22.6479 57.5723 22.4667 57.4354 22.2801C56.541 21.0723 55.6097 19.9216 54.5974 18.8098C54.2931 18.3184 54.2931 18.3184 54.3543 17.7028C54.4069 17.5418 54.4596 17.3808 54.5138 17.2148Z" fill="#103255"/>
<path d="M58.0449 49.4375C58.9141 49.5521 59.3447 49.7442 59.9588 50.3669C60.1773 50.5861 60.1773 50.5861 60.4002 50.8098C60.5516 50.9669 60.7029 51.124 60.8589 51.2859C61.0161 51.4463 61.1733 51.6066 61.3353 51.7719C62.5253 52.9985 63.6143 54.27 64.666 55.6172C65.0104 56.0314 65.3552 56.4452 65.7006 56.8586C68.0694 59.7678 68.0694 59.7678 67.9766 61.1348C67.3557 61.0592 66.9753 61.0089 66.5097 60.5769C66.4043 60.4327 66.2988 60.2885 66.1902 60.1399C66.0692 59.9784 65.9481 59.8168 65.8234 59.6504C65.6964 59.4757 65.5694 59.3009 65.4385 59.1208C65.1633 58.7554 64.8874 58.3904 64.6108 58.026C64.4723 57.8428 64.3337 57.6597 64.191 57.471C63.6001 56.7037 62.9824 55.963 62.3486 55.231C62.2341 55.0982 62.1195 54.9655 62.0015 54.8288C61.3741 54.1149 60.7245 53.4368 60.0399 52.7774C59.8958 52.6382 59.7517 52.499 59.6032 52.3556C59.3245 52.0897 59.0427 51.8269 58.7575 51.568C58.3777 51.2083 58.3777 51.2083 57.8242 50.541C57.8501 49.9013 57.8501 49.9013 58.0449 49.4375Z" fill="#103255"/>
<path d="M40.6089 18.9805C40.9787 19.0436 41.3469 19.1168 41.7125 19.2012C41.711 19.3259 41.7095 19.4506 41.708 19.5792C41.6933 20.8788 41.6834 22.1784 41.6761 23.4781C41.6728 23.963 41.6682 24.4479 41.6625 24.9327C41.6545 25.6301 41.6507 26.3275 41.6478 27.0249C41.6444 27.2413 41.641 27.4577 41.6374 27.6806C41.6303 29.1813 41.6303 29.1813 42.3746 30.457C42.8763 30.5898 42.8763 30.5898 43.4091 30.526C43.5875 30.516 43.7659 30.5061 43.9497 30.4958C44.0854 30.483 44.2211 30.4702 44.3609 30.457C44.4337 30.8212 44.5066 31.1854 44.5816 31.5605C43.7607 32.1078 43.1051 32.1443 42.1539 32.002C41.1859 31.5454 40.6983 31.0759 40.298 30.0808C40.0099 28.9623 40.092 27.7964 40.1124 26.6499C40.1149 26.3773 40.1175 26.1046 40.1202 25.8237C40.2 19.3895 40.2 19.3895 40.6089 18.9805Z" fill="#103255"/>
<path d="M41.4921 51.2031C41.8563 51.2031 42.2204 51.2031 42.5956 51.2031C42.865 52.2515 42.8444 53.2715 42.8379 54.3456C42.8376 54.5399 42.8373 54.7343 42.8369 54.9346C42.8357 55.553 42.8329 56.1713 42.8301 56.7897C42.829 57.21 42.828 57.6302 42.8271 58.0505C42.8247 59.0786 42.8209 60.1067 42.8163 61.1348C43.1342 61.1727 43.4522 61.2099 43.7702 61.2468C43.9473 61.2676 44.1243 61.2884 44.3068 61.3098C44.8614 61.3609 45.369 61.3376 45.92 61.2589C46.2067 61.2179 46.4935 61.177 46.789 61.1348C46.789 61.4989 46.789 61.8631 46.789 62.2383C45.4391 62.8031 44.2507 63.1264 42.8163 62.6797C42.0426 62.2288 41.5609 61.7826 41.2714 60.9141C41.25 60.3504 41.2405 59.7931 41.2421 59.2295C41.2419 59.0637 41.2417 58.8979 41.2415 58.727C41.2413 58.3757 41.2417 58.0243 41.2426 57.6729C41.2438 57.1411 41.2426 56.6094 41.2412 56.0776C41.2406 54.4399 41.2558 52.8272 41.4921 51.2031Z" fill="#103255"/>
<path d="M96.668 19.4219C97.1877 19.5041 97.4735 19.5536 97.8248 19.958C97.9022 20.0946 97.9797 20.2312 98.0594 20.3719C98.1958 20.6089 98.1958 20.6089 98.3349 20.8506C98.4793 21.113 98.4793 21.113 98.6267 21.3806C98.7293 21.5623 98.8318 21.7441 98.9375 21.9313C103.804 30.6472 103.804 30.6472 103.661 31.9882C103.611 32.1384 103.561 32.2886 103.51 32.4434C102.995 32.3991 102.995 32.3991 102.406 32.2227C102.08 31.7682 102.08 31.7682 101.812 31.1648C101.71 30.9413 101.607 30.7178 101.502 30.4875C101.395 30.2453 101.289 30.0031 101.179 29.7535C100.947 29.2493 100.715 28.7455 100.481 28.2422C100.303 27.8581 100.303 27.8581 100.122 27.4662C99.5631 26.2977 98.9494 25.1624 98.3232 24.0291C98.2147 23.8321 98.1061 23.6352 97.9943 23.4323C97.4257 22.404 97.4257 22.404 96.832 21.3903C96.6183 21.0353 96.4207 20.6707 96.2266 20.3047C96.3921 19.7667 96.3921 19.7667 96.668 19.4219Z" fill="#103255"/>
<path d="M7.50411 33.9883C7.79544 33.9883 8.08677 33.9883 8.38692 33.9883C8.64252 34.9394 8.5659 35.7122 8.4283 36.6824C8.38633 36.9926 8.34438 37.3028 8.30243 37.6131C8.23477 38.0969 8.16637 38.5806 8.09747 39.0643C8.03113 39.5345 7.96754 40.0051 7.90413 40.4757C7.86459 40.7554 7.82504 41.035 7.7843 41.3231C7.7178 42.2523 7.77606 43.0047 7.94552 43.9199C8.37729 44.4521 8.37729 44.4521 9.18697 44.3889C9.55568 44.3753 9.55568 44.3753 9.93184 44.3613C10.0047 44.7255 10.0775 45.0896 10.1525 45.4648C9.32077 46.0194 8.93173 46.0233 7.94552 45.9062C7.13252 45.4 6.71826 45.0051 6.30404 44.1406C6.04675 42.8988 6.25643 41.6341 6.40059 40.3887C6.42378 40.1804 6.44697 39.9721 6.47086 39.7575C6.55064 39.048 6.63363 38.3389 6.71786 37.6299C6.75826 37.2819 6.75826 37.2819 6.79949 36.9269C6.84059 36.5955 6.84059 36.5955 6.88252 36.2574C6.91855 35.9606 6.91855 35.9606 6.95532 35.6578C7.06886 35.0593 7.26053 34.5452 7.50411 33.9883Z" fill="#103255"/>
<path d="M10.3733 86.2949C11.5653 86.6228 12.2586 87.4301 13.0984 88.2856C13.2515 88.4391 13.4046 88.5926 13.5624 88.7508C13.8854 89.0752 14.2075 89.4005 14.529 89.7264C15.0193 90.2236 15.5119 90.7185 16.0051 91.2129C16.3192 91.529 16.6331 91.8453 16.9469 92.1617C17.0934 92.3091 17.2399 92.4565 17.3908 92.6083C18.8804 94.1209 18.8804 94.1209 19.4221 94.9023C19.3669 95.5231 19.3669 95.5231 19.2014 96.0059C18.3968 95.8778 18.019 95.571 17.445 95.0042C17.2764 94.8392 17.1079 94.6742 16.9342 94.5041C16.7546 94.3246 16.575 94.145 16.39 93.96C16.2046 93.7763 16.0192 93.5926 15.8281 93.4032C15.4368 93.0143 15.0463 92.6245 14.6567 92.2338C14.0578 91.6347 13.4544 91.0405 12.8506 90.4465C12.4714 90.0684 12.0925 89.6901 11.7139 89.3115C11.532 89.1333 11.3502 88.9551 11.1629 88.7715C10.9978 88.6044 10.8328 88.4372 10.6627 88.265C10.5159 88.1187 10.369 87.9723 10.2178 87.8215C9.93186 87.3984 9.93186 87.3984 9.98275 86.9167C10.1526 86.5156 10.1526 86.5156 10.3733 86.2949Z" fill="#103255"/>
<path d="M57.3828 84.5293C58.1243 84.7977 58.482 85.1744 58.9346 85.807C59.0577 85.9767 59.1808 86.1465 59.3076 86.3214C59.4371 86.5039 59.5667 86.6863 59.7002 86.8743C59.9756 87.2554 60.2512 87.6365 60.527 88.0174C60.6652 88.2094 60.8034 88.4014 60.9459 88.5992C61.5548 89.439 62.1786 90.2674 62.8038 91.0952C63.1084 91.4985 63.4125 91.9019 63.7135 92.3078C63.9154 92.5773 64.1218 92.8435 64.3314 93.107C64.6445 93.5126 64.6445 93.5126 65.1074 94.2402C65.026 94.7271 65.026 94.7271 64.8867 95.123C64.4151 95.2291 64.4151 95.2291 63.7832 95.123C63.2709 94.6198 62.8964 94.0229 62.5004 93.4264C62.2496 93.0633 61.9981 92.7006 61.746 92.3384C61.6128 92.1459 61.4795 91.9533 61.3422 91.755C60.4498 90.4949 59.4954 89.2809 58.5511 88.0595C58.4086 87.8741 58.266 87.6886 58.1191 87.4976C57.9929 87.3345 57.8666 87.1714 57.7366 87.0033C57.3597 86.4838 57.0127 85.9845 56.7207 85.4121C56.7935 85.1936 56.8664 84.9751 56.9414 84.75C57.0871 84.6772 57.2327 84.6043 57.3828 84.5293Z" fill="#103255"/>
<path d="M40.8298 90.2676C41.2988 90.2719 41.2988 90.2719 41.9333 90.4883C42.4407 91.0057 42.8434 91.5917 43.2575 92.1849C43.4825 92.4987 43.7078 92.8122 43.9334 93.1255C44.0951 93.3531 44.0951 93.3531 44.26 93.5852C44.5629 93.9942 44.883 94.3747 45.2188 94.7566C45.6852 95.3438 45.6852 95.3438 45.6439 95.9783C45.5847 96.133 45.5255 96.2878 45.4645 96.4473C44.0641 96.2835 43.2041 94.8285 42.3747 93.7988C40.5704 91.46 40.5704 91.46 40.6737 90.6323C40.7252 90.5119 40.7767 90.3916 40.8298 90.2676Z" fill="#103255"/>
<path d="M93.7988 92.0332C94.0902 92.106 94.3815 92.1789 94.6816 92.2539C94.6589 92.4861 94.6361 92.7182 94.6127 92.9574C94.6986 94.0053 95.0154 94.2265 95.7852 94.9023C95.858 95.1208 95.9308 95.3393 96.0059 95.5645C95.933 95.7101 95.8602 95.8558 95.7852 96.0059C95.192 96.0886 95.192 96.0886 94.4609 96.0059C93.689 95.3025 93.4188 94.9004 93.1367 93.8954C93.1367 93.0523 93.2963 92.6966 93.7988 92.0332Z" fill="#103255"/>
<path d="M99.9785 20.3047C100.27 20.3047 100.561 20.3047 100.861 20.3047C101.158 20.6599 101.158 20.6599 101.413 21.1323C101.746 21.7197 101.992 22.0961 102.489 22.5669C102.607 22.6944 102.726 22.8218 102.848 22.9531C102.792 23.4497 102.792 23.4497 102.627 23.8359C101.955 23.9019 101.633 23.9192 101.085 23.504C100.234 22.5109 99.7578 21.8543 99.7578 20.5254C99.8306 20.4526 99.9035 20.3797 99.9785 20.3047Z" fill="#103255"/>
<path d="M98.875 66.6523C99.5371 66.873 99.5371 66.873 99.8354 67.3696C99.9282 67.5699 100.021 67.7702 100.116 67.9766C100.415 68.6886 100.415 68.6886 100.861 69.3008C100.87 69.6685 100.871 70.0366 100.861 70.4043C100.354 70.469 100.354 70.469 99.7578 70.4043C99.3681 69.9603 99.3681 69.9603 99.0405 69.3698C98.9301 69.1777 98.8198 68.9857 98.706 68.7878C98.442 68.2155 98.3068 67.7145 98.2129 67.0938C98.4314 66.9481 98.6499 66.8024 98.875 66.6523Z" fill="#103255"/>
<path d="M43.9199 54.7344C44.2841 54.8072 44.6482 54.88 45.0234 54.9551C44.9779 55.1918 44.9324 55.4285 44.8855 55.6724C44.8006 56.521 44.858 56.6829 45.2441 57.3828C45.1614 57.8794 45.1614 57.8794 45.0234 58.2656C44.7321 58.3385 44.4408 58.4113 44.1406 58.4863C43.544 57.8079 43.3919 57.3868 43.4095 56.4862C43.4104 56.297 43.4113 56.1078 43.4121 55.9129C43.4785 55.3965 43.4785 55.3965 43.9199 54.7344Z" fill="#103255"/>
<path d="M42.5953 25.3809C42.9594 25.4537 43.3236 25.5265 43.6988 25.6016C43.6844 26.047 43.67 26.4924 43.6557 26.9379C43.6583 27.4199 43.6583 27.4199 44.1402 27.8086C44.1678 28.3879 44.1678 28.3879 44.1402 28.9121C43.1426 28.993 43.1426 28.993 42.6797 28.6397C42.31 28.1675 42.2542 27.8638 42.1952 27.2706C42.1756 27.1025 42.156 26.9344 42.1357 26.7611C42.1564 26.1946 42.3097 25.8648 42.5953 25.3809Z" fill="#103255"/>
<path d="M59.5898 18.7599C60.089 18.6875 60.089 18.6875 60.6934 18.7599C61.1391 19.2599 61.1391 19.2599 61.5348 19.9186C61.6682 20.1337 61.8017 20.3487 61.9391 20.5703C62.2383 21.1876 62.2383 21.1876 62.2383 22.0704C61.947 22.1433 61.6556 22.2161 61.3555 22.2911C59.6225 20.2958 59.6225 20.2958 59.5898 18.7599Z" fill="#103255"/>
<path d="M14.3455 24.2775C15.1961 24.1524 15.4379 24.2694 16.1525 24.7878C16.7732 25.381 16.7732 25.381 17.2146 26.0431C17.1319 26.6362 17.1319 26.6362 16.9939 27.1466C16.2084 27.0811 15.9507 26.9951 15.4214 26.3879C15.2849 26.2013 15.1483 26.0147 15.0076 25.8224C14.7891 25.6767 14.5706 25.5311 14.3455 25.381C14.3041 24.8016 14.3041 24.8016 14.3455 24.2775Z" fill="#103255"/>
<path d="M17.656 68.6388C18.3429 68.5687 18.6546 68.5584 19.213 68.9862C19.3456 69.1401 19.4782 69.294 19.6147 69.4526C19.7507 69.6037 19.8867 69.7548 20.0268 69.9104C20.3044 70.4044 20.3044 70.4044 20.2372 71.0156C20.1866 71.1781 20.1359 71.3405 20.0837 71.5079C19.4647 71.4897 19.0818 71.3755 18.6121 70.9674C18.0409 70.3419 17.6824 69.9488 17.5732 69.094C17.6006 68.9438 17.6279 68.7935 17.656 68.6388Z" fill="#103255"/>
<path d="M62.2385 49.2168C63.0881 49.2653 63.3399 49.4354 63.9627 50.0444C64.4467 50.7635 64.5686 51.028 64.4455 51.8652C64.1542 51.9381 63.8628 52.0109 63.5627 52.0859C63.2966 51.8186 63.0354 51.5463 62.7764 51.2721C62.6305 51.121 62.4845 50.97 62.3342 50.8143C62.0178 50.3203 62.0178 50.3203 62.0807 49.7091C62.1328 49.5466 62.1848 49.3842 62.2385 49.2168Z" fill="#103255"/>
<path d="M8.82788 40.8301C9.11921 40.8301 9.41054 40.8301 9.71069 40.8301C9.9314 41.4922 9.9314 41.4922 9.71069 42.1543C10.002 42.2271 10.2933 42.3 10.5935 42.375C10.5207 42.7392 10.4478 43.1033 10.3728 43.4785C9.87622 43.5475 9.87622 43.5475 9.26929 43.4785C8.68703 42.9277 8.41525 42.5812 8.30371 41.7819C8.38647 41.2715 8.38647 41.2715 8.82788 40.8301Z" fill="#103255"/>
<path d="M60.6934 84.9707C61.4395 85.026 61.6383 85.2535 62.1831 85.7983C62.6822 86.5192 62.804 86.7736 62.6797 87.6191C62.4612 87.692 62.2427 87.7648 62.0176 87.8398C61.4333 87.2709 60.9264 86.7548 60.4727 86.0742C60.5554 85.4811 60.5554 85.4811 60.6934 84.9707Z" fill="#103255"/>
<path d="M13.6838 87.1779C14.1666 87.0813 14.1666 87.0813 14.7874 87.1779C15.254 87.6357 15.6092 88.1332 15.8909 88.7228C15.8909 89.0141 15.8909 89.3055 15.8909 89.6056C15.6724 89.6785 15.4539 89.7513 15.2288 89.8263C13.6838 88.2814 13.6838 88.2814 13.6562 87.7021C13.6654 87.5291 13.6745 87.3561 13.6838 87.1779Z" fill="#103255"/>
<path d="M44.5818 91.1504C44.946 91.2232 45.3101 91.2961 45.6853 91.3711C45.8023 91.6922 45.9168 92.0143 46.0302 92.3367C46.0942 92.5159 46.1582 92.6951 46.2242 92.8798C46.3474 93.3574 46.3474 93.3574 46.1267 93.7988C45.7626 93.7988 45.3984 93.7988 45.0232 93.7988C44.235 92.1908 44.235 92.1908 44.5818 91.1504Z" fill="#103255"/>
</svg>
