<svg width="141" height="141" viewBox="0 0 141 141" fill="none" xmlns="http://www.w3.org/2000/svg">
<g clip-path="url(#clip0_1_25133)">
<path d="M115.571 42.3896C117.367 42.3737 119.163 42.3619 120.959 42.3533C121.597 42.3496 122.235 42.3445 122.873 42.3378C123.727 42.3291 124.582 42.3255 125.437 42.3233C125.681 42.3196 125.926 42.3158 126.179 42.312C127.951 42.3158 129.057 42.718 130.466 43.8386C131.9 45.6315 131.716 47.9287 131.708 50.1173C131.709 50.4458 131.71 50.7743 131.711 51.1128C131.714 52.0199 131.714 52.9269 131.712 53.834C131.712 54.8142 131.714 55.7943 131.716 56.7744C131.72 58.6927 131.72 60.6109 131.72 62.5292C131.719 64.0887 131.72 65.6482 131.721 67.2077C131.721 67.4299 131.721 67.6521 131.721 67.8809C131.722 68.3323 131.722 68.7837 131.722 69.235C131.725 73.4653 131.725 77.6956 131.723 81.9259C131.722 85.7938 131.725 89.6617 131.73 93.5296C131.735 97.504 131.738 101.478 131.737 105.453C131.736 107.683 131.737 109.913 131.741 112.143C131.744 114.042 131.744 115.94 131.741 117.838C131.739 118.806 131.739 119.774 131.742 120.742C131.745 121.793 131.743 122.844 131.74 123.894C131.742 124.198 131.744 124.503 131.746 124.816C131.733 126.645 131.697 128.719 130.41 130.155C129.164 131.223 128.43 131.396 126.822 131.399C126.634 131.399 126.447 131.4 126.253 131.401C125.613 131.403 124.972 131.402 124.331 131.402C123.862 131.403 123.393 131.403 122.925 131.404C121.609 131.406 120.292 131.405 118.976 131.404C118.121 131.403 117.266 131.403 116.411 131.403C98.5837 131.394 80.7573 131.193 62.9314 131.016C59.2127 130.979 55.4941 130.943 51.7754 130.909C47.392 130.868 43.0086 130.826 38.6252 130.783C38.1588 130.779 37.6924 130.774 37.226 130.769C36.9968 130.767 36.7676 130.765 36.5314 130.763C34.9312 130.747 33.3309 130.732 31.7306 130.717C29.7933 130.699 27.856 130.68 25.9187 130.66C24.9348 130.65 23.9509 130.64 22.967 130.632C21.8987 130.622 20.8305 130.611 19.7623 130.599C19.4565 130.597 19.1506 130.595 18.8355 130.592C17.3223 130.574 15.8133 130.526 14.3026 130.435C14.014 130.418 13.7255 130.401 13.4281 130.383C12.264 130.194 11.7839 129.758 11.0154 128.883C10.6048 128.062 10.6976 127.222 10.6964 126.321C10.695 126.111 10.6937 125.901 10.6923 125.684C10.688 124.975 10.6857 124.266 10.6834 123.557C10.6808 123.049 10.678 122.541 10.6752 122.033C10.6677 120.641 10.6619 119.25 10.6564 117.858C10.6504 116.375 10.6428 114.893 10.6355 113.411C10.6232 110.893 10.612 108.375 10.6015 105.858C10.591 103.331 10.5796 100.804 10.5671 98.2766C10.5649 97.8204 10.5649 97.8204 10.5626 97.3549C10.5611 97.0512 10.5596 96.7475 10.558 96.4346C10.5293 90.5946 10.5053 84.7545 10.4874 78.9145C10.4759 75.1461 10.4595 71.3778 10.4357 67.6095C10.4201 65.1152 10.4083 62.6208 10.3994 60.1264C10.394 58.6578 10.3866 57.1893 10.3745 55.7207C10.3634 54.363 10.3573 53.0054 10.3553 51.6476C10.3536 51.1521 10.3501 50.6566 10.3444 50.1611C10.3371 49.4857 10.3365 48.8107 10.3376 48.1353C10.3338 47.9404 10.3301 47.7455 10.3262 47.5447C10.339 46.1662 10.6969 45.3946 11.5661 44.3377C12.4152 43.5724 13.0056 43.3939 14.1396 43.3262C14.4336 43.3085 14.7275 43.2908 15.0303 43.2725C16.6738 43.2091 18.3157 43.1827 19.9603 43.1717C20.3535 43.1681 20.7468 43.1645 21.14 43.1607C22.2122 43.1508 23.2844 43.1424 24.3566 43.1343C25.517 43.1253 26.6774 43.1148 27.8377 43.1045C30.1108 43.0846 32.384 43.0659 34.6571 43.0477C37.3187 43.0264 39.9802 43.0038 42.6418 42.9811C47.4074 42.9405 52.173 42.9011 56.9386 42.8624C61.5295 42.8251 66.1203 42.787 70.7111 42.7478C70.9922 42.7454 71.2733 42.743 71.5629 42.7406C71.9839 42.737 71.9839 42.737 72.4135 42.7333C77.6732 42.6885 82.9329 42.6445 88.1926 42.6009C89.7736 42.5878 91.3546 42.5745 92.9356 42.5611C98.4301 42.5146 103.925 42.4701 109.419 42.435C111.47 42.4219 113.521 42.4077 115.571 42.3896ZM13.4939 45.9901C12.9028 46.8766 12.8744 47.1027 12.8753 48.1221C12.8742 48.3924 12.8731 48.6626 12.872 48.9411C12.8736 49.2387 12.8752 49.5363 12.8769 49.8429C12.8764 50.1585 12.8759 50.4741 12.8754 50.7993C12.8747 51.6766 12.8764 52.5539 12.8792 53.4312C12.8815 54.3767 12.8807 55.3223 12.8803 56.2678C12.88 57.9065 12.8818 59.5452 12.8849 61.1839C12.8893 63.5532 12.8908 65.9225 12.8915 68.2918C12.8927 72.1356 12.8963 75.9794 12.9015 79.8232C12.9066 83.5576 12.9105 87.292 12.9128 91.0263C12.913 91.2564 12.9131 91.4865 12.9133 91.7236C12.914 92.878 12.9147 94.0323 12.9154 95.1867C12.9211 104.766 12.9308 114.346 12.9431 123.926C13.2034 123.712 13.4637 123.499 13.7319 123.279C13.9516 123.099 13.9516 123.099 14.1757 122.915C14.7767 122.39 15.2553 121.798 15.7486 121.172C16.6657 120.024 17.599 118.896 18.5542 117.781C19.6011 116.553 20.6116 115.303 21.6007 114.029C22.6275 112.706 23.6871 111.421 24.7849 110.156C26.001 108.754 27.1671 107.323 28.3058 105.857C29.2727 104.614 30.2603 103.39 31.2566 102.17C32.763 100.323 34.243 98.4576 35.7097 96.5794C36.0729 96.1149 36.4373 95.6514 36.802 95.1882C36.9837 94.9573 36.9837 94.9573 37.169 94.7218C37.4153 94.4092 37.6619 94.0969 37.9088 93.7849C38.6472 92.8491 39.371 91.9041 40.0852 90.9497C40.2539 90.7267 40.4226 90.5037 40.5964 90.2739C40.9252 89.8387 41.2514 89.4015 41.5744 88.962C42.7596 87.4019 43.8286 86.5503 45.7146 85.9217C47.6552 85.708 49.3268 85.8883 50.947 87.0233C52.7476 88.7298 54.2831 90.68 55.8363 92.6096C56.4791 93.3866 57.1488 94.13 57.8318 94.8719C58.7387 95.8572 59.6071 96.8589 60.448 97.9012C61.5258 99.237 62.6621 100.506 63.8258 101.767C64.327 102.319 64.8025 102.878 65.2673 103.461C65.5399 103.776 65.5399 103.776 65.8181 104.097C66.3834 104.162 66.3834 104.162 66.7088 103.761C66.9154 103.51 66.9154 103.51 67.1262 103.254C68.1107 102.093 69.1445 100.987 70.1899 99.8806C71.5308 98.4558 72.8014 97.0007 74.0228 95.4711C74.7021 94.6475 75.4182 93.863 76.1452 93.0819C77.3171 91.8208 78.4236 90.5227 79.5037 89.1812C80.1957 88.3298 80.9057 87.4957 81.6186 86.6618C82.8041 85.2712 83.9398 83.848 85.0609 82.4053C86.0373 81.1541 87.0528 79.9418 88.0867 78.7379C89.1738 77.4651 90.2039 76.1513 91.2116 74.8146C92.3549 73.3249 93.4325 72.3126 95.2849 71.8768C97.3471 71.7105 98.999 72.0849 100.638 73.3914C101.683 74.3491 102.54 75.4543 103.422 76.5606C104.123 77.4164 104.857 78.2281 105.612 79.0369C106.563 80.0581 107.475 81.0983 108.349 82.1867C109.276 83.3392 110.247 84.4299 111.258 85.5086C112.491 86.8259 113.649 88.1821 114.78 89.59C115.419 90.3644 116.085 91.104 116.765 91.8426C117.871 93.0451 118.911 94.284 119.937 95.555C120.898 96.7238 121.896 97.8602 122.892 98.9999C123.974 100.243 125.012 101.51 126.021 102.814C126.147 102.965 126.274 103.116 126.404 103.271C126.495 103.271 126.586 103.271 126.679 103.271C126.727 97.8381 126.773 92.4049 126.817 86.9716C126.82 86.6709 126.82 86.6709 126.822 86.3641C126.93 73.1812 126.985 59.9997 126.955 46.8162C110.681 46.5937 94.4076 46.4333 78.1333 46.2938C77.7853 46.2908 77.4374 46.2878 77.0789 46.2847C76.7306 46.2818 76.3823 46.2788 76.0234 46.2757C73.5695 46.2546 71.1156 46.2326 68.6618 46.2102C59.1768 46.124 49.6919 46.0475 40.2068 45.9901C39.8759 45.988 39.545 45.986 39.2041 45.9839C35.0125 45.9582 30.821 45.9382 26.6293 45.9276C25.4467 45.9245 24.2642 45.9195 23.0816 45.9129C21.7192 45.9054 20.3569 45.9018 18.9945 45.9015C18.4982 45.9007 18.002 45.8985 17.5058 45.8949C16.8339 45.8901 16.1623 45.8905 15.4904 45.8922C15.2938 45.8896 15.0972 45.887 14.8947 45.8844C14.2995 45.8797 14.2995 45.8797 13.4939 45.9901ZM92.0663 76.9371C91.9245 77.1055 91.7828 77.2738 91.6367 77.4473C90.3983 78.9281 89.2057 80.4442 88.0215 81.9683C86.9796 83.3067 85.9006 84.6144 84.82 85.9217C85.5806 86.8286 86.3407 87.7177 87.1781 88.5551C87.9172 89.2942 88.5668 90.0684 89.2263 90.8787C89.9776 90.526 90.6128 90.1405 91.2595 89.6212C91.4274 89.4875 91.5953 89.3539 91.7683 89.2162C92.0265 89.0082 92.0265 89.0082 92.29 88.7961C94.5561 86.98 94.5561 86.98 96.0422 86.9372C96.2737 86.9269 96.5051 86.9166 96.7436 86.906C98.6798 87.211 99.8572 88.8502 101.052 90.2602C101.817 91.1323 102.426 91.6521 103.547 91.9803C104.495 91.0489 105.401 90.0982 106.266 89.0887C106.487 88.8359 106.708 88.5832 106.935 88.3228C107.473 87.627 107.473 87.627 107.347 86.9147C107.102 86.116 106.787 85.637 106.271 84.9815C106.093 84.7516 105.915 84.5217 105.731 84.2849C105.539 84.0412 105.346 83.7975 105.147 83.5465C104.745 83.0301 104.343 82.5134 103.941 81.9963C103.738 81.7343 103.534 81.4722 103.324 81.2023C102.745 80.4466 102.184 79.6817 101.629 78.9089C101.458 78.6725 101.288 78.4362 101.113 78.1926C100.792 77.7451 100.474 77.2961 100.158 76.8455C99.2863 75.6353 98.5366 74.7859 97.2126 74.0799C94.7988 73.7351 93.4862 75.2192 92.0663 76.9371ZM40.2068 94.1834C39.9806 94.4561 39.7545 94.7287 39.5215 95.0096C38.92 95.741 38.3237 96.4764 37.7282 97.2127C37.4103 97.5988 37.4103 97.5988 37.086 97.9926C36.8833 98.2408 36.6806 98.4889 36.4718 98.7446C36.2897 98.9664 36.1075 99.1883 35.9199 99.4169C35.4716 99.9284 35.4716 99.9284 35.5251 100.517C35.9438 100.93 35.9438 100.93 36.489 101.361C37.7659 102.442 38.8477 103.653 39.9314 104.924C40.6818 104.572 41.3121 104.188 41.9548 103.666C42.1215 103.532 42.2882 103.399 42.4599 103.261C42.8064 102.98 43.1528 102.699 43.4991 102.418C43.6654 102.284 43.8317 102.151 44.0031 102.014C44.1532 101.892 44.3034 101.77 44.4582 101.644C45.4762 100.933 46.7216 100.884 47.9177 101.068C49.56 101.808 50.7076 103.317 51.9033 104.621C52.0791 104.805 52.2548 104.988 52.4358 105.178C52.5929 105.347 52.75 105.516 52.9118 105.69C53.4207 106.093 53.4207 106.093 54.1217 105.996C54.8808 105.721 55.1669 105.48 55.6695 104.858C55.8154 104.678 55.9613 104.497 56.1116 104.311C56.3326 104.026 56.3326 104.026 56.5581 103.736C56.7118 103.549 56.8655 103.363 57.0239 103.171C57.1676 102.989 57.3114 102.808 57.4595 102.62C57.5907 102.455 57.7218 102.289 57.8569 102.119C58.1614 101.626 58.1614 101.626 58.0376 101.047C57.7434 100.29 57.2957 99.7314 56.799 99.0888C56.6911 98.948 56.5832 98.8073 56.4719 98.6622C56.2319 98.3494 55.991 98.0371 55.7495 97.7253C55.3272 97.179 54.908 96.6303 54.4894 96.081C53.8819 95.2839 53.273 94.4879 52.6628 93.6929C52.0924 92.9493 51.5251 92.2037 50.961 91.4553C50.836 91.2904 50.711 91.1255 50.5822 90.9556C50.2462 90.5121 49.9113 90.0677 49.5765 89.6233C49.0019 88.9301 48.545 88.4786 47.6477 88.2787C44.261 88.0928 42.1631 91.8217 40.2068 94.1834ZM95.4731 89.7535C95.269 89.9999 95.0649 90.2462 94.8546 90.5001C94.6498 90.7422 94.4449 90.9843 94.2339 91.2337C94.0354 91.4801 93.837 91.7265 93.6325 91.9803C93.4256 92.2267 93.2186 92.473 93.0054 92.7269C92.4758 93.2991 92.4758 93.2991 92.531 93.908C92.1665 94.097 91.7986 94.2792 91.4294 94.4588C91.1312 94.6207 91.1312 94.6207 90.827 94.7858C89.4198 95.1924 88.1989 95.0185 86.8693 94.4136C85.0729 93.391 83.6261 92.1409 82.3932 90.4829C82.2313 90.2699 82.2313 90.2699 82.0661 90.0526C81.8844 90.0526 81.7026 90.0526 81.5154 90.0526C81.0219 90.6562 80.5606 91.2634 80.104 91.8942C79.8049 92.3011 79.5054 92.7077 79.2057 93.1141C79.0451 93.3324 78.8845 93.5506 78.7191 93.7754C78.1991 94.4743 77.6704 95.1656 77.1381 95.8551C74.856 98.8119 72.6832 101.816 70.6026 104.918C70.0323 105.757 69.441 106.58 68.8474 107.402C70.0007 109.004 71.2508 110.498 72.5397 111.99C73.5804 113.196 74.5983 114.417 75.602 115.654C76.1305 116.303 76.662 116.949 77.1962 117.593C78.9093 119.659 80.6011 121.736 82.2372 123.864C82.3416 123.997 82.4461 124.129 82.5537 124.265C82.8923 124.752 82.8923 124.752 83.2503 125.462C83.7094 126.292 84.1034 126.879 84.82 127.506C86.2422 127.856 87.6076 127.779 89.0542 127.695C89.4357 127.684 89.8172 127.673 90.1988 127.664C92.0881 127.611 93.9614 127.473 95.8357 127.23C95.6317 126.931 95.6317 126.931 95.4237 126.626C95.2472 126.359 95.0708 126.093 94.889 125.819C94.7133 125.557 94.5376 125.295 94.3565 125.025C93.8932 124.174 93.7334 123.506 93.6325 122.549C94.2005 122.428 94.2005 122.428 95.0095 122.549C95.9952 123.272 96.76 124.128 97.3148 125.218C97.7689 126.083 98.0934 126.621 98.865 127.23C100.489 127.578 102.183 127.386 103.822 127.23C103.081 126.094 102.297 125.016 101.464 123.943C99.4157 121.228 99.4157 121.228 99.4157 119.519C100.599 119.648 101.254 120.398 102.049 121.206C102.195 121.349 102.342 121.493 102.492 121.64C103.293 122.453 103.947 123.254 104.528 124.238C105.629 126.252 105.629 126.252 107.494 127.411C109.044 127.586 110.544 127.446 112.084 127.23C111.983 127.114 111.883 126.997 111.779 126.878C104.924 118.913 104.924 118.913 104.924 116.49C107.096 117.482 108.648 119.376 110.156 121.172C110.401 121.455 110.646 121.738 110.892 122.02C111.157 122.328 111.423 122.636 111.688 122.945C111.888 123.174 111.888 123.174 112.092 123.409C112.855 124.302 113.422 125.163 113.96 126.215C114.295 126.823 114.295 126.823 114.838 127.23C116.519 127.542 118.295 127.593 119.795 126.68C119.611 126.486 119.428 126.292 119.238 126.092C117.273 123.995 115.483 121.8 113.736 119.519C113.478 119.185 113.221 118.852 112.963 118.518C112.3 117.66 111.64 116.801 110.982 115.939C110.821 115.74 110.661 115.54 110.495 115.335C110.052 114.686 110.092 114.229 110.156 113.461C111.651 113.868 112.52 114.895 113.564 115.974C113.749 116.162 113.934 116.351 114.125 116.545C115.326 117.775 116.49 119.025 117.592 120.346C117.825 120.616 118.059 120.887 118.3 121.166C118.493 121.39 118.493 121.39 118.689 121.619C118.955 121.928 119.222 122.237 119.49 122.544C120.335 123.532 120.99 124.542 121.654 125.664C122.117 126.389 122.117 126.389 122.824 126.955C123.593 127.05 124.203 127.079 124.963 127.036C125.154 127.03 125.346 127.024 125.544 127.018C126.014 127.003 126.485 126.98 126.955 126.955C126.974 124.958 126.989 122.962 126.998 120.965C127.002 120.038 127.008 119.111 127.017 118.184C127.027 117.119 127.032 116.053 127.035 114.987C127.04 114.654 127.044 114.321 127.048 113.978C127.048 113.669 127.049 113.361 127.049 113.042C127.051 112.634 127.051 112.634 127.054 112.218C126.938 111.415 126.756 111.199 126.129 110.707C125.942 110.556 125.754 110.406 125.562 110.251C125.346 110.083 125.129 109.916 124.907 109.743C117.565 103.889 117.565 103.889 117.041 100.517C117.223 100.517 117.404 100.517 117.592 100.517C117.152 99.5313 116.553 98.7485 115.888 97.9012C114.588 96.2351 113.315 94.5497 112.049 92.8581C111.863 92.6096 111.677 92.3611 111.485 92.1051C111.042 91.5128 110.599 90.9205 110.156 90.3279C109.031 90.5587 108.459 91.0497 107.591 91.8082C106.167 92.9992 105.118 93.7623 103.254 94.0285C101.292 93.7363 99.9835 92.0355 98.7031 90.6469C98.1003 90.0177 97.5758 89.5409 96.7759 89.1844C96.059 89.1644 96.059 89.1644 95.4731 89.7535ZM46.2417 103.816C46.0337 104.056 45.8256 104.297 45.6113 104.545C45.2849 104.921 45.2849 104.921 44.9519 105.304C44.6478 105.661 44.6478 105.661 44.3376 106.025C44.1832 106.201 44.0288 106.376 43.8697 106.557C43.1696 107.287 43.1696 107.287 42.9607 108.228C42.7448 108.314 42.529 108.399 42.3066 108.487C41.6048 108.759 41.6048 108.759 41.0329 109.055C38.8869 109.24 37.5938 108.733 35.9242 107.386C34.6663 106.281 33.5168 105.149 32.4958 103.822C31.4889 104.791 30.6089 105.81 29.7591 106.92C28.5859 108.434 27.3844 109.921 26.1618 111.395C24.8578 112.97 23.5744 114.558 22.317 116.17C21.4173 117.324 20.5043 118.466 19.5869 119.605C17.9117 121.69 16.2831 123.81 14.6706 125.943C14.3863 126.317 14.0964 126.687 13.8048 127.055C13.4417 127.49 13.4417 127.49 13.4939 128.056C26.6737 128.086 39.8524 128.082 53.0316 127.945C53.8572 127.936 54.6827 127.928 55.5083 127.92C63.2609 127.841 71.0108 127.694 78.7614 127.506C78.0874 126.346 77.3059 125.359 76.4206 124.356C74.893 122.598 73.4407 120.795 72.0159 118.953C71.5623 118.367 71.107 117.783 70.6514 117.199C69.6811 115.954 68.713 114.708 67.7458 113.461C67.6227 113.302 67.4996 113.144 67.3728 112.98C65.1674 110.137 63.0153 107.255 60.8611 104.373C59.7699 104.785 59.0164 105.251 58.1244 106.008C56.4808 107.348 55.3392 108.148 53.1501 107.953C52.2379 107.746 52.2379 107.746 51.4978 107.402C51.3891 107.168 51.3891 107.168 51.2783 106.929C50.7979 106.018 50.0653 105.4 49.3119 104.717C49.1636 104.578 49.0154 104.438 48.8627 104.294C47.6161 103.099 47.6161 103.099 46.2417 103.816Z" fill="#103255"/>
<path d="M76.5747 1.73064C78.4964 3.21434 79.4541 5.36761 79.8632 7.7107C79.9415 8.83705 79.9487 9.93286 79.5878 11.0154C79.817 11.085 80.0462 11.1546 80.2823 11.2263C81.3543 11.6067 82.3359 12.082 83.3475 12.5978C83.6482 12.7493 83.6482 12.7493 83.9549 12.9038C84.3831 13.1197 84.8111 13.336 85.2389 13.5527C86.3648 14.1228 87.4929 14.6888 88.6208 15.2549C88.8431 15.3665 89.0654 15.4781 89.2944 15.5931C92.7134 17.308 96.173 18.9355 99.6354 20.5605C100.222 20.836 100.809 21.1115 101.396 21.3871C101.797 21.5754 102.198 21.7635 102.599 21.9517C105.767 23.4384 108.918 24.9556 112.064 26.4889C115.654 28.2382 119.269 29.9283 122.899 31.5926C123.44 31.8462 123.973 32.1156 124.5 32.3949C125.232 32.7381 125.66 32.8767 126.452 32.8928C126.656 32.8996 126.86 32.9064 127.071 32.9134C127.282 32.9176 127.494 32.9218 127.712 32.9262C131.822 33.0935 135.331 33.8695 138.254 37.0258C140.706 40.1966 141.084 43.5291 141.072 47.4137C141.073 47.7706 141.074 48.1275 141.075 48.4952C141.078 49.479 141.077 50.4628 141.076 51.4466C141.075 52.5103 141.078 53.574 141.08 54.6376C141.083 56.7186 141.084 58.7996 141.083 60.8806C141.083 62.5725 141.083 64.2643 141.084 65.9561C141.085 66.1972 141.085 66.4383 141.085 66.6868C141.085 67.1767 141.086 67.6665 141.086 68.1564C141.089 72.7462 141.088 77.3359 141.087 81.9257C141.085 86.1219 141.088 90.3182 141.093 94.5144C141.099 98.8271 141.101 103.14 141.1 107.452C141.1 109.872 141.1 112.292 141.104 114.711C141.107 116.771 141.108 118.83 141.104 120.89C141.103 121.94 141.103 122.99 141.106 124.04C141.109 125.179 141.106 126.319 141.103 127.459C141.105 127.789 141.107 128.118 141.109 128.458C141.086 132.01 140.078 134.996 137.626 137.626C134.265 140.779 130.602 141.051 126.216 141.003C125.833 141 125.45 140.997 125.067 140.994C124.018 140.986 122.968 140.976 121.919 140.966C120.785 140.955 119.65 140.946 118.516 140.937C116.289 140.918 114.063 140.898 111.836 140.877C109.221 140.853 106.606 140.83 103.99 140.808C99.2962 140.767 94.6021 140.725 89.908 140.683C85.4062 140.642 80.9044 140.602 76.4025 140.562C76.1283 140.56 75.854 140.558 75.5715 140.555C74.4673 140.546 73.3632 140.536 72.259 140.526C67.6484 140.486 63.0379 140.446 58.4274 140.405C57.3962 140.396 56.365 140.386 55.3338 140.377C53.8418 140.364 52.3497 140.351 50.8576 140.338C50.6145 140.336 50.3715 140.334 50.121 140.331C47.4823 140.308 44.8435 140.283 42.2047 140.257C41.4981 140.249 40.7914 140.242 40.0847 140.235C39.6139 140.23 39.1431 140.225 38.6723 140.221C35.6424 140.19 32.6125 140.166 29.5825 140.151C27.4317 140.14 25.2809 140.125 23.1301 140.108C21.8495 140.098 20.5689 140.09 19.2882 140.087C18.0988 140.083 16.9096 140.075 15.7202 140.064C15.2867 140.06 14.8531 140.059 14.4195 140.059C10.3977 140.062 6.89798 139.416 3.85539 136.594C1.14713 133.42 1.06034 129.883 1.06096 125.887C1.05944 125.36 1.05943 125.36 1.05788 124.822C1.05514 123.851 1.0541 122.881 1.05337 121.911C1.05229 120.862 1.04966 119.813 1.04726 118.765C1.04184 116.236 1.03904 113.707 1.03659 111.178C1.03538 109.986 1.0339 108.793 1.03246 107.6C1.02778 103.633 1.02379 99.6661 1.0218 95.6991C1.02127 94.6713 1.02074 93.6434 1.0202 92.6156C1.02007 92.3602 1.01993 92.1047 1.0198 91.8415C1.01751 87.7028 1.01053 83.5641 1.00159 79.4254C0.992476 75.1709 0.98752 70.9165 0.986641 66.662C0.986046 64.2754 0.983649 61.8888 0.976598 59.5022C0.970608 57.4701 0.968413 55.438 0.971085 53.4059C0.972333 52.3703 0.971838 51.3347 0.966471 50.299C0.960688 49.1734 0.963551 48.048 0.967168 46.9223C0.964148 46.599 0.96112 46.2758 0.958008 45.9427C0.985385 42.3993 1.86545 39.4593 4.3739 36.9301C6.70293 34.7654 9.16541 33.9163 12.343 33.8513C14.4675 33.6147 16.4012 32.4443 18.2962 31.5148C18.7365 31.3022 19.1771 31.09 19.6178 30.8781C20.5266 30.441 21.4346 30.0023 22.3421 29.5626C24.1882 28.6699 26.0459 27.8021 27.9035 26.9335C31.6833 25.1644 35.4455 23.3603 39.2011 21.5405C40.8302 20.7512 42.4628 19.9698 44.0968 19.191C45.9767 18.2939 47.8535 17.3908 49.7284 16.4834C49.936 16.383 50.1436 16.2825 50.3576 16.179C51.4171 15.6659 52.4755 15.1504 53.5317 14.6304C55.2454 13.7878 56.9502 12.9497 58.7151 12.2181C59.8961 11.7187 60.9516 11.2622 61.9628 10.4646C62.3223 9.49577 62.3478 8.79663 62.2855 7.76879C62.1863 5.91559 63.0758 4.36464 64.2004 2.943C67.3711 -0.440023 72.7582 -0.651927 76.5747 1.73064ZM65.4224 6.90174C64.6549 8.34469 64.4904 9.66638 64.834 11.2962C65.3754 13.0333 66.463 13.9986 68.001 14.9096C69.2453 15.4251 70.6723 15.3457 71.9468 14.9569C73.2789 14.3503 74.0692 13.5843 74.9062 12.3923C75.4285 10.8254 75.509 9.0806 74.89 7.53213C74.0004 6.08074 72.9913 5.11705 71.3261 4.6814C68.7734 4.29384 67.0322 4.87915 65.4224 6.90174ZM62.5237 15.4588C62.307 15.5569 62.0903 15.6551 61.8671 15.7562C61.6383 15.8557 61.4095 15.9552 61.1737 16.0577C60.4194 16.3868 59.668 16.7218 58.9163 17.0568C58.3892 17.288 57.8619 17.5187 57.3344 17.7491C56.2626 18.2175 55.1917 18.6879 54.1214 19.1599C52.7867 19.7473 51.4481 20.3247 50.106 20.895C49.913 20.977 49.72 21.0591 49.5212 21.1436C49.1375 21.3066 48.7538 21.4696 48.3701 21.6325C42.5927 24.0901 36.8569 26.643 31.1191 29.1912C30.6219 29.4119 30.1247 29.6326 29.6275 29.8533C26.8194 31.1 24.0119 32.348 21.205 33.5974C21.205 33.6883 21.205 33.7792 21.205 33.8728C35.8174 33.9104 50.4286 33.8649 65.0405 33.7523C65.2365 33.7508 65.4325 33.7493 65.6344 33.7478C70.6475 33.7092 75.6606 33.6687 80.6737 33.6275C83.5795 33.6037 86.4852 33.5803 89.391 33.5573C89.599 33.5557 89.8069 33.5541 90.0212 33.5524C91.0657 33.5441 92.1101 33.5359 93.1546 33.5276C101.668 33.4604 110.18 33.3917 118.693 33.322C117.931 32.5596 117.011 32.2376 116.035 31.8171C115.818 31.7221 115.6 31.6272 115.376 31.5293C114.652 31.2135 113.927 30.8994 113.203 30.5853C112.43 30.249 111.658 29.9122 110.886 29.5754C110.35 29.3416 109.814 29.1079 109.278 28.8743C107.467 28.085 105.66 27.2887 103.854 26.4867C97.8702 23.8288 91.8745 21.2024 85.8333 18.6764C84.6673 18.1877 83.5072 17.6886 82.3524 17.1739C81.5655 16.8247 80.7741 16.4858 79.9837 16.1445C79.5787 15.9571 79.5787 15.9571 79.1655 15.7658C78.4615 15.4687 77.8684 15.2331 77.1093 15.1462C76.4962 15.4011 76.0954 15.7079 75.602 16.1496C74.3036 17.3033 71.9766 17.4953 70.2955 17.429C68.3784 17.1835 66.8245 16.5708 65.2675 15.4216C64.1875 14.7526 63.6835 14.9613 62.5237 15.4588ZM4.95695 39.9314C3.99994 41.4895 3.54904 42.8703 3.53643 44.7021C3.53374 45.0007 3.53103 45.2992 3.52826 45.6068C3.52667 45.9342 3.52509 46.2617 3.52346 46.5991C3.52073 46.9466 3.51801 47.2941 3.5152 47.6522C3.50772 48.6145 3.50194 49.5769 3.49648 50.5392C3.49037 51.5699 3.48279 52.6005 3.47545 53.6311C3.45983 55.8682 3.44637 58.1054 3.43332 60.3425C3.42517 61.7368 3.41647 63.1311 3.4077 64.5254C3.33032 76.8886 3.27603 89.2517 3.27076 101.615C3.2702 102.634 3.26917 103.653 3.26803 104.672C3.26416 108.676 3.27132 112.68 3.29852 116.683C3.30266 117.302 3.3065 117.921 3.31003 118.539C3.32113 120.434 3.33837 122.328 3.36439 124.223C3.37177 124.811 3.3774 125.4 3.38112 125.988C3.38674 126.798 3.39919 127.607 3.41339 128.417C3.41363 128.652 3.41386 128.887 3.41409 129.129C3.47243 131.568 4.41233 133.496 6.05852 135.274C7.83043 136.862 9.619 137.454 11.959 137.454C12.1362 137.454 12.3134 137.454 12.496 137.455C13.089 137.455 13.6821 137.454 14.2751 137.453C14.6998 137.453 15.1245 137.453 15.5492 137.453C16.7057 137.453 17.8623 137.451 19.0188 137.449C19.7516 137.448 20.4845 137.447 21.2173 137.446C31.4677 137.437 41.7175 137.362 51.9675 137.269C53.7042 137.253 55.4409 137.237 57.1776 137.222C57.4305 137.22 57.6834 137.218 57.9439 137.215C58.4584 137.211 58.9728 137.206 59.4873 137.202C64.2262 137.16 68.965 137.118 73.7039 137.075C77.7488 137.038 81.7937 137.002 85.8386 136.967C90.592 136.926 95.3453 136.885 100.099 136.842C100.606 136.837 101.113 136.833 101.62 136.828C101.869 136.826 102.119 136.824 102.375 136.821C104.113 136.806 105.851 136.79 107.589 136.776C109.701 136.758 111.813 136.739 113.925 136.719C114.997 136.709 116.069 136.699 117.142 136.69C120.839 136.66 124.537 136.628 128.233 136.485C128.474 136.477 128.716 136.469 128.964 136.461C131.385 136.351 132.967 135.642 134.649 133.891C136.431 131.837 136.438 129.544 136.425 126.962C136.427 126.425 136.427 126.425 136.43 125.878C136.434 124.889 136.432 123.9 136.43 122.912C136.429 121.844 136.432 120.776 136.435 119.708C136.44 117.617 136.44 115.527 136.439 113.436C136.438 111.737 136.438 110.037 136.44 108.338C136.44 108.096 136.44 107.854 136.44 107.604C136.441 107.113 136.441 106.621 136.441 106.129C136.445 101.52 136.444 96.9105 136.441 92.3012C136.438 88.0861 136.441 83.8709 136.448 79.6557C136.455 75.3254 136.457 70.995 136.456 66.6646C136.455 64.2344 136.455 61.8041 136.46 59.3738C136.464 57.3051 136.464 55.2364 136.459 53.1676C136.457 52.1126 136.456 51.0576 136.461 50.0026C136.465 48.8579 136.461 47.7133 136.456 46.5686C136.459 46.2366 136.462 45.9045 136.464 45.5624C136.445 43.3446 136.063 41.6791 134.775 39.8572C134.631 39.717 134.487 39.5767 134.339 39.4323C134.199 39.2885 134.058 39.1447 133.914 38.9966C131.75 37.4655 129.711 37.2801 127.11 37.2556C126.717 37.2481 126.324 37.2404 125.931 37.2323C124.788 37.2106 123.644 37.1972 122.5 37.1856C121.685 37.1771 120.869 37.1673 120.054 37.1572C115.858 37.1063 111.661 37.0723 107.465 37.0424C106.116 37.0328 104.767 37.0227 103.418 37.0125C103.222 37.011 103.026 37.0095 102.824 37.008C102.425 37.0049 102.026 37.0019 101.627 36.9988C97.8988 36.9705 94.1705 36.9435 90.4421 36.9169C87.3365 36.8947 84.2308 36.8713 81.1252 36.8469C71.1567 36.7689 61.1882 36.7016 51.2195 36.6502C48.8743 36.6381 46.5291 36.6253 44.184 36.6104C43.8544 36.6084 43.8544 36.6084 43.5182 36.6062C43.2979 36.6048 43.0776 36.6035 42.8506 36.602C38.4678 36.5744 34.085 36.5516 29.7022 36.538C27.6317 36.5315 25.5613 36.5228 23.4908 36.508C21.5702 36.4943 19.6497 36.4877 17.7291 36.4859C17.0266 36.4841 16.3242 36.48 15.6219 36.4733C14.6617 36.4645 13.702 36.4644 12.7418 36.4663C12.4656 36.4618 12.1893 36.4572 11.9047 36.4525C9.05446 36.4774 6.70807 37.668 4.95695 39.9314Z" fill="#103255"/>
<path d="M43.1041 58.9474C45.0343 60.4642 46.3693 62.8501 46.8164 65.2674C47.0636 69.1281 46.6567 72.3936 44.0625 75.4568C41.8058 77.6828 39.0374 78.6117 35.9213 78.8304C32.515 78.7652 29.5481 77.5883 27.1777 75.147C25.1952 72.7753 24.2432 69.7226 24.5098 66.6443C24.9474 63.5449 26.0105 60.9746 28.4685 58.9506C32.9517 55.7604 38.6088 55.9231 43.1041 58.9474ZM28.759 63.4945C27.5308 65.0243 26.9337 66.9414 27.0324 68.8926C27.3582 71.099 28.016 73.1161 29.7422 74.6307C32.038 76.0171 34.1689 76.7084 36.8335 76.1141C39.0323 75.4209 40.6096 74.321 41.6884 72.249C42.6998 69.7328 42.6953 67.6877 41.6905 65.1706C40.7167 63.3107 39.2013 62.0754 37.2563 61.3248C34.0231 60.3576 31.162 61.1035 28.759 63.4945Z" fill="#103255"/>
<path d="M112.359 109.055C115.723 109.389 119.52 114.812 121.597 117.268C125.578 122.134 125.578 122.134 125.578 124.201C124.212 124.091 123.476 123.393 122.532 122.48C122.298 122.258 122.298 122.258 122.059 122.032C119.681 119.751 117.503 117.309 115.406 114.769C115.186 114.506 115.186 114.506 114.962 114.237C112.359 111.033 112.359 111.033 112.359 109.055Z" fill="#103255"/>
<path d="M114.838 104.924C115.627 104.858 116.075 104.833 116.748 105.272C116.916 105.433 117.084 105.595 117.257 105.762C117.542 106.033 117.542 106.033 117.833 106.309C118.131 106.603 118.131 106.603 118.435 106.903C118.642 107.103 118.848 107.303 119.061 107.508C126.107 114.376 126.107 114.376 126.404 117.041C126.268 117.314 126.268 117.314 126.129 117.592C124.755 117.486 124.059 116.78 123.138 115.839C122.987 115.689 122.836 115.538 122.68 115.383C122.361 115.063 122.042 114.741 121.725 114.418C121.249 113.935 120.769 113.456 120.288 112.979C115.078 107.762 115.078 107.762 114.838 104.924Z" fill="#103255"/>
</g>
<defs>
<clipPath id="clip0_1_25133">
<rect width="141" height="141" fill="white"/>
</clipPath>
</defs>
</svg>
