<svg width="165" height="165" viewBox="0 0 165 165" fill="none" xmlns="http://www.w3.org/2000/svg">
<path d="M138.432 65.7231C140.097 66.727 141.404 68.1074 142.12 69.9315C142.179 70.7622 142.2 71.5513 142.186 72.3812C142.184 72.6324 142.182 72.8836 142.18 73.1424C142.128 76.8426 141.908 80.5381 141.697 84.232C141.664 84.8097 141.664 84.8097 141.631 85.3991C140.783 100.267 139.821 113.611 129.229 125.039C128.995 125.303 128.76 125.566 128.519 125.838C126.095 128.548 123.512 131.099 120.926 133.652C119.386 135.177 117.883 136.713 116.476 138.362C115.897 139.034 115.28 139.666 114.667 140.306C112.409 142.886 111.958 145.675 111.545 148.987C111.511 149.242 111.477 149.497 111.443 149.759C111.415 149.987 111.388 150.214 111.36 150.449C111.114 151.406 110.844 151.98 110.215 152.754C109.318 152.91 108.616 152.955 107.719 152.932C107.466 152.931 107.212 152.931 106.951 152.931C106.111 152.928 105.273 152.914 104.433 152.9C103.851 152.896 103.269 152.893 102.686 152.891C101.153 152.883 99.6193 152.865 98.0858 152.846C95.9229 152.82 93.7599 152.807 91.5968 152.792C90.4444 152.784 89.2922 152.773 88.1398 152.759C87.6151 152.753 87.0904 152.748 86.5658 152.743C86.3255 152.739 86.0853 152.735 85.8377 152.732C84.612 152.699 84.612 152.699 83.4672 153.076C82.9975 153.114 82.5262 153.133 82.0551 153.142C81.7598 153.149 81.4645 153.155 81.1602 153.162C80.6752 153.17 80.6752 153.17 80.1803 153.178C79.843 153.185 79.5056 153.192 79.158 153.199C78.0499 153.22 76.9417 153.239 75.8335 153.257C75.4581 153.264 75.0826 153.27 74.6958 153.276C72.7745 153.308 70.8532 153.337 68.9319 153.365C67.2104 153.39 65.4893 153.422 63.768 153.458C62.6077 153.48 61.4474 153.495 60.2869 153.508C59.7506 153.515 59.2144 153.525 58.6783 153.538C57.9382 153.555 57.1988 153.563 56.4585 153.567C56.0471 153.573 55.6357 153.58 55.2117 153.586C53.8349 153.344 53.3699 152.886 52.5297 151.787C52.2989 151.059 52.2989 151.059 52.2515 150.319C52.2265 150.044 52.2015 149.768 52.1758 149.484C52.1416 149.049 52.1416 149.049 52.1067 148.605C51.3309 141.661 46.5762 136.435 41.375 132.066C40.8098 131.615 40.2446 131.164 39.6793 130.713C29.2968 122.218 25.0083 112.166 23.6252 99.0049C23.0074 92.5667 22.8108 86.1251 22.768 79.6594C22.7629 78.9523 22.756 78.2452 22.7469 77.5381C22.7354 76.5391 22.7328 75.5404 22.7327 74.5414C22.7281 74.244 22.7235 73.9467 22.7188 73.6404C22.7321 71.7142 23.0695 70.2473 24.1703 68.6424C25.8118 67.1182 26.8887 66.9207 29.0786 66.9379C30.3046 67.0659 30.9959 67.5046 31.9047 68.3201C32.7495 69.5874 32.8715 70.6802 32.8715 72.1873C33.191 72.5123 33.5136 72.8343 33.8383 73.1541C34.1336 73.7949 34.1336 73.7949 34.3834 74.5439C34.5283 74.9757 34.5283 74.9757 34.6761 75.4163C34.7785 75.7332 34.8809 76.0502 34.9863 76.3768C35.1514 76.8772 35.1514 76.8772 35.3199 77.3876C36.001 79.4891 36.6271 81.6013 37.2221 83.7285C37.2907 83.9729 37.3592 84.2173 37.4299 84.4691C37.7678 85.6764 38.1007 86.8846 38.4256 88.0954C39.6812 92.6935 41.4187 98.464 44.862 101.901C45.4398 102.48 45.4398 102.48 45.4398 103.125C45.6296 103.21 45.8193 103.294 46.0148 103.381C46.7622 103.787 47.2476 104.214 47.8417 104.819C48.0411 105.021 48.2405 105.222 48.446 105.43C48.6504 105.64 48.8547 105.849 49.0653 106.065C49.2747 106.278 49.4841 106.49 49.6998 106.709C50.2149 107.231 50.7284 107.756 51.2406 108.281C51.5569 108.16 51.5569 108.16 51.8796 108.036C54.0752 107.222 55.7943 107.188 58.0082 107.959C60.442 109.119 62.3975 110.909 64.3925 112.686C66.0915 114.186 67.8695 115.553 69.6903 116.902C71.9717 118.592 74.217 120.294 76.3773 122.138C76.6536 122.368 76.9298 122.597 77.2145 122.833C78.9882 124.353 80.3536 125.945 81.6645 127.879C82.1188 128.616 82.1188 128.616 82.8226 128.906C82.9024 128.675 82.9822 128.444 83.0643 128.206C84.8585 124.147 89.015 121.27 92.4306 118.624C94.1367 117.296 95.7332 115.867 97.3246 114.404C97.9604 113.844 98.5998 113.288 99.2406 112.734C99.7226 112.308 100.197 111.872 100.666 111.432C103.161 109.103 105.666 106.943 109.208 106.952C109.54 106.951 109.871 106.95 110.213 106.949C111.182 106.992 111.182 106.992 111.96 107.23C112.818 107.406 112.818 107.406 113.503 106.845C113.736 106.609 113.97 106.374 114.211 106.131C114.472 105.87 114.733 105.608 115.001 105.339C115.27 105.06 115.538 104.782 115.815 104.494C116.08 104.231 116.346 103.967 116.62 103.695C122.164 98.0542 123.228 90.8962 125.06 83.4666C125.259 82.6643 125.458 81.862 125.657 81.0597C125.754 80.6692 125.851 80.2786 125.95 79.8762C126.141 79.1079 126.332 78.3397 126.523 77.5716C126.918 75.983 127.31 74.3944 127.677 72.7991C127.76 72.4425 127.76 72.4425 127.846 72.0787C127.985 71.482 128.12 70.8843 128.255 70.2865C128.782 68.6874 129.614 67.3886 131.021 66.447C131.208 66.3186 131.395 66.1902 131.587 66.058C133.479 64.9558 136.417 64.9817 138.432 65.7231ZM26.4262 70.576C25.5906 73.0828 26.2325 76.0757 26.5067 78.6528C26.5729 79.2885 26.6391 79.9242 26.705 80.56C26.7521 81.0143 26.7994 81.4685 26.8469 81.9228C27.0347 83.7313 27.2073 85.5411 27.3766 87.3514C28.6451 105.012 28.6451 105.012 36.7387 120.205C37.0261 120.528 37.3127 120.853 37.5985 121.178C39.4429 123.258 41.4172 125.138 43.5062 126.972C44.9186 128.244 46.3103 129.538 47.6957 130.84C47.8646 130.997 48.0335 131.155 48.2076 131.317C53.5708 136.35 55.8629 140.95 57.6859 148.242C65.0239 148.242 72.3619 148.242 79.9223 148.242C79.9422 146.348 79.9621 144.453 79.9827 142.502C79.9915 141.911 80.0003 141.321 80.0094 140.713C80.0539 135.566 79.1753 131.631 75.5855 127.801C73.4093 125.601 71.1034 123.62 68.635 121.758C67.3731 120.803 66.1579 119.805 64.957 118.775C63.3033 117.357 61.6126 115.995 59.8915 114.659C59.0046 113.97 58.1297 113.273 57.2718 112.549C56.3013 111.697 56.3013 111.697 55.1078 111.504C54.0559 111.955 53.1595 112.48 52.2074 113.115C52.4582 114.745 53.3943 115.979 54.632 117.025C54.9352 117.237 55.2385 117.449 55.5509 117.667C58.7652 120 61.7141 122.633 64.6348 125.321C64.819 125.489 65.0032 125.658 65.1929 125.832C68.0855 128.523 68.0855 128.523 68.643 130.195C64.3066 130.713 61.3258 128.181 58.1045 125.65C57.7583 125.377 57.7583 125.377 57.4052 125.099C56.289 124.225 55.1497 123.432 53.9597 122.662C51.4394 121.013 49.0369 119.382 48.159 116.358C47.8317 114.613 48.2699 113.427 48.9848 111.826C46.7923 109.582 46.7923 109.582 44.4529 107.496C37.8768 101.81 36.678 93.4535 34.9119 85.4049C34.591 83.9458 34.2586 82.4897 33.9201 81.0345C33.8316 80.6498 33.7431 80.2651 33.6519 79.8687C33.4869 79.152 33.3199 78.4358 33.1504 77.7201C32.6723 75.619 32.4479 73.6356 32.4251 71.4781C32.1595 70.2689 31.6369 69.9418 30.6156 69.2869C28.8927 68.8432 27.644 69.2844 26.4262 70.576ZM133.741 70.8983C133.368 71.737 133.102 72.4979 132.854 73.3757C132.735 73.7842 132.735 73.7842 132.613 74.2009C131.75 77.2993 131.148 80.4557 130.518 83.6076C127.319 99.5915 127.319 99.5915 122.139 105.381C121.819 105.789 121.819 105.789 121.493 106.206C120.918 106.909 120.358 107.462 119.662 108.039C119.441 108.233 119.221 108.426 118.994 108.625C118.488 109.061 117.972 109.486 117.449 109.901C115.865 111.215 115.865 111.215 115.295 113.102C115.373 113.768 115.467 114.431 115.578 115.091C115.749 116.459 115.429 117.426 114.727 118.594C114.062 119.379 114.062 119.379 113.116 120.205C112.92 120.394 112.723 120.583 112.521 120.778C107.89 125.156 102.451 129.091 96.6801 131.806C96.6944 128.704 98.0951 127.162 100.185 125.019C101.228 124.003 102.307 123.035 103.41 122.084C104.431 121.201 105.433 120.297 106.432 119.389C107.073 118.812 107.717 118.242 108.368 117.677C108.722 117.365 109.076 117.053 109.43 116.741C109.599 116.596 109.768 116.452 109.942 116.303C110.946 115.409 111.404 114.792 111.504 113.437C111.167 113.156 110.823 112.882 110.477 112.612C110.286 112.458 110.096 112.305 109.899 112.147C109.011 111.709 108.564 111.837 107.637 112.148C107.087 112.532 107.087 112.532 106.59 113.055C105.303 114.238 103.931 115.238 102.501 116.237C102.265 116.402 102.03 116.567 101.787 116.736C101.298 117.077 100.809 117.418 100.319 117.758C93.4751 122.499 93.4751 122.499 87.0171 127.745C86.0453 128.584 86.0453 128.584 85.1742 129.201C84.3642 129.826 83.9374 130.252 83.4672 131.162C83.558 132.207 83.558 132.207 83.8763 133.364C84.639 136.796 84.6159 140.229 84.6555 143.73C84.6663 144.39 84.6774 145.05 84.6889 145.709C84.7159 147.305 84.7376 148.902 84.7562 150.498C87.176 150.524 89.5737 150.451 91.9883 150.298C92.3262 150.277 92.664 150.256 93.0121 150.235C93.7208 150.191 94.4295 150.147 95.1382 150.103C96.215 150.035 97.2919 149.969 98.3688 149.903C99.0618 149.86 99.7548 149.817 100.448 149.774C100.765 149.755 101.083 149.735 101.41 149.715C103.384 149.59 105.349 149.42 107.315 149.209C107.792 147.793 108.265 146.378 108.697 144.949C111.181 136.887 115.674 131.013 122.208 125.766C132.74 117.229 135.125 105.267 136.562 92.3377C136.992 87.9033 137.05 83.4415 137.094 78.9892C137.101 78.3239 137.11 77.6586 137.122 76.9934C137.137 76.0559 137.142 75.119 137.143 74.1813C137.15 73.8967 137.156 73.6121 137.162 73.3189C137.157 72.5833 137.141 71.9343 136.963 71.2205C135.734 70.1893 135.059 69.973 133.741 70.8983Z" fill="#103255"/>
<path d="M84.8361 27.7349C85.9917 28.549 86.7861 29.5103 87.656 30.6151C89.088 32.5474 89.088 32.5474 91.2009 33.5155C93.1655 33.5155 94.5344 32.677 96.2111 31.7028C97.8415 30.7889 99.3639 30.7473 101.191 30.9374C103.146 31.5077 104.682 32.721 105.703 34.4823C106.158 35.8649 106.297 37.2857 106.469 38.7259C106.516 39.0669 106.562 39.408 106.609 39.7594C106.645 40.0743 106.68 40.3892 106.716 40.7136C107.089 41.8755 107.564 42.2403 108.603 42.8612C109.572 43.0374 109.572 43.0374 110.597 43.0223C113.059 43.145 115.022 43.6518 116.942 45.2379C118.49 47.1506 119.355 48.6022 119.331 51.0664C119.123 52.8965 118.283 54.5513 117.345 56.1144C116.937 57.1563 116.897 57.8925 117.221 58.972C117.945 60.1264 119.121 60.6536 120.279 61.3197C122.016 62.4 123.125 63.796 123.75 65.7421C124.01 68.2715 124.102 70.7646 122.461 72.8319C121.369 73.9894 120.181 74.786 118.795 75.551C117.814 76.1524 117.659 76.2936 117.224 77.4242C117.329 79.0074 117.907 80.1237 118.593 81.5331C119.638 83.9203 119.854 85.9505 118.956 88.4366C118.011 90.393 116.656 91.5233 114.726 92.4901C113.297 92.9724 111.77 92.9153 110.276 92.9811C109.15 93.1492 108.534 93.4079 107.636 94.1014C106.854 95.1761 106.908 96.2464 106.871 97.5457C106.711 100.107 106.257 102.069 104.373 103.89C102.219 105.536 99.8484 105.905 97.2031 105.571C95.8698 105.271 94.4423 104.755 93.4567 103.769C91.7229 103.581 91.7229 103.581 90.1938 104.233C89.6539 104.971 89.1593 105.721 88.663 106.489C87.2592 108.615 85.7968 109.748 83.3318 110.395C80.9911 110.795 78.9918 110.205 77.0212 108.926C75.8567 107.96 75.1316 106.882 74.3222 105.622C73.5998 104.589 73.2845 104.153 72.1268 103.608C70.5241 103.818 69.33 104.461 67.9235 105.237C66.2053 106.134 64.3943 106.323 62.5029 105.865C59.766 104.925 58.0279 103.455 56.7185 100.869C56.2392 99.4312 56.2705 97.9767 56.196 96.4693C56.0852 95.4899 55.9731 94.9101 55.4294 94.1014C54.5719 93.6727 53.7396 93.6789 52.7962 93.604C49.5513 93.3312 47.5675 92.8417 45.3183 90.3954C43.7768 88.5697 43.4806 86.4402 43.5056 84.1112C43.7903 82.4765 44.325 81.0674 45.1975 79.6599C45.8309 78.7015 45.8309 78.7015 45.7614 77.7666C45.1283 76.3025 44.0292 75.6493 42.72 74.8259C40.7519 73.5408 39.4872 71.9416 38.9939 69.6092C38.7521 67.2249 38.9196 65.186 40.2829 63.1639C41.6246 61.6917 43.2147 60.6189 44.9344 59.6329C45.4939 59.3206 45.4939 59.3206 45.7614 58.6522C46.0236 56.9046 45.3568 55.774 44.5341 54.2903C43.5814 52.3195 43.591 50.227 44.2307 48.1584C45.0677 45.8759 46.247 44.4021 48.3396 43.1835C49.7093 42.7269 51.102 42.7593 52.5353 42.7227C53.9719 42.6585 54.9455 42.484 56.0739 41.5721C57.0339 40.2709 57.0347 38.4547 57.2314 36.8873C57.5516 34.777 58.3335 33.2742 60.0569 31.9759C62.3683 30.8542 64.101 30.4978 66.5677 31.3201C67.4098 31.7641 68.1428 32.2183 68.9243 32.7501C70.2951 33.6235 71.5279 33.9428 73.154 33.8378C74.0663 33.6101 74.8868 33.2793 75.7321 32.871C75.998 32.7447 76.2639 32.6184 76.5378 32.4883C76.6973 32.4019 76.8568 32.3155 77.0212 32.2264C76.9946 31.9473 76.968 31.6681 76.9406 31.3805C77.0435 29.9923 77.4016 29.4077 78.3103 28.3593C80.3647 27.1266 82.5611 26.9911 84.8361 27.7349ZM77.7866 31.5618C77.534 31.8875 77.2814 32.2131 77.0212 32.5487C76.4904 33.0921 75.9541 33.6301 75.4099 34.16C75.2636 34.3395 75.1174 34.519 74.9668 34.7039C73.6837 35.7402 72.2192 35.8356 70.6363 35.7311C69.4271 35.5824 68.4297 35.2664 67.3129 34.7844C65.7998 34.1393 64.8045 33.9139 63.1638 34.16C62.1938 34.7327 61.4198 35.392 60.9079 36.4159C60.8574 37.1202 60.819 37.8254 60.7871 38.5308C60.6256 40.9183 60.4047 42.8767 58.8535 44.7545C56.857 46.3707 55.2068 46.6625 52.7204 46.9632C51.155 47.1836 50.0585 47.405 48.9841 48.662C48.3733 50.6012 48.8953 51.7318 49.7696 53.4355C50.8628 55.7539 51.4529 57.5446 50.6785 60.0798C49.6373 62.7043 47.8015 64.0119 45.5059 65.5331C44.7215 66.0571 44.7215 66.0571 44.1501 67.0311C44.1019 68.146 44.1019 68.146 44.4724 69.287C45.1223 69.9369 45.6618 70.3906 46.406 70.8983C46.7063 71.1245 46.7063 71.1245 47.0127 71.3553C48.0482 72.2153 48.0482 72.2153 49.3064 72.5096C49.528 72.9359 49.7405 73.3668 49.9509 73.7987C50.1237 74.1177 50.2965 74.4368 50.4746 74.7655C51.4118 77.0099 51.1811 79.4915 50.3134 81.7144C49.925 82.5905 49.5192 83.3086 48.9841 84.1112C48.8138 85.4245 48.8523 86.1338 49.5078 87.2936C50.9907 88.2273 52.2707 88.1592 53.9956 88.2276C55.9825 88.3582 57.6793 88.978 59.1732 90.3576C60.7582 92.2113 61.297 94.024 61.3913 96.4379C61.4403 98.2707 61.4403 98.2707 62.2775 99.8418C63.2203 100.592 63.5947 100.789 64.7751 100.869C65.7584 100.502 65.7584 100.502 66.7288 99.9425C69.0797 98.6677 71.1985 98.1759 73.869 98.773C76.6749 99.7281 77.9403 101.472 79.4017 103.954C79.8986 104.811 79.8986 104.811 80.8884 105.381C81.8135 105.623 81.8135 105.623 82.822 105.381C83.7961 104.553 84.4934 103.495 85.2276 102.458C86.506 100.674 87.7655 99.3286 89.9118 98.6132C92.7608 98.2893 94.6228 98.7297 97.1112 100.11C98.2366 100.683 98.9877 100.824 100.224 100.547C101.236 100.047 101.236 100.047 101.836 98.9354C101.987 97.8903 102.04 96.862 102.085 95.8072C102.249 93.4262 102.991 91.5795 104.736 89.912C106.695 88.6944 108.365 88.2949 110.658 88.2201C112.46 88.0962 112.46 88.0962 114.021 87.2734C114.77 86.4349 114.77 86.4349 114.948 85.501C114.675 84.1877 114.14 83.1459 113.499 81.9737C112.492 79.9738 112.41 77.4421 113.002 75.2967C113.87 73.3735 115.322 72.1402 117.117 71.0846C118.576 70.2762 118.576 70.2762 119.528 68.971C119.705 67.9197 119.623 67.1631 119.169 66.2028C118.524 65.3257 118.005 65.003 117.043 64.5134C114.978 63.3382 113.847 61.9695 112.994 59.76C112.477 56.9169 113.073 54.4581 114.61 52.0093C115.248 50.8896 115.059 50.2032 114.726 48.9843C114.117 48.2372 113.65 47.8018 112.793 47.3729C112.135 47.3226 111.477 47.2842 110.819 47.2521C108.114 47.0525 106.357 46.4872 104.266 44.7596C102.746 42.8963 102.663 40.9363 102.661 38.6308C102.615 36.9956 102.22 36.068 101.191 34.8046C100.056 34.237 98.8853 34.3069 97.6462 34.4823C96.7983 34.8442 96.0083 35.2713 95.1977 35.7097C93.5263 36.5386 92.0398 36.534 90.2341 36.0936C87.4165 35.13 85.9071 33.2213 84.5378 30.6592C84.1214 29.8809 84.1214 29.8809 83.1442 29.326C80.7798 29.0532 79.3128 29.8538 77.7866 31.5618Z" fill="#103255"/>
<path d="M82.8222 44.4725C83.6279 44.976 83.6279 44.976 84.1113 45.7615C84.1919 46.97 84.1919 46.97 84.1113 48.0174C84.4303 48.1237 84.7494 48.2301 85.0781 48.3396C85.4695 49.0556 85.8032 49.7484 86.1255 50.4948C86.324 50.9343 86.5229 51.3737 86.7222 51.8128C86.8232 52.0379 86.9243 52.263 87.0284 52.495C87.5078 53.5596 87.9977 54.6182 88.5022 55.6712C88.7577 56.2171 88.7577 56.2171 89.0183 56.7739C89.7542 57.9475 90.5013 58.4451 91.8212 58.8356C92.9235 59.0643 94.0364 58.9931 95.1565 58.9719C95.6869 58.9663 96.2172 58.9608 96.7476 58.9555C97.58 58.9456 98.4123 58.9341 99.2446 58.9192C100.05 58.9055 100.856 58.898 101.662 58.8913C101.909 58.8853 102.156 58.8793 102.41 58.8731C103.963 58.8658 104.998 59.0913 106.348 59.9412C107.618 61.3491 107.99 62.1487 108.065 64.0451C107.849 65.5325 107.226 66.4946 106.129 67.5006C105.789 67.7511 105.449 68.0016 105.099 68.2597C104.916 68.3967 104.733 68.5338 104.545 68.675C103.599 69.3772 102.637 70.0474 101.652 70.6931C98.7111 72.5211 98.7111 72.5211 97.0019 75.41C96.6699 78.3145 97.9128 80.9226 98.8713 83.6183C99.7891 86.3118 100.654 88.9965 99.3585 91.6844C98.1247 93.0183 97.2674 93.5116 95.451 93.5978C92.7868 93.663 90.7474 91.8914 88.8244 90.2543C86.7114 88.5166 84.7289 86.931 81.9562 86.508C79.4216 86.9384 77.3597 88.8915 75.3699 90.4155C74.8056 90.8463 74.2408 91.2764 73.6754 91.7058C73.4282 91.895 73.181 92.0843 72.9263 92.2793C70.9103 93.7338 69.5097 94.1071 67.0312 93.7791C65.5967 93.0749 64.7145 92.1873 63.8086 90.8787C62.7414 87.6772 64.2975 84.6642 65.3557 81.6469C66.0897 79.4812 66.6144 77.7012 66.3867 75.41C65.9488 74.6363 65.9488 74.6363 65.4199 74.1209C65.4199 73.9082 65.4199 73.6955 65.4199 73.4764C65.231 73.3854 65.042 73.2945 64.8474 73.2008C61.6183 71.5379 56.7638 68.7294 55.3692 65.2787C54.9709 63.7202 55.1655 62.3929 55.7519 60.908C56.5959 59.5215 57.4498 58.8745 58.9746 58.3299C61.6146 57.8387 64.2777 58.0377 66.9363 58.2553C69.1094 58.4078 71.1444 58.3658 73.0134 57.1465C73.943 56.2585 74.3238 55.4744 74.8273 54.294C74.9149 54.093 75.0026 53.892 75.0929 53.6848C75.3707 53.0462 75.6425 52.4052 75.9137 51.7637C76.1869 51.125 76.4613 50.4868 76.7379 49.8495C76.9889 49.27 77.236 48.6888 77.4829 48.1075C78.6966 45.569 79.8049 43.9928 82.8222 44.4725ZM81.3548 46.7624C80.7362 47.5725 80.5548 48.3192 80.2983 49.3052C80.1938 49.6917 80.0893 50.0783 79.9816 50.4765C79.7702 51.2829 79.5596 52.0894 79.3497 52.8961C77.5425 59.5676 77.5425 59.5676 74.9469 61.4317C71.6031 63.3289 67.8447 63.2143 64.1071 63.1521C62.8873 63.1371 61.7713 63.1886 60.5859 63.4861C61.6962 64.7074 62.9665 65.5442 64.3323 66.447C70.8047 70.8302 70.8047 70.8302 71.7217 74.5174C72.3236 78.2824 70.7662 82.1316 69.5753 85.6513C69.4918 85.9024 69.4083 86.1536 69.3223 86.4123C69.2458 86.6367 69.1693 86.8612 69.0904 87.0924C68.8957 87.6872 68.8957 87.6872 69.2871 88.3006C69.4392 88.1855 69.5913 88.0704 69.748 87.9518C78.6677 81.2442 78.6677 81.2442 83.1445 81.533C86.7549 82.249 89.5204 84.3043 92.3402 86.5515C93.2135 87.2443 94.043 87.8548 95.0683 88.3006C94.6311 86.1142 94.0271 83.9969 93.3812 81.8648C92.5028 78.9463 91.7834 75.7203 93.0932 72.813C95.2695 69.0703 99.4021 66.6411 102.981 64.3686C103.372 64.0913 103.372 64.0913 103.77 63.8084C103.77 63.5957 103.77 63.383 103.77 63.1639C102.497 62.8649 101.305 62.7975 99.9993 62.785C99.5828 62.7773 99.1663 62.7696 98.7373 62.7617C98.0833 62.7504 97.4295 62.7409 96.7754 62.7366C93.6585 62.7118 91.0448 62.4998 88.4569 60.6512C85.0546 56.8199 84.3173 51.6114 83.4668 46.7283C82.3636 46.3514 82.3636 46.3514 81.3548 46.7624Z" fill="#103255"/>
<path d="M65.7419 12.2462C68.1149 12.088 68.1149 12.088 68.986 12.7598C70.6151 14.787 71.9605 17.9994 71.865 20.6251C71.2963 21.5467 70.8996 22.0746 69.9314 22.5587C68.8264 22.6788 68.2339 22.74 67.3356 22.0501C65.57 19.8519 65.2654 16.2881 65.3429 13.5591C65.4197 12.8907 65.4197 12.8907 65.7419 12.2462Z" fill="#103255"/>
<path d="M137.608 51.5623C137.989 52.5886 137.962 53.082 137.594 54.1203C136.817 55.3366 135.954 55.788 134.667 56.3359C134.451 56.4311 134.234 56.5263 134.011 56.6245C132.391 57.3102 131.011 57.8004 129.229 57.6854C128.242 57.0408 128.242 57.0408 127.617 56.074C127.436 54.926 127.436 54.926 127.617 53.8182C129.366 51.5369 134.957 50.2369 137.608 51.5623Z" fill="#103255"/>
<path d="M43.5059 26.7481C44.2276 27.1491 44.7923 27.5391 45.4395 28.0371C46.003 28.4204 46.567 28.803 47.1313 29.1852C48.1134 29.8533 48.6396 30.2592 49.3066 31.2598C49.4561 32.6045 49.4515 33.2859 48.7225 34.4422C48.0176 35.127 48.0176 35.127 47.0508 35.4492C44.4651 34.638 42.4056 32.7953 40.895 30.5649C40.3889 29.5263 40.3435 28.5385 40.2832 27.3926C41.4932 26.586 42.071 26.6021 43.5059 26.7481Z" fill="#103255"/>
<path d="M34.7644 52.3278C35.7715 52.8515 35.7715 52.8515 36.416 53.8183C36.585 54.7004 36.5981 55.5156 36.416 56.3964C35.5309 57.1586 34.6573 57.4952 33.5156 57.6855C30.8511 57.3026 27.7292 56.4107 25.7812 54.4628C25.8512 53.5531 25.9797 53.0092 26.5466 52.2876C28.4314 50.8378 32.6183 51.5741 34.7644 52.3278Z" fill="#103255"/>
<path d="M122.46 26.1035C123.262 27.3055 123.362 28.2563 123.105 29.6484C122.645 30.5874 122.044 31.3717 121.393 32.1863C121.151 32.5066 121.151 32.5066 120.905 32.8333C120.169 33.7926 119.613 34.447 118.593 35.127C117.291 35.2717 116.555 35.2429 115.391 34.6234C114.726 33.8379 114.726 33.8379 114.484 32.7905C115 30.2115 117.533 28.2917 119.56 26.748C120.692 26.1563 121.152 26.1035 122.46 26.1035Z" fill="#103255"/>
<path d="M96.1766 11.6016C97.3074 12.0429 97.6561 12.4984 98.2914 13.5352C98.4252 14.5085 98.355 15.4393 98.2713 16.4154C98.2582 16.6686 98.2451 16.9218 98.2317 17.1827C98.1234 18.7419 97.8593 19.9235 97.0024 21.2695C95.9559 21.9672 95.7527 21.9951 94.5652 21.8738C94.3123 21.853 94.0593 21.8322 93.7986 21.8108C93.1352 21.5918 93.1352 21.5918 92.7236 21.0908C92.0766 18.9018 92.5812 17.0882 93.397 15.0458C93.4812 14.8196 93.5653 14.5934 93.652 14.3603C94.7171 11.6016 94.7171 11.6016 96.1766 11.6016Z" fill="#103255"/>
</svg>
