<svg width="110" height="110" viewBox="0 0 110 110" fill="none" xmlns="http://www.w3.org/2000/svg">
<path d="M61.1566 40.6455C63.3587 42.3485 64.8186 44.7369 65.3125 47.4803C65.6321 50.5846 65.1715 53.3819 63.164 55.8592C62.6826 56.3838 62.1812 56.8782 61.6601 57.3631C61.5183 57.5049 61.3765 57.6467 61.2304 57.7928C61.5007 57.8138 61.771 57.8349 62.0495 57.8565C66.122 58.2001 70.3267 58.7471 73.2533 61.9344C78.9036 69.479 80.5857 80.9178 82.0703 90.0193C82.1098 90.2449 82.1494 90.4705 82.1901 90.7029C82.5398 92.9316 82.6072 95.4942 81.2906 97.4012C79.7947 99.2507 78.047 100 75.7148 100.285C71.6871 100.543 67.8138 99.2951 64.7242 96.698C63.728 95.7792 62.9122 94.8868 62.3046 93.6717C55.073 93.5653 55.073 93.5653 47.6953 93.4568C47.5535 93.8113 47.4117 94.1658 47.2656 94.5311C45.238 97.2491 42.1223 99.2853 38.7994 100.015C35.6896 100.424 32.805 100.299 29.9707 98.8816C28.596 97.6445 27.9657 96.0651 27.8424 94.2289C27.7321 90.6535 28.4456 87.2559 29.2187 83.7889C29.2692 83.5576 29.3197 83.3264 29.3717 83.0882C33.5768 63.9873 33.5768 63.9873 38.9832 60.0621C41.6416 58.4336 44.9053 58.0611 47.9638 57.8381C48.3628 57.8114 48.3628 57.8114 48.7695 57.5779C48.6474 57.4943 48.5252 57.4106 48.3994 57.3245C46.3099 55.8105 44.9688 53.9049 44.4726 51.3475C44.1151 48.1441 44.8432 45.2923 46.7738 42.6874C50.3535 38.3552 56.4881 37.6141 61.1566 40.6455ZM50.0585 44.4725C48.5357 46.201 47.7612 48.0129 47.8354 50.3236C48.1637 52.935 50.0365 55.0845 51.9921 56.7185C52.8829 57.2381 53.7842 57.5588 54.7851 57.7928C54.7851 58.0055 54.7851 58.2182 54.7851 58.4373C54.9978 58.5436 54.9978 58.5436 55.2148 58.6521C55.2148 58.5103 55.2148 58.3685 55.2148 58.2225C55.381 58.1754 55.5471 58.1283 55.7183 58.0798C58.2356 57.3134 60.0667 56.0179 61.3882 53.7023C62.3733 51.7743 62.8942 50.1153 62.3726 47.9427C61.5705 45.5763 60.4061 44.0029 58.2226 42.7537C55.2499 41.391 52.3718 42.3532 50.0585 44.4725ZM38.9194 63.4299C33.9202 69.8444 32.238 81.2563 31.1523 89.16C31.1243 89.3544 31.0964 89.5488 31.0675 89.7491C30.9315 90.8552 30.9043 91.9673 30.8837 93.0809C30.8768 93.2982 30.8768 93.2982 30.8697 93.5199C30.8621 94.6831 31.1292 95.5654 31.9445 96.4109C34.2239 97.643 37.1308 97.0838 39.5329 96.4613C42.2595 95.5643 43.9142 93.3743 45.3874 91.0121C45.8049 90.6237 46.0707 90.5569 46.6101 90.3961C47.311 90.153 47.6094 89.9568 47.9395 89.2875C48.0567 88.9968 48.1676 88.7034 48.2727 88.408C48.395 88.0974 48.5175 87.7869 48.6402 87.4765C48.6981 87.3242 48.7559 87.1719 48.8154 87.0151C49.0475 86.4197 49.3163 85.8438 49.5886 85.2659C50.4284 83.4218 50.4284 83.4218 50.2734 81.4256C50.0124 81.0426 50.0124 81.0426 49.6289 80.781C48.3573 80.6455 47.1946 81.0986 46.1914 81.8553C44.7913 82.9885 43.5631 84.2698 42.3668 85.6112C40.7714 87.3878 40.7714 87.3878 39.6252 87.5486C38.8867 87.4412 38.8867 87.4412 38.3496 87.1324C37.8634 86.3018 38.0554 85.5534 38.2421 84.6482C38.5288 83.7035 38.8769 82.7881 39.2358 81.8687C39.3247 81.629 39.4136 81.3893 39.5052 81.1423C40.2114 79.3103 41.0544 77.3793 42.7539 76.2693C42.9666 76.1984 43.1793 76.1275 43.3984 76.0545C43.2566 77.4016 43.1148 78.7486 42.9687 80.1365C43.3808 79.8507 43.3808 79.8507 43.8012 79.5591C44.6968 78.9597 45.6137 78.4678 46.5858 78.0049C47.0943 77.7637 47.0943 77.7637 47.6953 77.3435C47.6667 77.2159 47.6382 77.0882 47.6088 76.9567C47.5519 76.6895 47.5519 76.6895 47.4939 76.417C47.4378 76.1591 47.4378 76.1591 47.3806 75.8959C47.0592 73.9375 47.0008 71.9664 46.9836 69.9851C46.9743 69.6204 46.9743 69.6204 46.9647 69.2483C46.9538 67.8123 47.0289 66.8974 47.9101 65.742C50.0331 64.139 52.9054 64.3787 55.441 64.3851C56.0081 64.3858 56.575 64.3807 57.1421 64.3753C57.5076 64.3748 57.8731 64.3747 58.2386 64.3749C58.4056 64.3729 58.5725 64.3709 58.7446 64.3689C59.9239 64.3787 60.7889 64.6367 61.875 65.0975C62.0877 65.1684 62.3003 65.2393 62.5195 65.3123C63.5408 66.9343 63.4532 68.7042 63.446 70.5491C63.446 70.6932 63.4459 70.8372 63.4459 70.9857C63.4422 73.1825 63.246 75.2087 62.7343 77.3435C62.7343 77.5562 62.7343 77.7689 62.7343 77.9881C62.849 78.0352 62.9636 78.0822 63.0818 78.1307C64.3991 78.6914 65.6039 79.3772 66.8164 80.1365C66.8294 79.8958 66.8424 79.6552 66.8558 79.4072C66.8739 79.0908 66.8921 78.7744 66.9104 78.458C66.9188 78.2995 66.9272 78.1409 66.936 77.9776C66.9762 77.294 67.0285 76.7073 67.246 76.0545C67.9347 76.2769 68.1158 76.5009 68.5049 77.127C68.6435 77.4035 68.7787 77.6817 68.9111 77.9612C68.9837 78.1103 69.0562 78.2594 69.131 78.4129C71.9259 84.2697 71.9259 84.2697 71.7578 86.5818C71.437 87.0882 71.18 87.1986 70.6298 87.4278C69.6014 87.4511 68.8914 86.8962 68.1499 86.2419C67.5333 85.6389 66.9706 85.0083 66.427 84.3394C65.2003 82.8864 63.5357 81.3783 61.5829 81.152C60.8648 81.1201 60.8648 81.1201 60.1562 81.2107C59.6791 81.9264 59.6778 82.2287 59.8074 83.0586C60.0832 84.1196 60.5952 85.0812 61.0827 86.0581C61.1873 86.2735 61.2918 86.4888 61.3995 86.7107C62.5302 89.1231 62.5302 89.1231 64.4531 90.8787C65.0573 91.4964 65.6134 92.1532 66.1718 92.8123C68.1042 95.0841 70.0183 96.3425 73.0468 96.6795C75.5188 96.8694 75.5188 96.8694 77.7734 96.035C78.3384 95.4548 78.6102 95.1142 78.729 94.305C78.6772 92.4878 78.5337 90.7056 78.2836 88.9048C78.2454 88.6263 78.2071 88.3477 78.1676 88.0607C77.2953 81.9078 75.5567 75.9416 73.5705 70.0657C73.4997 69.8535 73.4997 69.8535 73.4276 69.6371C72.31 66.302 71.1922 63.2776 67.9711 61.4988C66.5668 60.8576 65.0947 60.4946 63.5937 60.156C63.2859 60.0861 63.2859 60.0861 62.9718 60.0146C59.4056 59.2035 59.4056 59.2035 55.7679 59.065C55.2297 59.0814 54.8722 58.9967 54.3554 58.867C49.1116 58.512 42.6801 59.4313 38.9194 63.4299ZM49.8326 68.1385C49.6081 68.8121 49.5364 69.3625 49.5189 70.0724C49.5113 70.3278 49.5037 70.5831 49.4958 70.8462C49.491 71.1115 49.4862 71.3768 49.4812 71.6502C49.4738 71.9089 49.4665 72.1675 49.4589 72.434C49.4139 74.1422 49.406 75.8497 49.414 77.5584C49.5658 77.6089 49.7175 77.6594 49.8738 77.7114C51.2249 78.1737 52.089 78.7006 52.8515 79.9217C53.6215 81.6016 53.2584 83.0831 52.708 84.7733C51.9901 86.6154 50.9346 88.1247 49.6289 89.5896C49.6289 89.7314 49.6289 89.8732 49.6289 90.0193C53.3865 90.0193 57.1441 90.0193 61.0156 90.0193C60.5902 89.523 60.1648 89.0267 59.7265 88.5154C58.1735 86.3407 56.8643 84.1881 56.9335 81.4256C57.1029 80.461 57.3661 79.7296 58.0212 78.9952C58.5973 78.6642 59.1492 78.4229 59.766 78.1803C59.9597 78.1038 60.1534 78.0273 60.353 77.9485C60.5007 77.8906 60.6485 77.8328 60.8007 77.7732C60.7888 77.6537 60.777 77.5341 60.7647 77.4109C60.7084 76.8381 60.6537 76.265 60.5993 75.6919C60.5791 75.4809 60.5588 75.2699 60.5379 75.0525C60.4371 73.9542 60.3571 72.8611 60.3249 71.7584C60.3186 71.5552 60.3124 71.352 60.306 71.1426C60.2958 70.7536 60.2891 70.3645 60.2863 69.9753C60.2793 69.7102 60.2793 69.7102 60.272 69.4396C60.2703 69.2852 60.2685 69.1308 60.2667 68.9717C60.0958 68.2962 59.8719 68.0739 59.2968 67.6756C58.6188 67.546 57.9504 67.55 57.2617 67.5539C56.9654 67.5519 56.9654 67.5519 56.6631 67.5499C56.2461 67.5483 55.8291 67.549 55.4122 67.5517C54.7731 67.5547 54.1347 67.5474 53.4956 67.5392C53.0904 67.539 52.6852 67.5394 52.28 67.5405C52.0886 67.5376 51.8973 67.5348 51.7001 67.5318C50.6432 67.526 50.6432 67.526 49.8326 68.1385Z" fill="#103255"/>
<path d="M69.6714 9.68666C69.9306 9.69336 69.9306 9.69336 70.195 9.70019C70.7607 9.71512 71.3264 9.73185 71.892 9.74876C72.2868 9.75993 72.6815 9.77101 73.0762 9.78202C73.6829 9.79897 74.2897 9.81605 74.8963 9.83365C76.2192 9.87162 77.542 9.90039 78.8652 9.92332C87.6145 10.084 87.6145 10.084 90.0195 11.6018C90.4147 12.0315 90.4148 12.0315 90.6506 12.4612C90.7731 12.6739 90.7731 12.6739 90.8981 12.8909C91.2941 13.7609 91.349 14.5866 91.3921 15.5367C91.405 15.8125 91.4179 16.0883 91.4311 16.3725C91.4443 16.6744 91.4574 16.9764 91.4705 17.2784C91.4846 17.5923 91.4988 17.9063 91.5129 18.2203C91.5426 18.8812 91.5716 19.5423 91.6001 20.2033C91.629 20.8708 91.6588 21.5383 91.6895 22.2057C91.8354 25.3755 91.9785 28.5466 92.0127 31.7199C92.0169 31.9205 92.0211 32.1211 92.0255 32.3277C92.0302 34.2651 91.5722 35.8273 90.2192 37.242C88.4684 38.7447 85.5357 38.7327 83.356 38.6385C83.211 38.6331 83.066 38.6277 82.9166 38.6222C82.3229 38.599 81.73 38.5746 81.1372 38.5336C79.2654 38.4025 79.2654 38.4025 77.5665 39.0976C77.0132 39.6438 76.5321 40.2074 76.0546 40.8205C75.7942 41.1152 75.5324 41.4088 75.2691 41.7009C75.0293 41.9801 74.7898 42.2595 74.5507 42.5393C74.0198 43.1493 73.4817 43.7521 72.9394 44.352C72.7379 44.5836 72.7379 44.5836 72.5324 44.8199C71.8633 45.5534 71.4902 45.9317 70.514 46.2034C69.7211 46.1899 69.3664 46.0366 68.7499 45.5471C68.4361 44.9193 68.5112 44.3657 68.5141 43.6655C68.5144 43.5231 68.5147 43.3806 68.515 43.2339C68.5162 42.7785 68.5189 42.3232 68.5217 41.8679C68.5227 41.5593 68.5237 41.2508 68.5246 40.9422C68.527 40.1855 68.5307 39.4288 68.5351 38.6721C68.3906 38.6619 68.2461 38.6517 68.0972 38.6412C67.9061 38.6253 67.7149 38.6095 67.5179 38.5932C67.3291 38.5786 67.1403 38.5639 66.9458 38.5488C65.5207 38.3154 64.5425 37.3414 63.6424 36.2753C62.9364 35.2141 62.8872 34.2132 62.8936 32.9686C62.8928 32.7861 62.8921 32.6036 62.8913 32.4155C62.8894 31.813 62.8906 31.2105 62.8921 30.6079C62.8918 30.1869 62.8914 29.7659 62.8908 29.3449C62.8902 28.462 62.8911 27.579 62.8931 26.6961C62.8956 25.5704 62.8942 24.4448 62.8916 23.3192C62.89 22.449 62.8905 21.5788 62.8917 20.7086C62.8919 20.294 62.8916 19.8793 62.8906 19.4647C62.8781 12.852 62.8781 12.852 64.5429 11.0588C66.0549 9.71778 67.7311 9.6251 69.6714 9.68666ZM85.9374 10.7424C85.7956 10.8842 85.6538 11.026 85.5078 11.1721C84.6603 11.3516 83.7911 11.4095 82.9296 11.4944C82.5254 11.5357 82.5254 11.5357 82.1131 11.5778C79.2132 11.8609 76.3034 11.9799 73.3926 12.0885C69.6169 12.0162 69.6169 12.0162 66.3867 13.5354C65.0977 15.5122 65.7305 19.4074 65.7849 21.7095C65.7928 22.0686 65.8007 22.4277 65.8086 22.7868C65.8253 23.5314 65.8435 24.276 65.8623 25.0205C65.8861 25.974 65.9047 26.9275 65.922 27.8811C65.9364 28.6192 65.9544 29.3571 65.9736 30.095C65.982 30.4469 65.9891 30.7988 65.9948 31.1507C66.0031 31.6402 66.0166 32.1292 66.0314 32.6185C66.041 33.0352 66.041 33.0352 66.0507 33.4603C66.1914 34.2737 66.3792 34.5295 67.0312 35.0198C67.9159 35.3147 68.8029 35.3097 69.7276 35.3458C70.5092 35.3867 70.8761 35.4346 71.5429 35.8791C71.8088 36.6768 71.8343 37.4503 71.8786 38.2827C71.8879 38.4437 71.8972 38.6048 71.9067 38.7707C71.9295 39.1675 71.9511 39.5643 71.9726 39.9612C73.0122 38.9394 73.9962 37.8693 74.9812 36.7952C75.1744 36.5864 75.1744 36.5864 75.3715 36.3734C75.4873 36.2475 75.6031 36.1216 75.7224 35.9919C76.3594 35.3638 76.793 35.1809 77.6625 35.1729C77.954 35.1686 77.954 35.1686 78.2514 35.1642C78.4609 35.1631 78.6704 35.1619 78.8862 35.1607C79.1021 35.1576 79.318 35.1545 79.5404 35.1512C80.2315 35.1412 80.9226 35.1339 81.6137 35.1272C82.5218 35.1183 83.4298 35.1068 84.3379 35.0936C84.5465 35.0925 84.7551 35.0913 84.97 35.0902C86.137 35.073 87.0803 35.0426 88.0322 34.2947C88.5575 33.6117 88.5438 32.8411 88.5529 32.0054C88.5558 31.7899 88.5587 31.5743 88.5616 31.3522C88.5639 31.1191 88.5661 30.8859 88.5684 30.6457C88.5755 30.1433 88.5827 29.6408 88.5898 29.1384C88.5999 28.3533 88.6094 27.5682 88.618 26.7831C88.6515 23.8637 88.7266 20.9676 89.0134 18.0606C89.3823 15.0576 89.3823 15.0576 88.5156 12.2463C88.1085 11.7903 87.7443 11.5173 87.2265 11.1721C87.0138 11.1721 86.8011 11.1721 86.582 11.1721C86.582 11.0303 86.582 10.8885 86.582 10.7424C86.3693 10.7424 86.1566 10.7424 85.9374 10.7424Z" fill="#103255"/>
<path d="M45.2954 11.3037C45.3962 11.4242 45.497 11.5446 45.6008 11.6688C45.7039 11.7876 45.8069 11.9064 45.913 12.0288C46.5043 12.9459 46.675 13.9017 46.7075 14.9769C46.7154 15.2153 46.7233 15.4538 46.7315 15.6995C46.7378 15.9571 46.7441 16.2147 46.7506 16.4801C46.7585 16.7527 46.7664 17.0254 46.7745 17.3063C46.8551 20.2071 46.8975 23.1089 46.9095 26.0107C46.9127 26.809 46.9183 27.607 46.929 28.4052C46.9397 29.1981 46.9449 29.9908 46.9465 30.7838C46.9479 31.0801 46.9511 31.3763 46.9563 31.6725C46.9901 33.7005 46.8081 35.4032 45.3743 36.9387C44.2621 37.967 43.186 38.315 41.6799 38.4571C41.5381 38.3862 41.3963 38.3153 41.2502 38.2423C41.2559 38.446 41.2615 38.6498 41.2673 38.8597C41.2856 39.6173 41.2991 40.3746 41.3093 41.1324C41.3146 41.46 41.322 41.7876 41.3313 42.1151C41.3443 42.5866 41.3504 43.0578 41.3552 43.5294C41.3608 43.8129 41.3664 44.0965 41.3722 44.3886C41.2502 45.1173 41.2502 45.1173 40.7515 45.6436C40.176 45.9766 40.176 45.9766 39.4576 46.0177C38.3814 45.667 37.8206 45.0603 37.0608 44.2444C36.9185 44.0969 36.7763 43.9494 36.6297 43.7974C35.9462 43.0841 35.277 42.3596 34.6304 41.6126C34.5275 41.4966 34.4246 41.3805 34.3186 41.261C33.9456 40.8204 33.9456 40.8204 33.5635 40.2763C32.9225 39.4762 32.3535 38.8038 31.3371 38.5629C30.0242 38.4207 28.7081 38.5059 27.3928 38.5779C26.6119 38.6101 25.8309 38.6363 25.0497 38.6594C24.865 38.6653 24.6804 38.6713 24.4902 38.6774C22.6038 38.7179 21.0463 38.3785 19.551 37.168C18.1726 35.6365 18.0205 34.2177 18.0186 32.188C18.0183 32.0425 18.018 31.8969 18.0177 31.747C18.0172 31.2713 18.0186 30.7956 18.0203 30.3199C18.0206 30.1556 18.0209 29.9913 18.0213 29.8221C18.0582 14.1567 18.0582 14.1567 19.8783 12.0892C20.8594 11.235 21.497 11.1287 22.7737 11.1719C23.1337 11.2332 23.493 11.3008 23.8479 11.3868C23.8479 11.3159 23.8479 11.245 23.8479 11.1719C25.2189 11.0216 26.5901 10.8727 27.9615 10.7248C28.4263 10.6745 28.8911 10.6238 29.3558 10.5729C42.7982 9.10005 42.7982 9.10005 45.2954 11.3037ZM21.6995 12.461C20.1304 14.571 20.8973 18.1405 21.0281 20.6251C21.0714 21.4866 21.1134 22.3482 21.1548 23.2099C21.1652 23.4255 21.1757 23.6411 21.1864 23.8632C21.2525 25.2746 21.2974 26.685 21.3243 28.0976C21.328 28.2767 21.3316 28.4559 21.3354 28.6404C21.352 29.4808 21.3651 30.3211 21.3733 31.1616C21.3787 31.4607 21.3842 31.7597 21.3898 32.0588C21.3927 32.3157 21.3956 32.5725 21.3985 32.8372C21.4938 33.588 21.676 33.989 22.1292 34.5899C22.8147 35.0469 22.987 35.0733 23.7731 35.0745C23.9753 35.076 24.1776 35.0775 24.3859 35.079C24.6041 35.0788 24.8224 35.0786 25.0472 35.0783C25.5092 35.0827 25.9712 35.0872 26.4332 35.0918C27.1616 35.0966 27.8899 35.1002 28.6184 35.1014C29.3214 35.1035 30.0242 35.1107 30.7271 35.1186C30.944 35.1175 31.1609 35.1165 31.3844 35.1153C33.0867 35.1391 33.922 35.5676 35.1138 36.7921C35.2384 36.92 35.363 37.048 35.4914 37.1798C36.0327 37.7632 36.5519 38.3642 37.065 38.9724C37.3676 39.3403 37.3676 39.3403 37.8127 39.5313C37.8285 39.1973 37.8285 39.1973 37.8446 38.8566C37.8608 38.5623 37.877 38.268 37.8933 37.9737C37.9 37.8272 37.9066 37.6807 37.9135 37.5297C37.959 36.7471 38.0061 36.105 38.4573 35.4493C39.2674 35.0442 40.2536 35.1453 41.147 35.101C42.0446 35.0033 42.6839 34.8935 43.3144 34.2221C43.6901 33.6048 43.7053 33.2003 43.7235 32.4792C43.735 32.083 43.735 32.083 43.7467 31.6787C43.7517 31.3824 43.7566 31.0861 43.7612 30.7899C43.7681 30.4785 43.775 30.1671 43.7821 29.8557C43.8052 28.7125 43.8175 27.5692 43.8284 26.4258C43.8319 26.0585 43.8319 26.0585 43.8355 25.6838C43.8504 24.0349 43.8604 22.3862 43.8658 20.7373C43.8677 20.179 43.8702 19.6208 43.8732 19.0625C43.8771 18.2702 43.8779 17.478 43.8779 16.6857C43.8794 16.4454 43.8809 16.2051 43.8825 15.9576C43.8819 15.7358 43.8812 15.514 43.8806 15.2855C43.8809 15.0919 43.8812 14.8983 43.8815 14.6989C43.822 14.1179 43.7323 13.8001 43.3987 13.3204C42.5914 12.6977 41.9696 12.5908 40.963 12.5701C40.6915 12.5629 40.42 12.5557 40.1403 12.5483C39.8442 12.5435 39.5481 12.5388 39.252 12.534C38.9432 12.5266 38.6343 12.519 38.3255 12.511C37.5099 12.4905 36.6942 12.4735 35.8785 12.4575C34.5912 12.4318 33.3041 12.4024 32.0169 12.3709C31.7023 12.3633 31.3876 12.3559 31.073 12.3489C28.8115 12.2971 26.57 12.1733 24.3221 11.9024C22.9 11.7426 22.9 11.7426 21.6995 12.461Z" fill="#103255"/>
<path d="M83.6128 41.6484C83.7596 41.6503 83.9064 41.6521 84.0576 41.6541C84.375 41.6584 84.6923 41.6637 85.0096 41.67C85.5181 41.6796 86.0266 41.6857 86.5352 41.6909C94.1301 41.7764 94.1301 41.7764 97.1362 42.1897C97.3149 42.2142 97.4936 42.2386 97.6776 42.2638C99.3273 42.5263 100.632 43.0812 101.836 44.2576C102.532 45.5509 102.527 47.0758 102.595 48.5142C102.605 48.7003 102.614 48.8864 102.624 49.0781C102.818 53.0719 102.96 57.0664 102.986 61.0651C102.989 61.4945 102.994 61.9239 103 62.3533C103.007 62.9559 103.009 63.5582 103.009 64.1608C103.012 64.3363 103.015 64.5119 103.018 64.6927C103.007 66.1372 102.62 67.442 101.666 68.5534C99.1779 70.3007 96.3324 70.2869 93.3941 70.2973C92.9869 70.2991 92.9869 70.2991 92.5714 70.301C91.9988 70.303 91.4263 70.3045 90.8537 70.3053C90.1288 70.3064 89.4041 70.3116 88.6792 70.3177C87.9771 70.3228 87.2749 70.3231 86.5728 70.3242C86.1893 70.3281 86.1893 70.3281 85.798 70.3322C83.5729 70.3264 80.9281 70.2442 79.18 68.6977C77.5825 66.8824 77.5175 64.0126 77.5813 61.696C77.6294 61.1072 77.6959 60.5266 77.7734 59.9412C77.5889 59.8877 77.5889 59.8877 77.4007 59.8332C75.8716 59.3832 74.3633 58.8831 72.8589 58.3567C72.5 58.2362 72.5 58.2362 72.1338 58.1133C71.789 57.992 71.789 57.992 71.4372 57.8683C71.127 57.7613 71.127 57.7613 70.8104 57.6523C70.1308 57.2991 69.8058 56.9311 69.3945 56.2888C69.4068 55.5757 69.4235 55.0465 69.8448 54.4536C70.449 53.991 71.1297 53.7916 71.8451 53.5605C72 53.5089 72.1549 53.4574 72.3146 53.4043C72.6415 53.296 72.9687 53.1886 73.2962 53.0821C73.7977 52.9188 74.2981 52.7525 74.7984 52.5857C75.1164 52.4808 75.4344 52.376 75.7526 52.2714C75.9023 52.2217 76.052 52.1721 76.2063 52.1209C76.8271 51.92 77.3312 51.7771 77.9883 51.7771C77.9849 51.558 77.9849 51.558 77.9815 51.3345C77.9724 50.6629 77.9669 49.9914 77.9614 49.3198C77.9578 49.0901 77.9542 48.8604 77.9505 48.6237C77.9373 46.4651 78.1348 44.7037 79.4922 42.9685C80.6582 41.8024 82.0131 41.6217 83.6128 41.6484ZM95.8282 43.0691C95.0138 43.2818 94.1803 43.3332 93.3437 43.4057C93.0516 43.4327 93.0516 43.4327 92.7535 43.4602C92.3421 43.4978 91.9305 43.5348 91.519 43.5711C90.9008 43.6257 90.2829 43.6823 89.665 43.7393C87.5749 43.9297 85.4888 44.0951 83.3919 44.1885C82.4345 44.2862 81.9402 44.4918 81.2109 45.1169C80.7622 45.9774 80.7333 46.6994 80.7468 47.6607C80.7492 47.9422 80.7515 48.2237 80.754 48.5137C80.7584 48.8093 80.7631 49.1048 80.7678 49.4004C80.7757 49.9797 80.7817 50.5591 80.7871 51.1384C80.7929 51.5231 80.7929 51.5231 80.7988 51.9155C80.782 52.6071 80.6982 53.2473 80.5664 53.9255C80.4437 53.9596 80.321 53.9937 80.1946 54.0288C78.6349 54.4776 77.1331 55.0463 75.625 55.6443C76.1512 55.9951 76.52 56.1872 77.1012 56.3904C77.26 56.4462 77.4189 56.502 77.5825 56.5595C77.7474 56.6164 77.9124 56.6733 78.0823 56.7319C78.3284 56.8186 78.3284 56.8186 78.5795 56.9069C79.3093 57.1616 80.0288 57.3989 80.7812 57.5779C81.1117 59.0609 80.9996 60.5743 80.9688 62.0833C80.8797 64.3923 80.8797 64.3923 81.8286 66.3865C82.7465 66.8184 83.5519 66.8404 84.5627 66.8311C84.7736 66.8295 84.7736 66.8295 84.9886 66.8279C85.4521 66.8242 85.9155 66.8186 86.3789 66.8128C86.7022 66.8092 87.0254 66.8056 87.3486 66.8021C88.0259 66.7942 88.7031 66.7854 89.3804 66.776C90.2462 66.7642 91.1121 66.7563 91.9781 66.7494C92.6457 66.7434 93.3133 66.7346 93.9808 66.725C94.3 66.7209 94.6191 66.7178 94.9383 66.7158C95.3857 66.7127 95.8328 66.7056 96.2801 66.6976C96.6612 66.6931 96.6612 66.6931 97.05 66.6884C97.8447 66.5901 98.3631 66.3752 99.043 65.9568C99.4859 65.2925 99.5276 65.1407 99.5378 64.3872C99.5413 64.2003 99.5449 64.0134 99.5486 63.8209C99.5504 63.6182 99.5522 63.4155 99.5541 63.2066C99.5577 62.9946 99.5614 62.7826 99.5651 62.5642C99.5765 61.8823 99.5852 61.2005 99.5935 60.5186C99.6062 59.6331 99.6201 58.7478 99.6346 57.8624C99.6382 57.643 99.6418 57.4235 99.6455 57.1974C99.6728 55.6775 99.7203 54.1594 99.7874 52.6407C99.7995 52.3576 99.7995 52.3576 99.8118 52.0688C99.8611 51.0314 99.9446 50.005 100.069 48.9739C100.271 47.2105 100.372 45.5131 99.2578 44.0427C98.1852 42.9701 97.2756 42.6249 95.8282 43.0691Z" fill="#103255"/>
<path d="M30.3146 43.1258C31.9625 44.8246 31.8684 46.9569 31.9309 49.2127C31.9392 49.4602 31.9475 49.7076 31.9561 49.9626C31.9762 50.5675 31.9946 51.1724 32.0115 51.7774C32.2348 51.8499 32.4581 51.9224 32.6881 51.997C33.5189 52.2677 34.3482 52.5431 35.177 52.8199C35.5354 52.9389 35.8942 53.0566 36.2535 53.173C36.7709 53.3409 37.2866 53.5133 37.8022 53.6867C37.9622 53.7375 38.1223 53.7884 38.2872 53.8408C39.2667 54.1762 39.8439 54.5 40.3904 55.4298C40.2964 56.1012 40.2964 56.1012 39.9607 56.7188C39.1455 57.2936 38.2605 57.6203 37.3247 57.9433C37.1784 57.9948 37.0321 58.0464 36.8813 58.0995C36.4177 58.2625 35.9535 58.4239 35.4893 58.5853C35.1733 58.6961 34.8573 58.807 34.5414 58.918C33.7701 59.1888 32.9984 59.4581 32.2263 59.7266C32.2232 59.8988 32.2201 60.0709 32.2168 60.2482C32.2007 61.0368 32.18 61.8251 32.1592 62.6136C32.1543 62.8843 32.1495 63.155 32.1445 63.434C32.0827 65.5863 31.9162 67.4136 30.2927 68.9649C28.5156 70.0694 26.8509 70.101 24.8008 70.16C24.6544 70.1643 24.508 70.1687 24.3572 70.1731C21.7478 70.2481 19.1375 70.2887 16.5271 70.3037C16.1193 70.3063 15.7115 70.3101 15.3038 70.3149C14.7256 70.3214 14.1475 70.3235 13.5693 70.3245C13.399 70.3271 13.2287 70.3298 13.0533 70.3325C11.4865 70.3264 9.92562 69.9967 8.74122 68.9112C8.60912 68.7949 8.47701 68.6786 8.34091 68.5587C6.97379 66.9779 6.96765 65.6921 6.99058 63.6509C6.99109 63.3587 6.99129 63.0664 6.99118 62.7742C6.99185 62.1602 6.99539 61.5462 7.00118 60.9322C7.00834 60.1641 7.01008 59.396 7.00985 58.6279C7.01006 55.6209 7.06697 52.6261 7.28263 49.6256C7.30745 49.2763 7.30745 49.2763 7.33276 48.9198C7.64727 45.0198 7.64727 45.0198 9.0232 43.6134C10.0439 42.9102 10.8312 42.8721 12.031 42.9688C12.5681 43.1837 12.5681 43.1837 12.8904 43.3985C13.1031 43.2567 13.3158 43.1149 13.5349 42.9688C14.0057 42.8677 14.0057 42.8677 14.5613 42.801C14.7707 42.7755 14.9802 42.7499 15.196 42.7236C15.5369 42.6855 15.5369 42.6855 15.8848 42.6466C16.1207 42.6193 16.3566 42.5921 16.5996 42.5641C18.4219 42.3614 20.2464 42.2034 22.075 42.0692C22.3173 42.0512 22.5596 42.0332 22.8092 42.0146C28.4936 41.6263 28.4936 41.6263 30.3146 43.1258ZM10.742 44.4727C9.95813 45.453 9.7802 46.0712 9.82147 47.3188C9.82516 47.4677 9.82885 47.6165 9.83266 47.7699C9.84108 48.0862 9.85152 48.4024 9.86384 48.7186C9.88217 49.1889 9.89518 49.659 9.90653 50.1295C9.93152 51.1121 9.96539 52.0943 10.0009 53.0766C10.0072 53.2525 10.0135 53.4284 10.02 53.6096C10.0534 54.5356 10.0876 55.4616 10.1225 56.3875C10.1511 57.1501 10.1779 57.9126 10.2031 58.6753C10.2338 59.6043 10.2675 60.5332 10.3034 61.4621C10.3165 61.8139 10.3286 62.1658 10.3396 62.5177C10.3551 63.0072 10.3745 63.4963 10.3948 63.9855C10.4048 64.2633 10.4148 64.5411 10.4251 64.8273C10.5319 65.5602 10.6473 65.8736 11.1716 66.3868C11.9162 66.635 12.5031 66.6335 13.2889 66.6397C13.5122 66.6418 13.5122 66.6418 13.7401 66.6439C14.2326 66.6482 14.7251 66.6507 15.2176 66.6528C15.386 66.6537 15.5545 66.6546 15.7281 66.6555C16.6197 66.66 17.5113 66.663 18.4029 66.6651C19.3226 66.6674 20.2422 66.6748 21.1618 66.6834C21.8701 66.689 22.5784 66.6908 23.2868 66.6915C23.6257 66.6926 23.9647 66.6951 24.3036 66.6991C24.7787 66.7043 25.2536 66.7041 25.7288 66.7026C26.1338 66.7045 26.1338 66.7045 26.547 66.7064C27.4221 66.5822 27.8892 66.2906 28.574 65.7423C28.9253 65.0166 28.7991 64.1719 28.7796 63.3798C28.7748 63.084 28.7702 62.7882 28.7657 62.4923C28.7578 62.0288 28.7485 61.5655 28.7358 61.1021C28.7241 60.6528 28.7178 60.2037 28.7125 59.7543C28.7037 59.3524 28.7037 59.3524 28.6947 58.9424C28.8073 58.0813 29.0277 57.7466 29.6482 57.1485C30.1008 56.9082 30.1008 56.9082 30.5781 56.7616C30.7498 56.7069 30.9215 56.6522 31.0984 56.5959C31.3643 56.5172 31.3643 56.5172 31.6355 56.4368C31.8161 56.3802 31.9966 56.3236 32.1827 56.2652C32.6259 56.1267 33.0705 55.9926 33.5154 55.8595C33.5154 55.7177 33.5154 55.5759 33.5154 55.4298C33.2592 55.3442 33.003 55.2586 32.7391 55.1704C32.4025 55.0556 32.066 54.9406 31.7295 54.8255C31.5607 54.7694 31.3919 54.7134 31.218 54.6556C31.0553 54.5995 30.8926 54.5434 30.7249 54.4856C30.5753 54.435 30.4257 54.3844 30.2715 54.3322C29.6662 54.0484 29.314 53.7432 29.0707 53.1138C28.9819 52.4816 28.9919 51.8736 29.0054 51.2353C29.0107 50.8265 29.0107 50.8265 29.0163 50.4095C29.0251 49.837 29.0369 49.2648 29.0498 48.6924C29.0529 48.4193 29.0559 48.1463 29.0591 47.8649C29.0638 47.6161 29.0685 47.3673 29.0734 47.111C28.9937 46.306 28.7833 45.8027 28.3591 45.1173C27.6104 44.6181 26.9877 44.5467 26.1175 44.4526C25.8766 44.4255 25.8766 44.4255 25.6308 44.3979C23.4923 44.1761 21.3467 44.1701 19.1989 44.1437C18.6511 44.1363 18.1034 44.1271 17.5557 44.1169C17.3791 44.114 17.2026 44.1111 17.0207 44.108C15.5736 44.0724 14.1808 43.8816 12.7583 43.6197C11.8089 43.6114 11.4549 43.8575 10.742 44.4727Z" fill="#103255"/>
<path d="M32.2267 14.7705C32.8713 14.8242 32.8713 14.8242 33.301 15.2539C33.301 15.5375 33.301 15.8211 33.301 16.1133C33.4206 16.2285 33.5402 16.3437 33.6635 16.4624C34.2968 17.1129 34.5951 17.8179 34.9668 18.6394C35.2208 19.183 35.2208 19.183 35.8791 19.5508C36.3573 19.5995 36.3573 19.5995 36.8836 19.5701C37.0793 19.5658 37.275 19.5615 37.4766 19.5571C37.8861 19.544 38.2957 19.53 38.7052 19.5151C39.8689 19.4913 40.6748 19.5306 41.6799 20.1953C42.1517 20.7492 42.113 21.1229 42.1498 21.8604C41.9871 22.9355 41.2864 23.4479 40.4814 24.1137C39.9611 24.4922 39.9611 24.4922 39.3871 24.8237C38.832 25.1234 38.832 25.1234 38.4572 25.7812C38.4754 26.1973 38.4754 26.1973 38.6049 26.6406C38.6467 26.8109 38.6886 26.9813 38.7316 27.1568C38.8389 27.5422 38.9541 27.9254 39.0757 28.3065C39.4903 29.6431 39.6748 30.4904 39.1017 31.7969C38.3967 32.4851 38.0037 32.6465 37.0204 32.6965C35.7687 32.4694 34.7528 31.6525 33.7306 30.9375C33.1311 30.4475 33.1311 30.4475 32.4802 30.528C31.6516 30.7641 31.1932 31.1376 30.5348 31.6895C29.4693 32.5176 28.8573 32.9647 27.5002 32.8711C26.6096 32.5518 26.013 32.2129 25.5666 31.3672C25.3156 30.214 25.4038 29.4485 25.768 28.3325C26.2299 27.0752 26.2299 27.0752 26.2111 25.7812C25.7264 25.3773 25.2781 25.0514 24.7475 24.7205C23.69 24.0554 22.9931 23.5754 22.5588 22.3437C22.4718 21.3811 22.6571 20.6058 23.1496 19.7791C24.3821 18.6492 25.77 18.8797 27.334 18.9419C27.5113 18.9459 27.6885 18.9499 27.8711 18.9541C28.1123 18.9633 28.1123 18.9633 28.3584 18.9726C28.9191 18.8863 29.083 18.6991 29.4338 18.2617C29.7354 17.7593 30.0251 17.2577 30.3066 16.7444C31.3542 14.8432 31.3542 14.8432 32.2267 14.7705ZM32.4416 17.1875C32.3895 17.3742 32.3375 17.5608 32.2838 17.7531C31.4185 20.7285 31.4185 20.7285 30.2394 21.6455C29.4803 21.9906 28.7443 22.1643 27.9299 22.3437C28.0154 22.4349 28.101 22.526 28.1892 22.6199C29.6485 24.2354 29.9683 25.5681 29.8635 27.7148C30.1027 27.6085 30.342 27.5021 30.5886 27.3926C32.3138 26.7525 33.802 26.9827 35.4494 27.7148C35.4394 27.5642 35.4295 27.4135 35.4192 27.2583C35.3656 25.8508 35.4409 24.7782 36.3088 23.6328C36.694 23.255 37.0868 22.9156 37.5139 22.5863C37.6125 22.5063 37.7111 22.4262 37.8127 22.3437C37.8127 22.2729 37.8127 22.202 37.8127 22.1289C37.6235 22.0923 37.4344 22.0558 37.2395 22.0181C36.99 21.9661 36.7404 21.914 36.4833 21.8604C36.2366 21.8105 35.9898 21.7607 35.7356 21.7093C34.8377 21.4272 34.1942 21.0554 33.7147 20.2255C33.6712 20.0915 33.6277 19.9574 33.5829 19.8193C33.5342 19.672 33.4855 19.5247 33.4352 19.3729C33.2267 18.6482 33.0418 17.9222 32.8713 17.1875C32.7295 17.1875 32.5877 17.1875 32.4416 17.1875Z" fill="#103255"/>
<path d="M96.0354 49.6291C97.3024 50.9083 97.8156 51.9129 97.8347 53.7514C97.8079 56.7418 96.2426 58.8158 94.2369 60.9008C93.0297 62.0243 91.9023 62.7904 90.2749 63.1105C88.423 63.0052 86.7209 61.0629 85.5089 59.8031C83.8909 57.9013 82.8216 55.5958 82.9299 53.0666C83.2341 51.7191 83.9665 50.7806 85.0322 49.9253C86.012 49.3153 86.9752 49.1528 88.113 49.2665C88.3168 49.3153 88.5207 49.364 88.7307 49.4142C89.6623 49.6344 90.1956 49.7176 91.0134 49.2263C91.2527 49.0756 91.4919 48.9249 91.7385 48.7697C93.259 48.2495 94.8315 48.6125 96.0354 49.6291ZM86.3447 51.1087C85.6807 51.8494 85.4781 52.5067 85.508 53.4963C85.988 55.886 87.6069 57.9232 89.59 59.2971C89.9963 59.524 89.9963 59.524 90.4494 59.5119C92.1547 58.4265 93.6572 56.6168 94.2713 54.6804C94.4202 53.8118 94.3421 53.3446 94.0078 52.516C93.4815 51.9121 93.4815 51.9121 92.6247 51.8849C92.0414 51.9271 91.6173 52.0327 91.0537 52.2206C90.3502 52.4551 90.072 52.4455 89.3752 52.2072C88.9489 51.7163 88.9489 51.7163 88.5695 51.1196C88.34 50.7638 88.1082 50.4096 87.8713 50.0588C87.3069 50.0588 86.7377 50.7553 86.3447 51.1087Z" fill="#103255"/>
<path d="M71.9829 15.6074C73.0744 15.7056 73.7018 16.101 74.6047 16.6909C74.7712 16.7964 74.9377 16.9019 75.1093 17.0106C75.6426 17.3514 76.1715 17.6982 76.6994 18.0471C76.8739 18.1619 77.0484 18.2767 77.2282 18.395C79.0282 19.5866 80.796 20.8168 82.5002 22.1425C82.6226 22.2372 82.7449 22.332 82.8709 22.4296C83.4892 22.9211 83.9955 23.4037 84.4338 24.0627C83.4375 25.1043 82.4017 26.0284 81.2514 26.896C81.0948 27.0148 80.9381 27.1336 80.7767 27.2561C79.0387 28.56 77.2409 29.7683 75.4104 30.9377C75.2786 31.0227 75.1468 31.1076 75.011 31.1951C72.7536 32.6381 72.7536 32.6381 71.5432 32.4416C70.8573 31.8937 70.5097 31.5711 70.3355 30.699C70.3359 30.4489 70.3363 30.1988 70.3368 29.9411C70.335 29.7329 70.335 29.7329 70.3332 29.5204C70.3306 29.0639 70.3358 28.6079 70.3414 28.1514C70.3418 27.8328 70.3418 27.5142 70.3414 27.1956C70.3417 26.5288 70.3457 25.8621 70.3525 25.1953C70.361 24.3421 70.362 23.4891 70.3604 22.6359C70.3597 21.9782 70.3623 21.3206 70.366 20.663C70.3675 20.3485 70.3682 20.0339 70.368 19.7194C70.3684 19.2792 70.373 18.8393 70.3788 18.3991C70.3806 18.149 70.3824 17.8989 70.3842 17.6413C70.5196 16.5733 70.8788 15.7362 71.9829 15.6074ZM73.6916 19.7658C73.6853 20.6476 73.6815 21.5293 73.6782 22.4111C73.6764 22.6577 73.6746 22.9043 73.6727 23.1584C73.6684 24.6903 73.7352 26.1925 73.9065 27.715C74.1053 27.6292 74.1053 27.6292 74.3082 27.5417C77.356 26.2328 80.4102 25.0581 83.5744 24.0627C82.958 23.6517 82.4044 23.4014 81.7189 23.127C81.4765 23.0293 81.2341 22.9316 80.9844 22.831C80.7269 22.7279 80.4694 22.6247 80.2041 22.5185C78.0168 21.6359 75.8435 20.7314 73.6916 19.7658Z" fill="#103255"/>
<path d="M20.1819 54.5462C20.7719 54.8646 20.8622 55.1503 21.0681 55.779C21.1433 56.0905 21.2131 56.4035 21.2696 56.719C20.302 57.4446 19.6457 57.4563 18.4766 57.3635C17.9395 57.1486 17.9395 57.1486 17.6172 56.9338C17.5904 55.5105 17.5904 55.5105 17.8321 54.7854C18.6423 54.2351 19.2653 54.3246 20.1819 54.5462Z" fill="#103255"/>
<path d="M25.5666 54.5704C26.1037 55.1613 26.1037 55.1613 26.426 55.8595C26.3646 56.7803 26.3646 56.7803 25.9963 57.1486C25.5715 57.1698 25.146 57.1764 24.7207 57.1754C24.3721 57.1763 24.3721 57.1763 24.0166 57.1771C23.4182 57.1486 23.4182 57.1486 22.9885 56.9337C22.6686 55.6295 22.6686 55.6295 23.0422 54.9196C23.8312 54.1869 24.5818 54.3113 25.5666 54.5704Z" fill="#103255"/>
<path d="M15.0391 54.5705C15.6081 55.2124 15.8775 55.6186 15.9522 56.4772C15.9345 56.6279 15.9168 56.7786 15.8985 56.9338C15.3118 57.2271 14.8338 57.1771 14.1798 57.1755C13.8341 57.1763 13.8341 57.1763 13.4815 57.1772C12.8907 57.1486 12.8907 57.1486 12.461 56.9338C12.2339 56.1652 12.1857 55.7809 12.5147 55.0405C13.2277 54.1492 14.0116 54.3001 15.0391 54.5705Z" fill="#103255"/>
</svg>
