<svg width="113" height="113" viewBox="0 0 113 113" fill="none" xmlns="http://www.w3.org/2000/svg">
<path d="M8.80902 16.0817C9.11974 16.0886 9.11974 16.0886 9.43673 16.0957C9.6603 16.1032 9.88387 16.1106 10.1142 16.1183C10.3527 16.1243 10.5912 16.1303 10.837 16.1366C11.6255 16.1571 12.4138 16.1811 13.2022 16.2051C13.7539 16.2202 14.3055 16.2351 14.8571 16.2499C16.0152 16.2814 17.1733 16.3143 18.3313 16.3486C19.8039 16.3921 21.2765 16.4331 22.7491 16.4732C24.1648 16.5118 25.5805 16.5514 26.9962 16.5913C27.261 16.5987 27.5258 16.6061 27.7987 16.6138C36.9025 16.8713 36.9025 16.8713 39.6504 17.2741C39.9413 17.3146 39.9413 17.3146 40.2381 17.3559C40.6401 17.4123 41.042 17.4696 41.4437 17.5278C42.0431 17.6146 42.6429 17.6978 43.2429 17.7806C45.2316 18.0598 47.2088 18.379 49.1794 18.7664C49.445 18.818 49.445 18.818 49.716 18.8707C54.7536 19.8945 58.9288 22.1959 61.8104 26.4567C65.3017 31.7611 66.0297 37.9295 66.0192 44.1619C66.0194 44.4805 66.0196 44.799 66.0199 45.1176C66.0202 45.7826 66.0197 46.4475 66.0187 47.1125C66.0175 47.9525 66.0182 48.7925 66.0195 49.6325C66.0203 50.2902 66.02 50.9478 66.0195 51.6055C66.0193 51.9146 66.0195 52.2236 66.02 52.5326C66.0231 54.8926 65.9186 57.2351 65.7692 59.5896C65.9645 59.5886 66.1597 59.5877 66.3609 59.5866C68.2422 59.5776 70.1235 59.571 72.0048 59.5667C72.971 59.5645 73.9371 59.5614 74.9033 59.5563C78.9981 59.5352 83.0837 59.5619 87.174 59.7707C87.3403 59.7783 87.5067 59.786 87.678 59.7939C90.0656 59.9077 92.4356 60.0551 94.2399 61.7966C97.3804 65.5514 97.7534 69.5211 97.8919 74.2155C97.8964 74.3664 97.901 74.5173 97.9057 74.6727C98.0121 78.2438 98.0407 81.8149 98.0449 85.3874C98.0461 86.281 98.0515 87.1747 98.0577 88.0683C98.0618 88.7721 98.063 89.476 98.0633 90.1798C98.064 90.5095 98.0657 90.8391 98.0686 91.1688C98.0936 94.1639 97.8889 96.9498 95.8711 99.286C91.507 103.641 81.7017 102.452 76.0871 102.447C75.6891 102.447 75.6891 102.447 75.2831 102.447C71.405 102.445 67.5336 102.373 63.6588 102.213C63.4433 102.204 63.2278 102.196 63.0057 102.187C61.7794 102.136 60.5541 102.075 59.329 102.002C58.8978 101.976 58.4666 101.952 58.0353 101.928C57.3555 101.89 56.6764 101.844 55.9971 101.797C55.7925 101.787 55.588 101.776 55.3773 101.765C53.738 101.638 52.15 101.193 50.9931 99.9617C49.5915 98.1644 49.4152 96.4918 49.3131 94.2676C49.3035 94.0736 49.294 93.8795 49.2842 93.6796C49.2609 93.2043 49.2386 92.729 49.2165 92.2537C43.1264 91.8523 37.0408 91.7571 30.9395 91.7571C30.7519 91.7571 30.5643 91.7571 30.371 91.7571C24.5404 91.7593 18.7226 91.8682 12.8974 92.1276C12.0801 92.1639 11.2627 92.1982 10.4452 92.2317C9.98278 92.2515 9.52054 92.2748 9.05833 92.2985C8.82152 92.3065 8.58471 92.3144 8.34072 92.3226C8.15158 92.3309 7.96244 92.3391 7.76757 92.3476C7.07531 92.2134 6.84009 91.9135 6.40009 91.3709C6.29044 90.7815 6.29044 90.7815 6.29146 90.0938C6.2897 89.8314 6.28794 89.569 6.28613 89.2987C6.2887 89.0101 6.29128 88.7216 6.29393 88.4243C6.29354 88.1149 6.29277 87.8056 6.29164 87.4962C6.28966 86.6451 6.2932 85.7941 6.29762 84.943C6.30143 84.0256 6.30015 83.1082 6.29948 82.1908C6.29901 80.601 6.30179 79.0113 6.30675 77.4215C6.31392 75.1229 6.31622 72.8243 6.31733 70.5258C6.31926 66.7966 6.32514 63.0675 6.33349 59.3384C6.34159 55.7156 6.34784 52.0927 6.35159 48.4699C6.35182 48.2466 6.35206 48.0234 6.3523 47.7933C6.35345 46.6734 6.35456 45.5534 6.35566 44.4335C6.36482 35.1398 6.38037 25.8461 6.40009 16.5525C7.24173 16.2605 7.91605 16.0566 8.80902 16.0817ZM8.82782 18.7595C8.83054 18.8861 8.83326 19.0127 8.83606 19.1431C9.01168 27.4026 9.08009 35.6576 9.07138 43.919C9.06975 45.5086 9.06946 47.0982 9.06921 48.6878C9.06874 51.5193 9.06729 54.3509 9.06517 57.1824C9.06313 59.9224 9.06158 62.6625 9.06065 65.4025C9.06059 65.5733 9.06053 65.744 9.06047 65.9199C9.06018 66.777 9.05991 67.634 9.05963 68.4911C9.05737 75.5292 9.05348 82.5672 9.04852 89.6052C9.53675 89.6065 10.025 89.6074 10.5132 89.6082C10.7851 89.6087 11.057 89.6093 11.3371 89.6099C12.253 89.6046 13.1651 89.5696 14.0799 89.5281C18.9934 89.3096 23.9125 89.3511 28.8296 89.3558C30.1603 89.357 31.4909 89.3563 32.8216 89.355C38.2902 89.3506 43.7526 89.3582 49.2165 89.6052C49.2155 89.3992 49.2145 89.1932 49.2135 88.981C49.2044 87.0051 49.1979 85.0293 49.1936 83.0535C49.1914 82.0385 49.1883 81.0236 49.1832 80.0087C49.1638 76.0312 49.157 72.0592 49.3975 68.0875C49.4129 67.8154 49.4283 67.5432 49.4441 67.2628C49.5862 65.2233 49.8 63.219 51.2597 61.6794C52.6562 60.502 54.1866 60.2518 55.9652 60.1491C56.2394 60.1319 56.5137 60.1147 56.7963 60.097C57.3744 60.062 57.9526 60.0281 58.5309 59.9952C58.804 59.9777 59.0771 59.9602 59.3585 59.9422C59.7346 59.9201 59.7346 59.9201 60.1182 59.8974C60.4028 59.8543 60.4028 59.8543 60.6931 59.8103C61.0133 59.1699 61.019 58.5038 61.0802 57.7998C61.1018 57.5556 61.1018 57.5556 61.1239 57.3065C61.7612 49.9114 62.2082 42.2167 60.9138 34.8709C60.8735 34.6396 60.8333 34.4083 60.7919 34.1701C59.9691 29.1782 59.9691 29.1782 57.3825 24.9392C56.759 24.6275 56.3104 24.6677 55.6169 24.7185C53.6135 25.4991 51.9449 26.8233 50.2976 28.1713C49.1256 29.1237 49.1256 29.1237 48.3889 29.174C46.5005 28.484 45.6433 26.0808 44.7365 24.4115C43.3345 21.8252 43.3345 21.8252 41.0505 20.0838C38.9085 19.6271 36.7241 19.5193 34.5432 19.4096C34.3729 19.4006 34.2025 19.3915 34.027 19.3823C30.1968 19.1796 26.3647 19.0634 22.5306 18.966C21.8371 18.948 21.1436 18.9287 20.45 18.9093C19.7603 18.8902 19.0706 18.8718 18.3809 18.8537C18.0624 18.8452 17.744 18.8366 17.4256 18.8278C15.4015 18.7723 13.379 18.755 11.3541 18.7574C11.1103 18.7576 10.8665 18.7577 10.6153 18.7579C10.0195 18.7583 9.42364 18.7588 8.82782 18.7595ZM52.9684 63.5623C51.9699 64.7341 51.9103 65.8088 51.8236 67.3142C51.8083 67.5202 51.7931 67.7262 51.7774 67.9384C51.725 68.6864 51.6838 69.4345 51.6442 70.1834C51.6349 70.3538 51.6255 70.5243 51.6159 70.7C51.4426 73.9081 51.3793 77.1094 51.3821 80.3219C51.3821 80.5581 51.3821 80.7942 51.3821 81.0375C51.3847 84.3297 51.4482 87.6139 51.6166 90.9019C51.6253 91.0773 51.6339 91.2528 51.6429 91.4335C51.6848 94.8437 51.6848 94.8437 52.6926 98.0058C53.8662 99.0164 54.9803 99.2104 56.4687 99.2972C56.6569 99.3104 56.8451 99.3236 57.039 99.3372C57.6499 99.3791 58.261 99.4168 58.8723 99.4541C59.2975 99.4818 59.7228 99.5096 60.1481 99.5376C61.3594 99.6158 62.5711 99.6878 63.7829 99.7576C64.2057 99.7824 64.2057 99.7824 64.637 99.8077C71.7083 100.203 78.7947 100.065 85.8532 99.5369C86.0984 99.5204 86.3436 99.5039 86.5963 99.4869C87.241 99.4434 87.8851 99.3949 88.5292 99.3438C88.7956 99.3259 88.7956 99.3259 89.0674 99.3077C90.25 99.201 91.2993 98.9506 92.2536 98.2127C93.2626 96.9809 93.3151 95.4652 93.3985 93.9365C93.4145 93.6824 93.4305 93.4283 93.4471 93.1665C93.8286 86.5623 93.8741 79.9543 93.5989 73.3458C93.5773 72.8197 93.5572 72.2935 93.5373 71.7673C93.5037 70.8978 93.4649 70.0286 93.4222 69.1594C93.4066 68.8355 93.3923 68.5115 93.3792 68.1875C93.3066 66.4462 93.2397 65.0317 92.2536 63.5623C90.5056 62.0139 87.4052 62.3167 85.1773 62.2105C84.9896 62.2013 84.8019 62.1921 84.6085 62.1826C67.9597 60.3972 67.9597 60.3972 52.9684 63.5623Z" fill="#103255"/>
<path d="M71.0761 10.5615C71.2574 10.5601 71.4387 10.5587 71.6255 10.5573C71.9226 10.5569 71.9226 10.5569 72.2257 10.5565C72.4346 10.5555 72.6435 10.5546 72.8587 10.5537C73.5532 10.5515 74.2477 10.5515 74.9422 10.5521C75.1827 10.5522 75.4231 10.5523 75.6708 10.5523C80.8867 10.5583 86.0888 10.7391 91.2976 10.9986C92.0694 11.0367 92.8412 11.0735 93.6131 11.1101C94.9448 11.1739 96.2764 11.2414 97.6078 11.3119C98.1173 11.3385 98.6269 11.3643 99.1365 11.3892C99.8438 11.4243 100.551 11.4631 101.258 11.5031C101.467 11.5127 101.676 11.5224 101.891 11.5324C103.257 11.6152 104.285 11.8265 105.303 12.8143C106.705 15.0109 106.74 17.1152 106.71 19.6424C106.709 19.8384 106.707 20.0345 106.706 20.2365C106.679 24.3185 106.478 28.3961 106.254 32.4713C106.227 32.967 106.202 33.4627 106.177 33.9584C106.138 34.7466 106.093 35.5342 106.044 36.3218C106.018 36.7553 105.997 37.1891 105.976 37.6229C105.832 39.7702 105.832 39.7702 105.201 40.4493C104.162 41.1216 103.241 41.0906 102.026 41.1031C101.852 41.1053 101.677 41.1074 101.498 41.1095C100.913 41.1151 100.329 41.1178 99.7438 41.1195C99.542 41.1203 99.3403 41.1211 99.1325 41.1219C95.1369 41.1282 91.1613 40.9003 87.1775 40.6229C87.0312 40.6129 86.8849 40.6028 86.7341 40.5924C85.7552 40.5247 84.7766 40.4544 83.798 40.3824C83.421 40.3551 83.421 40.3551 83.0364 40.3273C82.806 40.3097 82.5757 40.292 82.3384 40.2738C82.1372 40.2586 81.9359 40.2435 81.7286 40.2278C81.2185 40.1677 81.2185 40.1677 80.5564 39.947C80.4744 40.2111 80.3925 40.4751 80.3081 40.7471C80.1717 41.1431 80.0335 41.5384 79.8943 41.9334C79.8081 42.1911 79.7219 42.4489 79.633 42.7145C78.749 45.0935 78.749 45.0935 77.4803 45.7819C76.5386 46.1969 75.8089 46.1814 74.8181 45.906C74.3431 45.3655 74.3431 45.3655 73.9491 44.6508C73.8396 44.4618 73.8396 44.4618 73.7278 44.2691C73.3327 43.5812 72.9733 42.8799 72.6257 42.167C71.9533 40.6681 71.9533 40.6681 70.7084 39.7194C70.122 39.6569 70.122 39.6569 69.5652 39.7091C69.0798 39.7263 69.0798 39.7263 68.4177 39.2849C68.4177 39.1393 68.4177 38.9936 68.4177 38.8435C68.2755 38.7903 68.1332 38.7371 67.9866 38.6823C67.5349 38.4021 67.5349 38.4021 67.4004 37.9909C67.3234 36.6499 67.304 35.3118 67.3047 33.9691C67.3048 33.77 67.3049 33.5709 67.305 33.3657C67.3103 30.816 67.3526 28.2668 67.3964 25.7176C67.4107 24.8738 67.4239 24.0299 67.437 23.1861C67.4634 21.5633 67.4973 19.9407 67.5349 18.3181C67.5403 18.0606 67.5457 17.8031 67.5513 17.5377C67.5679 16.806 67.589 16.0745 67.6116 15.343C67.6161 15.1267 67.6206 14.9104 67.6252 14.6875C67.6665 13.534 67.7714 12.6921 68.4177 11.697C69.2671 10.9113 69.9221 10.5676 71.0761 10.5615ZM70.404 13.242C70.1906 15.0168 70.1083 16.7797 70.0592 18.5664C70.0545 18.7276 70.0498 18.8889 70.045 19.055C69.9104 23.8107 69.9425 28.5689 69.9626 33.3259C70.5501 32.7414 71.1365 32.1578 71.6989 31.5491C71.8079 31.4312 71.9169 31.3133 72.0291 31.1918C72.1943 31.0123 72.1943 31.0123 72.3628 30.8292C72.4712 30.7122 72.5796 30.5951 72.6912 30.4745C73.2808 29.8351 73.8591 29.1882 74.4276 28.53C75.438 27.3729 76.4935 26.2622 77.5631 25.1599C77.663 25.0531 77.7628 24.9462 77.8658 24.8361C79.5451 23.0417 79.5451 23.0417 80.4332 22.8158C80.9228 22.815 80.9228 22.815 81.6599 22.9529C81.7193 23.0816 81.7788 23.2103 81.84 23.343C82.1028 23.8385 82.3915 24.2274 82.7505 24.6573C82.8784 24.8115 83.0063 24.9657 83.1382 25.1245C83.274 25.2864 83.4098 25.4483 83.5497 25.6151C83.8296 25.9513 84.1095 26.2875 84.3894 26.6238C84.5945 26.8697 84.5945 26.8697 84.8038 27.1206C85.1438 27.5306 85.4801 27.9431 85.8136 28.3584C86.0722 28.6802 86.0722 28.6802 86.336 29.0084C86.4848 29.1948 86.6336 29.3811 86.7869 29.5731C87.1834 30.0603 87.1834 30.0603 87.8396 30.4568C89.728 29.0417 91.5886 27.6301 93.3261 26.0315C95.1965 24.3284 95.1965 24.3284 96.1573 24.1944C97.7242 25.126 98.646 27.822 99.5231 29.4223C99.6769 29.702 99.8308 29.9818 99.9847 30.2615C100.869 31.8695 101.749 33.4799 102.627 35.0916C102.7 35.0916 102.772 35.0916 102.847 35.0916C102.906 33.0058 102.963 30.92 103.02 28.8342C103.046 27.8652 103.073 26.8962 103.1 25.9273C103.126 24.9885 103.152 24.0498 103.177 23.111C103.187 22.7566 103.197 22.4021 103.207 22.0477C103.28 19.4797 103.3 16.9145 103.289 14.3455C102.353 14.175 101.435 14.0753 100.485 14.0187C100.271 14.0057 100.271 14.0057 100.053 13.9925C99.5784 13.9642 99.1042 13.937 98.6299 13.9101C98.4639 13.9005 98.2978 13.891 98.1268 13.8811C96.8497 13.8079 95.5725 13.7382 94.2951 13.6696C94.1076 13.6594 93.9201 13.6492 93.7269 13.6387C85.948 13.2179 78.1923 13.1365 70.404 13.242ZM79.484 26.8387C79.3137 27.0114 79.3137 27.0114 79.1399 27.1876C79.0217 27.3059 78.9036 27.4242 78.7818 27.5461C78.5306 27.7979 78.28 28.0503 78.0299 28.3031C77.6524 28.6846 77.2732 29.0643 76.8937 29.4438C75.6406 30.7009 74.4196 31.9697 73.2732 33.3259C73.0513 33.5799 72.8292 33.8337 72.6068 34.0872C72.4011 34.3253 72.1957 34.5635 71.9903 34.8019C71.8852 34.9215 71.7801 35.0412 71.6718 35.1644C71.0907 35.8419 70.6776 36.4462 70.404 37.2986C70.5454 37.2889 70.6868 37.2793 70.8325 37.2693C71.7429 37.272 72.3748 37.2954 73.0551 37.94C73.4629 38.5192 73.8149 39.1055 74.156 39.7263C74.3485 40.066 74.3485 40.066 74.5448 40.4126C74.8652 40.9891 75.1764 41.5687 75.4802 42.1541C76.4488 41.2763 77.167 40.2702 77.9157 39.2013C78.7265 38.1197 78.7265 38.1197 79.2322 37.74C79.8406 37.6589 80.3496 37.6364 80.9564 37.6572C81.1317 37.6601 81.3071 37.6629 81.4877 37.6659C84.4165 37.7354 87.3459 37.9706 90.2673 38.1814C89.4242 36.8725 88.5303 35.6408 87.5361 34.4433C87.2826 34.1347 87.0291 33.826 86.7757 33.5173C86.6547 33.3705 86.5338 33.2236 86.4091 33.0723C85.9798 32.5491 85.5572 32.0209 85.136 31.4914C84.3679 30.5276 83.5864 29.5753 82.8031 28.6239C82.2126 27.8938 81.6472 27.1464 81.0883 26.3919C80.9856 26.2767 80.8829 26.1615 80.7771 26.0427C80.1392 26.0427 79.916 26.4095 79.484 26.8387ZM93.9503 28.7877C92.5027 30.0597 90.9941 31.1637 89.3845 32.2224C89.5153 32.9053 89.7154 33.3137 90.1595 33.8458C90.2714 33.9823 90.3833 34.1189 90.4985 34.2595C90.6777 34.4734 90.6777 34.4734 90.8605 34.6915C91.6481 35.6323 92.316 36.4885 92.8468 37.6021C93.1197 38.0832 93.1197 38.0832 93.5779 38.4021C94.6628 38.6356 95.701 38.6547 96.8072 38.6322C97.3366 38.6227 97.8642 38.6281 98.3937 38.6375C100.007 38.7522 100.007 38.7522 101.523 38.4021C101.14 37.3628 100.633 36.4002 100.116 35.4226C100.021 35.2419 99.9259 35.0613 99.8278 34.8751C98.7611 32.8662 97.6268 30.8963 96.4845 28.9296C96.2365 28.4886 96.0071 28.0422 95.7849 27.5877C95.0121 27.5877 94.5044 28.2919 93.9503 28.7877Z" fill="#103255"/>
<path d="M69.0517 71.3485C70.0978 71.7036 70.9314 72.4817 71.7838 73.1633C72.0936 73.4056 72.0936 73.4056 72.4097 73.6527C72.9946 74.1116 73.5761 74.5745 74.1564 75.0393C74.3567 75.1987 74.3567 75.1987 74.5611 75.3614C75.0514 75.7523 75.5363 76.1484 76.016 76.5523C76.46 76.9222 76.9084 77.2776 77.366 77.63C77.6342 77.8423 77.9023 78.0546 78.1704 78.2671C78.298 78.3623 78.4256 78.4576 78.5571 78.5557C79.233 79.1011 79.4423 79.3832 79.5774 80.2525C79.4052 81.2868 79.0534 81.5192 78.2575 82.1423C75.8745 83.8187 71.717 86.7227 68.6388 86.2951C68.2828 86.0492 68.2828 86.0492 67.9767 85.633C67.8883 84.9901 67.8883 84.9901 67.8793 84.2019C67.8737 83.9111 67.8681 83.6204 67.8624 83.3208C67.86 83.0898 67.86 83.0898 67.8576 82.8541C67.8491 82.0529 67.8302 81.2519 67.8112 80.4508C67.8075 80.2907 67.8039 80.1305 67.8001 79.9656C67.7583 78.3293 67.6236 76.7053 67.4602 75.077C67.1744 72.2132 67.1744 72.2132 67.5491 71.508C68.08 71.234 68.4689 71.2534 69.0517 71.3485ZM70.1837 75.4807C70.2565 78.0298 70.3294 80.5789 70.4044 83.2053C71.874 82.7644 72.9973 82.4175 74.2667 81.6604C74.4004 81.5847 74.5341 81.509 74.6719 81.4311C75.3433 81.0402 75.7044 80.7728 76.1427 80.1155C74.8414 78.8767 73.4826 77.7573 72.0459 76.6808C71.8881 76.5623 71.7304 76.4439 71.5678 76.3219C70.9336 75.748 70.9336 75.748 70.1837 75.4807Z" fill="#103255"/>
<path d="M61.1352 88.7224C61.5628 89.0949 61.5628 89.0949 61.7973 89.6052C61.7016 90.1889 61.7016 90.1889 61.5766 90.7088C61.7439 90.712 61.9113 90.7152 62.0838 90.7185C67.0605 90.8203 72.036 90.9869 77.0104 91.1705C77.9631 91.2056 78.9158 91.2397 79.8686 91.2712C80.782 91.3014 81.6954 91.3348 82.6086 91.3704C82.9511 91.3833 83.2935 91.3951 83.636 91.4057C84.109 91.4205 84.5817 91.4393 85.0545 91.4591C85.4554 91.4736 85.4554 91.4736 85.8644 91.4883C86.516 91.5916 86.516 91.5916 86.9333 91.8895C87.3185 92.4624 87.2619 92.9078 87.1781 93.5779C86.9313 93.9486 86.9313 93.9486 86.516 94.24C85.8778 94.3004 85.8778 94.3004 85.0851 94.2685C84.9397 94.2636 84.7944 94.2587 84.6446 94.2537C84.1587 94.2366 83.6731 94.2146 83.1874 94.1926C82.8418 94.1795 82.4963 94.1666 82.1507 94.1541C81.4132 94.1268 80.6758 94.0975 79.9384 94.0666C78.7998 94.019 77.6609 93.9772 76.522 93.9364C74.4074 93.8603 72.2929 93.7793 70.1785 93.6972C69.1779 93.6585 68.1772 93.6201 67.1765 93.5818C65.2363 93.5073 63.2961 93.4324 61.3559 93.3572C61.3286 93.5302 61.3012 93.7031 61.2731 93.8814C61.1352 94.4607 61.1352 94.4607 60.6938 94.9021C60.0454 94.9849 60.0454 94.9849 59.3695 94.9021C58.9557 94.5021 58.9557 94.5021 58.7074 94.0193C58.7074 93.8008 58.7074 93.5823 58.7074 93.3572C58.5743 93.3515 58.4411 93.3458 58.304 93.34C57.4544 93.2797 56.8681 93.231 56.1418 92.7641C55.8383 92.2537 55.8383 92.2537 55.8521 91.564C56.059 90.9295 56.059 90.9295 56.7211 90.4881C57.3168 90.4932 57.3168 90.4932 57.9763 90.5708C58.3054 90.6075 58.3054 90.6075 58.641 90.645C58.8086 90.666 58.9762 90.6871 59.1488 90.7088C59.1352 90.5039 59.1215 90.2991 59.1074 90.088C59.1488 89.3845 59.1488 89.3845 59.3971 88.9707C60.012 88.6018 60.4333 88.6201 61.1352 88.7224Z" fill="#103255"/>
<path d="M14.8781 65.1922C15.1878 65.1879 15.4977 65.1899 15.8074 65.1969C15.9715 65.1969 16.1355 65.1969 16.3045 65.1969C16.6511 65.1981 16.9977 65.202 17.3442 65.2084C17.8747 65.2176 18.4046 65.2174 18.9352 65.2159C19.272 65.2182 19.6088 65.2211 19.9456 65.2245C20.1836 65.2246 20.1836 65.2246 20.4264 65.2247C21.0539 65.2395 21.5216 65.2614 22.0614 65.5978C22.367 66.1208 22.3622 66.4686 22.3432 67.0729C22.3371 67.2889 22.331 67.5048 22.3247 67.7273C22.3078 68.0691 22.3078 68.0691 22.2906 68.4178C22.2741 68.7562 22.2741 68.7562 22.2573 69.1015C22.2171 69.7941 22.1657 70.485 22.1113 71.1766C22.0958 71.4128 22.0803 71.6489 22.0643 71.8922C22.0465 72.1181 22.0287 72.344 22.0104 72.5767C21.9879 72.8812 21.9879 72.8812 21.9649 73.1918C21.8492 73.7147 21.8492 73.7147 21.6042 74.1119C20.9616 74.52 20.4033 74.4588 19.649 74.457C19.425 74.4572 19.425 74.4572 19.1965 74.4573C18.8811 74.4568 18.5657 74.4547 18.2504 74.451C17.7679 74.4458 17.2857 74.4465 16.8032 74.4479C14.4377 74.4384 14.4377 74.4384 13.6832 73.9354C13.3011 72.7892 13.4127 71.5608 13.4094 70.3608C13.4073 69.8832 13.4004 69.4058 13.3935 68.9282C13.392 68.623 13.3909 68.3178 13.39 68.0126C13.3869 67.5977 13.3869 67.5977 13.3838 67.1743C13.5073 66.0082 13.6595 65.4118 14.8781 65.1922ZM16.1109 67.7557C16.1109 69.0667 16.1109 70.3777 16.1109 71.7284C17.2034 71.7284 18.2959 71.7284 19.4214 71.7284C19.6199 70.3891 19.661 69.1099 19.6421 67.7557C18.4768 67.7557 17.3115 67.7557 16.1109 67.7557Z" fill="#103255"/>
<path d="M16.5519 30.9941C16.6999 30.9928 16.8479 30.9914 17.0004 30.99C17.3125 30.9884 17.6248 30.9891 17.9369 30.9919C18.4129 30.995 18.8878 30.9875 19.3637 30.9791C19.6679 30.9788 19.9721 30.9793 20.2763 30.9804C20.5515 30.9802 20.8267 30.98 21.1103 30.9799C22.0687 31.1604 22.3925 31.4297 22.9531 32.2227C23.0484 32.9823 23.0484 32.9823 22.9876 33.8443C22.9778 33.9974 22.968 34.1505 22.958 34.3083C22.9361 34.6307 22.9115 34.9529 22.8842 35.2748C22.8429 35.7666 22.8111 36.2584 22.7807 36.751C22.6162 39.0535 22.6162 39.0535 22.2708 39.8193C21.6357 40.3451 20.9949 40.2901 20.2073 40.2775C20.0476 40.2778 19.8879 40.2781 19.7234 40.2784C19.3863 40.2781 19.0493 40.2755 18.7122 40.2709C18.1953 40.2646 17.6788 40.2664 17.1618 40.2693C16.8344 40.2679 16.5069 40.2661 16.1794 40.2637C15.947 40.2646 15.947 40.2646 15.7099 40.2656C15.2746 40.2572 15.2746 40.2572 14.5664 40.168C14.0313 39.3653 14.0538 38.7596 14.0509 37.8308C14.0494 37.6672 14.0479 37.5037 14.0464 37.3352C14.0442 36.9896 14.0431 36.644 14.0432 36.2984C14.0423 35.7703 14.0342 35.2426 14.0259 34.7146C14.0246 34.3785 14.0237 34.0425 14.0233 33.7064C14.0201 33.5489 14.0169 33.3914 14.0137 33.2291C14.0202 32.5132 14.0829 32.0668 14.4763 31.4618C15.1942 30.999 15.7003 31.0016 16.5519 30.9941ZM16.7735 33.7676C16.7735 35.0786 16.7735 36.3895 16.7735 37.7402C17.8659 37.7402 18.9584 37.7402 20.084 37.7402C20.1932 35.7738 20.1932 35.7738 20.3047 33.7676C19.1394 33.7676 17.9741 33.7676 16.7735 33.7676Z" fill="#103255"/>
<path d="M15.7825 47.3896C16.0305 47.391 16.0305 47.391 16.2835 47.3924C16.4532 47.3919 16.623 47.3915 16.798 47.3911C17.1571 47.3908 17.5163 47.3916 17.8755 47.3934C18.4262 47.3958 18.9769 47.3935 19.5276 47.3906C19.8762 47.3909 20.2248 47.3915 20.5734 47.3924C20.7387 47.3915 20.904 47.3906 21.0743 47.3896C22.24 47.4002 22.24 47.4002 22.7321 47.8924C22.9472 50.4073 22.9326 53.6907 22.07 56.0584C21.0243 56.7556 19.9022 56.5735 18.6719 56.5695C18.2238 56.5688 17.776 56.574 17.3279 56.5796C17.045 56.5797 16.762 56.5798 16.4705 56.58C16.2112 56.5806 15.9519 56.5813 15.6848 56.582C14.9192 56.4891 14.6134 56.438 14.1247 55.8377C14.0407 55.2128 14.0113 54.6748 14.023 54.0505C14.0232 53.8762 14.0234 53.7018 14.0236 53.5221C14.0249 53.1539 14.0284 52.7856 14.0339 52.4174C14.0419 51.8526 14.0429 51.288 14.0428 50.7232C14.045 50.3655 14.0475 50.0079 14.0506 49.6503C14.0511 49.4808 14.0515 49.3114 14.052 49.1368C14.0781 47.685 14.3238 47.4029 15.7825 47.3896ZM16.5524 49.8787C16.5524 51.1897 16.5524 52.5007 16.5524 53.8514C17.6449 53.8514 18.7374 53.8514 19.863 53.8514C20.0254 52.8769 20.1083 52.0896 20.0975 51.1202C20.0929 50.7105 20.0884 50.3008 20.0837 49.8787C18.9184 49.8787 17.7531 49.8787 16.5524 49.8787Z" fill="#103255"/>
<path d="M29.8932 35.2298C30.1945 35.2275 30.1945 35.2275 30.5018 35.2251C30.8315 35.2276 30.8315 35.2276 31.1679 35.2302C31.3998 35.2294 31.6317 35.2286 31.8706 35.2278C32.6387 35.226 33.4068 35.229 34.1749 35.2322C34.7073 35.2323 35.2397 35.2322 35.7721 35.2319C36.8885 35.2319 38.0048 35.2342 39.1212 35.2382C40.5549 35.2432 41.9885 35.2433 43.4222 35.2418C44.5217 35.2411 45.6211 35.2425 46.7205 35.2447C47.2493 35.2456 47.7781 35.2458 48.3069 35.2455C49.0446 35.2454 49.7822 35.2482 50.52 35.2518C50.8503 35.2509 50.8503 35.2509 51.1874 35.2501C51.3876 35.2517 51.5878 35.2532 51.7941 35.2548C51.9686 35.2553 52.1431 35.2558 52.3229 35.2562C52.7476 35.3124 52.7476 35.3124 53.189 35.7538C53.2442 36.5262 53.2442 36.5262 53.189 37.2987C52.652 37.8357 52.5198 37.7958 51.7842 37.7977C51.5818 37.7992 51.3795 37.8008 51.1709 37.8024C50.9483 37.8018 50.7256 37.8013 50.4962 37.8007C50.2622 37.8019 50.0282 37.803 49.7871 37.8042C49.0106 37.8072 48.2341 37.807 47.4576 37.8065C46.92 37.8074 46.3823 37.8083 45.8446 37.8094C44.7166 37.811 43.5885 37.8109 42.4605 37.8098C41.0117 37.8085 39.5629 37.8122 38.1141 37.8174C37.0035 37.8206 35.8929 37.8208 34.7823 37.8201C34.248 37.8202 33.7137 37.8214 33.1793 37.8236C32.4337 37.8263 31.6881 37.8249 30.9424 37.8223C30.6084 37.8248 30.6084 37.8248 30.2677 37.8274C30.0653 37.8259 29.8629 37.8243 29.6544 37.8227C29.4779 37.8227 29.3015 37.8228 29.1198 37.8228C28.9783 37.7955 28.8368 37.7682 28.691 37.7401C28.2154 37.0267 28.1462 36.8018 28.2496 35.9745C28.7442 35.324 29.0911 35.2296 29.8932 35.2298Z" fill="#103255"/>
<path d="M31.3204 51.8045C31.587 51.8028 31.587 51.8028 31.8589 51.8011C32.4469 51.798 33.0348 51.7982 33.6227 51.7987C34.0309 51.7979 34.4391 51.7969 34.8472 51.7959C35.7029 51.7942 36.5585 51.7943 37.4142 51.7954C38.5119 51.7967 39.6095 51.793 40.7072 51.7879C41.5501 51.7846 42.393 51.7844 43.2359 51.7851C43.6407 51.785 44.0455 51.7838 44.4503 51.7816C45.0157 51.7789 45.5809 51.7804 46.1463 51.7829C46.3142 51.7813 46.4821 51.7796 46.655 51.7778C47.7799 51.7891 47.7799 51.7891 48.3284 52.1591C48.6796 52.7305 48.6241 53.1985 48.5547 53.8514C47.9941 54.412 47.6373 54.3466 46.8727 54.3527C46.6996 54.3518 46.5264 54.3509 46.3481 54.35C46.1657 54.3507 45.9834 54.3515 45.7955 54.3523C45.191 54.3543 44.5865 54.353 43.982 54.3515C43.5631 54.3518 43.1441 54.3522 42.7252 54.3528C41.8465 54.3534 40.9679 54.3525 40.0892 54.3504C38.961 54.3479 37.8329 54.3493 36.7048 54.352C35.8395 54.3536 34.9743 54.3531 34.1091 54.3519C33.693 54.3516 33.2769 54.352 32.8609 54.353C32.2801 54.3541 31.6994 54.3524 31.1187 54.35C30.859 54.3513 30.859 54.3513 30.594 54.3527C29.4039 54.3433 29.4039 54.3433 28.9121 53.8514C28.8431 53.079 28.8431 53.079 28.9121 52.3065C29.734 51.7586 30.3691 51.8014 31.3204 51.8045Z" fill="#103255"/>
<path d="M90.0193 17.3802C91.0711 18.4003 91.4094 19.2702 91.4677 20.7322C91.4308 21.9714 91.2722 22.6503 90.4883 23.6151C89.3112 24.4872 88.1945 24.8381 86.7363 24.7186C85.2277 24.2176 84.3725 23.3779 83.5775 22.015C83.2759 20.8085 83.2736 19.6491 83.6741 18.47C84.4766 17.3196 85.3302 16.6376 86.7053 16.3673C87.9799 16.2719 89.0223 16.5826 90.0193 17.3802ZM86.0742 19.4218C85.8503 19.9338 85.8503 19.9338 85.8535 20.5253C86.1593 21.1514 86.4649 21.578 86.957 22.0702C87.7359 22.0509 87.7359 22.0509 88.502 21.8495C89.009 21.2299 89.009 21.2299 88.9158 20.5391C88.6936 19.7614 88.4932 19.4522 87.8399 18.9803C87.008 18.8586 86.7911 18.9438 86.0742 19.4218Z" fill="#103255"/>
<path d="M30.9758 68.9978C31.2653 68.9964 31.5547 68.9951 31.8529 68.9937C32.1692 68.9956 32.4855 68.9976 32.8018 68.9998C33.1259 68.9999 33.4499 68.9998 33.774 68.9995C34.453 68.9995 35.132 69.0018 35.811 69.0058C36.6816 69.0108 37.5521 69.0109 38.4227 69.0094C39.0918 69.0087 39.7609 69.0102 40.43 69.0123C40.751 69.0132 41.072 69.0134 41.393 69.0131C41.8416 69.013 42.2901 69.0161 42.7386 69.0194C42.9939 69.0204 43.2492 69.0214 43.5123 69.0225C44.1404 69.08 44.1404 69.08 44.8025 69.5214C44.8991 70.2801 44.8991 70.2801 44.8025 71.0663C44.3084 71.5772 44.0005 71.7176 43.2931 71.8125C43.0514 71.813 42.8097 71.8136 42.5606 71.8141C42.2859 71.8162 42.0112 71.8183 41.7281 71.8204C41.429 71.8192 41.1299 71.8179 40.8307 71.8164C40.5229 71.8168 40.2151 71.8175 39.9072 71.8183C39.2625 71.8193 38.6179 71.8178 37.9732 71.8147C37.1484 71.811 36.3238 71.8131 35.499 71.8171C34.8634 71.8195 34.2278 71.8187 33.5922 71.817C33.2882 71.8166 32.9841 71.8171 32.6801 71.8187C32.2545 71.8204 31.8288 71.8173 31.4031 71.8141C31.1612 71.8136 30.9193 71.813 30.6701 71.8125C29.9238 71.7167 29.504 71.5269 28.9119 71.0663C28.7972 70.3779 28.7616 69.9627 29.1623 69.3748C29.7662 68.9424 30.2382 68.9974 30.9758 68.9978Z" fill="#103255"/>
</svg>
