<svg width="130" height="130" viewBox="0 0 130 130" fill="none" xmlns="http://www.w3.org/2000/svg">
<path d="M68.5549 39.6096C69.4033 40.4847 70.1376 41.4133 70.8956 42.3669C71.592 43.2532 71.592 43.2532 72.8079 43.7673C74.2359 43.6653 74.8444 43.3412 76.0769 42.6565C78.4078 41.3943 79.709 41.4361 82.2659 42.1487C83.9618 43.2547 84.6616 44.0821 85.1302 46.0624C85.2911 47.0519 85.4283 48.0455 85.5389 49.0418C85.7133 50.4543 85.7133 50.4543 87.344 51.2893C88.401 51.4267 88.401 51.4267 89.5339 51.448C92.0974 51.6738 93.182 52.5126 94.9612 54.3362C95.562 55.5377 95.5368 56.3003 95.5325 57.637C95.5338 58.0402 95.5351 58.4434 95.5364 58.8589C95.469 59.9221 95.469 59.9221 94.9612 60.9377C95.3665 60.9018 95.7718 60.8659 96.1894 60.8289C100.859 60.4514 105.49 60.351 110.173 60.3637C111.391 60.3665 112.61 60.3637 113.829 60.3605C114.605 60.3608 115.38 60.3615 116.156 60.3625C116.702 60.3609 116.702 60.3609 117.259 60.3594C119.786 60.3715 119.786 60.3715 120.352 60.9377C120.606 62.2588 120.606 62.2588 120.352 63.9846C119.321 65.3965 118.077 66.5458 116.797 67.7297C116.458 68.0551 116.119 68.3804 115.77 68.7156C114.934 69.5157 114.091 70.3078 113.242 71.094C113.895 72.5267 114.578 73.5674 115.69 74.6784C115.962 74.9583 116.234 75.2381 116.513 75.5264C117.084 76.106 117.658 76.6826 118.235 77.2562C120.303 79.4012 120.303 79.4012 120.57 81.1729C120.352 82.2659 120.352 82.2659 119.844 82.7737C119.08 82.821 118.314 82.8333 117.549 82.8313C116.817 82.8313 116.817 82.8313 116.07 82.8312C115.54 82.8286 115.009 82.826 114.462 82.8233C113.922 82.8225 113.382 82.8218 112.825 82.8211C111.092 82.8182 109.358 82.8119 107.625 82.8054C106.453 82.8029 105.281 82.8006 104.109 82.7985C101.229 82.7929 98.3489 82.7844 95.469 82.7737C95.6035 83.7369 95.6035 83.7369 95.7408 84.7196C96.0031 86.5983 95.9948 87.7125 94.9612 89.3752C92.8552 91.6353 91.4038 92.2046 88.3358 92.3507C87.3035 92.3616 87.3035 92.3616 86.3284 92.9299C86.1547 93.8974 86.0242 94.8729 85.9158 95.8498C85.5979 97.9411 85.4183 98.8811 84.1384 100.611C82.0782 102.048 80.9756 102.63 78.4255 102.451C76.6799 102.071 76.6799 102.071 75.6008 101.499C74.6367 100.972 74.6367 100.972 73.4109 101.023C71.7091 101.729 71.1684 102.712 70.2351 104.259C69.1884 105.611 68.1056 106.055 66.4305 106.286C64.0092 106.298 62.3396 106.254 60.4299 104.61C59.5075 103.46 58.7053 102.288 57.8909 101.055C56.0848 101.355 56.0848 101.355 54.4314 102.102C52.7333 102.83 51.0606 102.815 49.2581 102.578C47.6202 101.814 46.3323 100.934 45.1956 99.5315C44.7135 97.9386 44.7135 97.9386 44.3386 96.1355C44.211 95.5365 44.0833 94.9376 43.9518 94.3205C43.8595 93.8616 43.7672 93.4027 43.6721 92.9299C43.0565 92.8641 43.0565 92.8641 42.4284 92.797C38.0251 92.2181 38.0251 92.2181 35.9915 90.8352C34.8415 89.072 34.089 87.4374 34.0237 85.3127C34.328 84.2863 34.6617 83.2676 35.0393 82.2659C34.7132 82.2812 34.3872 82.2966 34.0512 82.3125C28.0336 82.5903 22.0211 82.8251 15.9963 82.8372C15.2784 82.8406 15.2784 82.8406 14.546 82.8441C14.1082 82.8431 13.6704 82.8421 13.2192 82.8411C12.8347 82.8405 12.4501 82.84 12.0538 82.8394C11.1721 82.7737 11.1721 82.7737 10.6643 82.2659C10.4997 81.1035 10.4997 81.1035 10.6643 79.7268C11.5748 78.6041 11.5748 78.6041 12.7908 77.5051C14.7862 75.6851 16.2539 73.8207 17.7737 71.6018C17.5429 71.387 17.3122 71.1722 17.0744 70.9509C16.03 69.9699 14.9976 68.9771 13.9651 67.9836C13.6018 67.6459 13.2385 67.3081 12.8642 66.9601C10.2194 64.3909 10.2194 64.3909 9.88672 62.243C10.1565 60.9377 10.1565 60.9377 10.6643 60.4299C12.1613 60.3785 13.6462 60.359 15.1434 60.3625C15.5964 60.362 16.0493 60.3615 16.516 60.361C17.4783 60.3607 18.4405 60.3616 19.4027 60.3637C20.8672 60.3664 22.3316 60.3638 23.796 60.3605C24.731 60.3608 25.6659 60.3615 26.6009 60.3625C27.0364 60.3615 27.4718 60.3604 27.9205 60.3594C30.3469 60.3687 32.6463 60.5318 35.0393 60.9377C34.8717 60.6026 34.7042 60.2674 34.5315 59.9221C34.1372 57.4713 34.1975 55.4134 35.6741 53.3523C37.557 51.3878 39.7306 51.2285 42.347 50.9779C43.751 50.9043 43.751 50.9043 44.6877 49.7659C44.8553 48.9569 44.9887 48.1406 45.1003 47.322C45.54 44.8881 46.2421 43.699 48.2424 42.1487C49.9996 41.2701 51.9509 41.7536 53.8284 42.1487C54.5102 42.65 55.1879 43.1572 55.8596 43.6721C58.0886 43.8676 59.0537 43.9125 60.9377 42.6565C61.2943 41.8176 61.6333 40.9709 61.9534 40.1174C64.0493 38.0215 65.925 38.5214 68.5549 39.6096ZM61.6042 42.8787C59.4753 45.1651 59.4753 45.1651 58.3987 45.7034C57.3354 45.6597 57.3354 45.6597 56.1135 45.5129C55.7103 45.4671 55.3071 45.4213 54.8916 45.3741C53.8284 45.1956 53.8284 45.1956 52.8127 44.6877C51.3108 44.4338 51.3108 44.4338 49.7659 44.6877C48.0985 46.4701 48.0511 48.3579 47.9905 50.6883C47.6262 52.267 46.974 52.8411 45.7034 53.8284C44.2077 54.3243 44.2077 54.3243 42.593 54.6536C40.3509 55.0486 40.3509 55.0486 38.594 56.3674C38.7239 57.8613 38.8971 59.053 39.6414 60.3664C40.389 62.061 40.3953 63.7088 40.1174 65.5081C38.8642 68.0144 37.3837 69.2009 35.0393 70.5862C35.0196 71.7721 35.0196 71.7721 35.5471 73.1252C36.4037 73.8441 37.2859 74.4224 38.2429 74.9998C39.588 76.0405 40.037 77.1209 40.2702 78.7866C40.284 81.4099 39.8501 82.9643 38.594 85.3127C38.7753 86.396 38.7753 86.396 39.1018 87.344C39.5489 87.4245 39.996 87.505 40.4566 87.588C45.1749 88.5358 45.1749 88.5358 47.322 89.8831C48.4838 91.806 48.7535 93.5477 49.026 95.7606C49.1547 97.0799 49.1547 97.0799 50.2737 98.0081C51.6655 97.8755 52.9613 97.6103 54.2985 97.2007C56.8285 96.4491 58.4699 96.2888 60.9377 97.5002C62.2665 98.9306 63.3989 100.455 64.4924 102.071C65.7232 101.879 66.3513 101.775 67.1525 100.789C67.3325 100.479 67.5125 100.169 67.698 99.8489C69.0389 97.8621 70.2611 97.1236 72.6174 96.4846C74.783 96.4647 76.3711 96.7865 78.2034 98.0081C79.8847 97.8645 79.8847 97.8645 81.2502 96.9924C81.3872 96.1052 81.5121 95.2162 81.6311 94.3264C81.9645 92.5164 82.2462 91.4386 83.218 89.8513C85.2858 88.5693 87.1532 88.4223 89.5558 88.2327C91.0015 87.9861 91.0015 87.9861 91.6346 86.6576C92.0406 84.7055 91.1942 83.5501 90.3909 81.7581C90.1258 79.6 90.2255 78.5278 91.2161 76.5847C92.4221 75.1565 92.4221 75.1565 94.0725 74.1091C94.5333 73.7844 94.9942 73.4598 95.469 73.1252C95.7495 71.8897 95.7495 71.8897 95.469 70.5862C94.6278 69.605 94.6278 69.605 93.5012 68.8088C90.7398 66.5362 90.7398 66.5362 90.3909 64.4924C90.4461 62.3401 90.6947 60.7358 91.9143 58.9065C92.0836 57.6156 92.0836 57.6156 91.9143 56.3674C90.6397 55.0928 89.9642 55.1563 88.2009 54.9392C85.5202 54.5 84.3948 53.9587 82.7737 51.7971C82.0513 50.3523 82.1001 48.9225 82.0001 47.324C81.7088 45.9847 81.333 45.4932 80.2346 44.6877C78.6305 44.7924 77.4451 45.0634 76.0134 45.7986C73.8615 46.4492 72.0948 46.183 70.0784 45.1956C69.0349 44.0543 68.2073 42.9001 67.3885 41.5893C66.5944 40.5176 66.5944 40.5176 65.2998 40.3455C63.5087 40.7264 62.8333 41.5411 61.6042 42.8787ZM93.9456 63.4768C94.1343 64.8423 94.3227 65.3928 95.3738 66.3194C95.9236 66.6876 95.9236 66.6876 96.4846 67.0632C98.4625 68.3947 98.4625 68.3947 99.0237 70.0784C99.2216 72.1767 99.1634 73.3589 98.1985 75.2517C96.9204 76.7652 95.5885 77.6283 93.9456 78.7112C93.9456 79.2139 93.9456 79.7166 93.9456 80.2346C94.5583 80.1885 94.5583 80.1885 95.1833 80.1414C101.367 79.7007 107.556 79.4583 113.75 79.219C112.08 77.1454 110.491 75.5116 108.345 73.9326C107.656 73.1252 107.656 73.1252 107.413 71.9291C107.751 70.0668 108.635 69.2673 109.942 67.9202C111.423 66.6439 111.423 66.6439 112.227 65.0002C109.276 64.5144 106.359 64.3531 103.372 64.2385C100.2 64.1163 97.0898 63.9181 93.9456 63.4768ZM23.4866 64.2385C22.6559 64.2749 22.6559 64.2749 21.8084 64.3119C20.4634 64.3709 19.1185 64.4311 17.7737 64.4924C18.2499 65.0522 18.7268 65.6115 19.2039 66.1706C19.4694 66.4821 19.7349 66.7936 20.0084 67.1146C20.5269 67.7099 21.0572 68.2953 21.602 68.8666C22.3123 69.634 22.3123 69.634 23.3596 71.094C23.2455 73.3016 22.4329 74.2818 20.8523 75.7595C20.4916 76.1019 20.1309 76.4442 19.7593 76.797C19.2792 77.2418 19.2792 77.2418 18.7893 77.6956C18.4542 78.0307 18.119 78.3659 17.7737 78.7112C21.6744 79.2119 25.5561 79.3772 29.4851 79.5046C30.1184 79.5266 30.7518 79.5485 31.4043 79.5711C32.9545 79.6245 34.5047 79.6764 36.0549 79.7268C35.6826 78.0732 35.6826 78.0732 34.0872 77.283C32.2439 75.9927 31.6616 75.2601 30.9768 73.1252C30.8318 70.6378 31.1017 69.0414 32.6589 67.0632C33.779 66.2037 34.7532 65.5306 36.0549 65.0002C36.0549 64.6651 36.0549 64.3299 36.0549 63.9846C31.8574 63.9507 27.6795 64.047 23.4866 64.2385Z" fill="#103255"/>
<path d="M64.4923 52.8124C65.3034 52.834 65.3034 52.834 66.1308 52.8561C72.0281 53.1516 76.3515 54.4952 80.659 58.6523C82.34 60.5942 83.379 62.6148 84.297 64.9999C84.517 65.555 84.7369 66.1101 84.9635 66.6821C86.1649 73.1261 85.0955 78.6814 81.5794 84.1698C78.7591 88.0194 73.7938 91.1255 69.0626 91.914C62.1456 92.3844 56.2488 91.4868 50.7814 86.8359C46.1561 81.9816 44.5062 76.8554 44.5805 70.2526C44.9022 65.1539 47.1615 60.1738 50.9401 56.6845C55.0843 53.4263 59.3751 52.6734 64.4923 52.8124ZM53.3482 60.0369C49.9521 64.6266 48.6077 68.9273 49.2579 74.6484C50.4102 79.5893 52.5769 82.7779 56.8434 85.4711C60.7578 87.662 64.531 88.6068 68.9297 87.5024C74.135 85.7745 77.681 83.1039 80.2345 78.2031C82.111 73.9706 82.0656 69.8777 80.7106 65.476C78.9612 61.3488 75.733 57.6549 71.6017 55.8593C64.9548 53.5563 58.2155 54.4658 53.3482 60.0369Z" fill="#103255"/>
<path d="M110.195 33.0078C110.53 33.0078 110.866 33.0078 111.211 33.0078C112.216 35.1863 113.222 37.3648 114.258 39.6094C115.253 39.6827 116.248 39.756 117.273 39.8315C120.288 40.0537 120.288 40.0537 120.859 40.625C121.018 41.8211 121.018 41.8211 120.859 43.1641C119.971 44.0785 119.971 44.0785 118.828 44.8462C118.451 45.1061 118.074 45.3659 117.686 45.6337C117.392 45.8242 117.099 46.0147 116.797 46.2109C116.87 46.5114 116.944 46.8119 117.019 47.1214C118.002 51.3039 118.002 51.3039 117.812 53.3203C117.305 53.8281 117.305 53.8281 116.226 54.0186C114.623 53.8096 114.212 53.4786 112.988 52.4951C112.105 51.7912 112.105 51.7912 111.211 51.2891C109.469 51.5794 108.728 52.2556 107.402 53.4155C106.133 54.3359 106.133 54.3359 104.736 54.2407C103.594 53.8281 103.594 53.8281 103.086 53.3203C103.31 51.0842 103.648 48.9194 104.102 46.7188C103.814 46.4857 103.527 46.2527 103.231 46.0126C102.858 45.701 102.486 45.3894 102.102 45.0684C101.731 44.762 101.36 44.4557 100.977 44.14C99.9719 43.0942 99.6206 42.5733 99.5312 41.1328C99.8664 40.6301 100.202 40.1273 100.547 39.6094C102.201 39.4606 102.201 39.4606 104.165 39.5142C105.141 39.5348 105.141 39.5348 106.137 39.5558C106.638 39.5735 107.14 39.5912 107.656 39.6094C107.718 39.2356 107.781 38.8618 107.845 38.4767C108.152 37.1248 108.57 36.1017 109.211 34.8804C109.395 34.5262 109.579 34.1721 109.769 33.8072C109.91 33.5434 110.05 33.2796 110.195 33.0078ZM110.703 39.1016C110.536 40.2746 110.368 41.4477 110.195 42.6562C108.855 42.6562 107.514 42.6562 106.133 42.6562C106.468 42.9286 106.803 43.2009 107.148 43.4814C108.164 44.6875 108.164 44.6875 108.291 46.3379C108.249 46.7987 108.207 47.2596 108.164 47.7344C108.436 47.5563 108.709 47.3783 108.989 47.1948C110.567 46.5719 111.614 46.8566 113.242 47.2266C113.179 46.661 113.179 46.661 113.115 46.084C113.278 44.2906 113.929 43.7905 115.273 42.6562C114.1 42.6562 112.927 42.6562 111.719 42.6562C111.551 41.4832 111.384 40.3102 111.211 39.1016C111.043 39.1016 110.876 39.1016 110.703 39.1016Z" fill="#103255"/>
<path d="M89.8824 16.25C90.2176 16.25 90.5528 16.25 90.8981 16.25C91.4083 17.2432 91.9156 18.238 92.4215 19.2334C92.7043 19.7872 92.9871 20.341 93.2784 20.9116C93.9449 22.3438 93.9449 22.3438 93.9449 23.3594C95.9559 23.3594 97.9668 23.3594 100.039 23.3594C100.374 24.0297 100.709 24.7 101.054 25.3906C99.6057 26.8795 98.1848 28.2563 96.484 29.4531C96.7354 30.3643 96.7354 30.3643 96.9918 31.2939C97.4414 33.089 97.6357 34.7028 97.4996 36.5625C96.9918 37.0703 96.9918 37.0703 95.9127 37.2607C93.8088 36.9863 92.5194 35.8395 90.8981 34.5312C89.5869 35.114 88.7301 35.6728 87.6608 36.6577C86.3278 37.5781 86.3278 37.5781 84.6456 37.4512C84.1953 37.3255 83.7449 37.1998 83.2809 37.0703C82.7322 35.0535 82.8451 33.8073 83.5031 31.8335C83.649 31.3851 83.795 30.9367 83.9454 30.4747C84.0613 30.1376 84.1771 29.8005 84.2965 29.4531C83.9902 29.3045 83.6838 29.1559 83.3682 29.0028C81.9543 28.2781 80.8676 27.516 79.7262 26.4062C79.504 25.0732 79.504 25.0732 79.7262 23.8672C80.7418 22.8516 80.7418 22.8516 82.2851 22.7524C83.1865 22.7701 83.1865 22.7701 84.1061 22.7881C85.0114 22.8018 85.0114 22.8018 85.935 22.8159C86.3998 22.8276 86.8645 22.8394 87.3434 22.8516C87.4939 22.3894 87.6445 21.9273 87.7996 21.4511C88.4068 19.664 89.1228 17.9764 89.8824 16.25ZM90.3903 22.8516C90.2227 23.857 90.0551 24.8625 89.8824 25.8984C88.5418 25.8984 87.2012 25.8984 85.8199 25.8984C86.1551 26.1708 86.4903 26.4431 86.8356 26.7236C87.8512 27.9297 87.8512 27.9297 87.9781 29.5801C87.9363 30.0409 87.8944 30.5018 87.8512 30.9766C88.1235 30.7985 88.3958 30.6205 88.6764 30.437C90.2545 29.8141 91.3014 30.0988 92.9293 30.4688C92.877 30.0917 92.8246 29.7146 92.7706 29.3262C92.9293 27.9297 92.9293 27.9297 94.1989 26.7554C94.6178 26.4726 95.0367 26.1898 95.4684 25.8984C94.2953 25.7309 93.1223 25.5633 91.9137 25.3906C91.5785 24.5527 91.2434 23.7148 90.8981 22.8516C90.7305 22.8516 90.5629 22.8516 90.3903 22.8516Z" fill="#103255"/>
<path d="M19.2965 33.0078C19.6317 33.0078 19.9668 33.0078 20.3121 33.0078C20.8224 34.001 21.3297 34.9958 21.8356 35.9912C22.1184 36.545 22.4011 37.0988 22.6925 37.6694C23.359 39.1016 23.359 39.1016 23.359 40.1172C25.3699 40.1172 27.3809 40.1172 29.4528 40.1172C29.7879 40.7875 30.1231 41.4578 30.4684 42.1484C29.0197 43.6373 27.5988 45.0141 25.8981 46.2109C26.1494 47.1221 26.1494 47.1221 26.4059 48.0518C26.8592 49.8458 27.0066 51.4621 26.9137 53.3203C25.8981 53.7329 25.8981 53.7329 24.3746 53.8281C23.2849 53.211 22.3056 52.5223 21.3099 51.7632C20.3194 51.1498 20.3194 51.1498 19.2648 51.6501C18.4209 52.2115 17.6021 52.8102 16.7892 53.4155C15.234 54.3359 15.234 54.3359 13.774 54.209C13.4179 54.0833 13.0618 53.9576 12.6949 53.8281C12.1462 51.8113 12.2592 50.5652 12.9171 48.5913C13.0631 48.1429 13.2091 47.6945 13.3595 47.2325C13.4753 46.8954 13.5912 46.5583 13.7106 46.2109C13.4042 46.0623 13.0979 45.9137 12.7822 45.7607C11.3684 45.0359 10.2817 44.2738 9.14026 43.1641C8.91809 41.8311 8.91809 41.8311 9.14026 40.625C10.1559 39.6094 10.1559 39.6094 11.6992 39.5102C12.6005 39.5279 12.6005 39.5279 13.5201 39.5459C14.4255 39.5596 14.4255 39.5596 15.3491 39.5737C15.8138 39.5855 16.2786 39.5972 16.7574 39.6094C16.908 39.1472 17.0586 38.6851 17.2137 38.2089C17.8209 36.4218 18.5369 34.7342 19.2965 33.0078ZM19.8043 39.6094C19.6367 40.6148 19.4692 41.6203 19.2965 42.6562C17.9559 42.6562 16.6153 42.6562 15.234 42.6562C15.5692 42.9286 15.9043 43.2009 16.2496 43.4814C17.2653 44.6875 17.2653 44.6875 17.3922 46.3379C17.3503 46.7987 17.3084 47.2596 17.2653 47.7344C17.5376 47.5563 17.8099 47.3783 18.0905 47.1948C19.6686 46.5719 20.7155 46.8566 22.3434 47.2266C22.291 46.8495 22.2386 46.4725 22.1847 46.084C22.3434 44.6875 22.3434 44.6875 23.6129 43.5132C24.0319 43.2304 24.4508 42.9476 24.8824 42.6562C23.7094 42.4887 22.5364 42.3211 21.3278 42.1484C20.9926 41.3105 20.6574 40.4727 20.3121 39.6094C20.1446 39.6094 19.977 39.6094 19.8043 39.6094Z" fill="#103255"/>
<path d="M65.0001 8.125C66.4322 9.35013 66.8721 10.5004 67.5075 12.251C68.0881 13.6394 68.0881 13.6394 69.0626 14.7266C71.1135 15.3263 73.0324 15.3496 75.1564 15.2344C75.4078 16.4912 75.4078 16.4912 75.6642 17.7734C74.3236 18.7789 72.983 19.7844 71.6017 20.8203C71.675 21.3335 71.7483 21.8467 71.8239 22.3755C71.9181 23.0353 72.0124 23.6952 72.1095 24.375C72.2823 25.3333 72.2823 25.3333 72.4586 26.311C72.511 26.8452 72.5634 27.3793 72.6173 27.9297C72.2822 28.2648 71.947 28.6 71.6017 28.9453C69.8262 28.8467 68.9849 28.3836 67.5075 27.3584C66.1636 26.3123 66.1636 26.3123 64.9684 26.4062C63.8873 26.9152 63.8873 26.9152 62.7785 27.9614C61.1771 29.1434 60.345 29.1665 58.3986 28.9453C57.8908 28.4375 57.8908 28.4375 57.7956 26.8188C57.8875 24.9501 58.2304 23.5681 58.9064 21.8359C58.5706 21.5721 58.2348 21.3083 57.8888 21.0365C57.46 20.6824 57.0313 20.3282 56.5895 19.9634C56.1594 19.6158 55.7294 19.2682 55.2863 18.9101C54.3361 17.7734 54.3361 17.7734 54.4174 16.3988C54.8439 15.2344 54.8439 15.2344 55.3517 14.7266C55.8093 14.7442 56.2668 14.7619 56.7383 14.7801C58.6375 14.8252 60.1294 14.7698 61.9533 14.2188C63.4511 12.3532 64.2535 10.3854 65.0001 8.125ZM65.508 14.7266C65.1728 15.5645 64.8376 16.4023 64.4923 17.2656C63.1517 17.2656 61.8111 17.2656 60.4298 17.2656C60.7545 17.5379 61.0792 17.8103 61.4137 18.0908C62.6567 19.5222 62.7999 20.4844 62.9689 22.3438C63.5345 22.1657 64.1001 21.9876 64.6828 21.8042C66.5236 21.3281 66.5236 21.3281 67.5392 21.8359C67.5392 20.998 67.5392 20.1602 67.5392 19.2969C68.3771 18.9617 69.215 18.6266 70.0783 18.2812C70.0783 18.1137 70.0783 17.9461 70.0783 17.7734C68.9052 17.7734 67.7322 17.7734 66.5236 17.7734C66.356 16.768 66.1884 15.7625 66.0158 14.7266C65.8482 14.7266 65.6806 14.7266 65.508 14.7266Z" fill="#103255"/>
<path d="M37.5785 15.2344C39.1019 15.7422 39.1019 15.7422 39.8061 16.978C40.0241 17.4814 40.2421 17.9848 40.4667 18.5034C40.7995 19.2565 40.7995 19.2565 41.1391 20.0249C41.641 21.3281 41.641 21.3281 41.641 22.3438C43.8195 22.3438 45.998 22.3438 48.2426 22.3438C48.4939 23.3492 48.4939 23.3492 48.7504 24.375C47.3933 25.9647 45.8862 27.2369 44.1801 28.4375C44.4314 29.3487 44.4314 29.3487 44.6879 30.2783C45.1412 32.0724 45.2886 33.6887 45.1957 35.5469C44.1483 35.9595 44.1483 35.9595 42.6566 36.0547C41.6866 35.4549 40.8494 34.7868 39.9886 34.0393C39.1212 33.4085 39.1212 33.4085 38.0526 33.6247C36.9574 34.0078 36.9574 34.0078 35.8646 35.0708C34.2551 36.2588 33.4424 36.3157 31.4847 36.0547C31.1496 35.7195 30.8144 35.3844 30.4691 35.0391C30.6278 33.3887 30.6278 33.3887 30.9769 31.4844C31.0712 30.9083 31.1655 30.3323 31.2626 29.7388C31.3359 29.3094 31.4092 28.8799 31.4847 28.4375C31.1915 28.2529 30.8982 28.0683 30.5961 27.8781C29.4528 27.104 28.4143 26.3523 27.4222 25.3906C27.1366 23.7085 27.1366 23.7085 27.4222 22.3438C27.9301 21.8359 27.9301 21.8359 29.5348 21.7863C30.5157 21.7952 30.5157 21.7952 31.5165 21.8042C32.1717 21.8088 32.827 21.8134 33.5021 21.8181C34.0094 21.824 34.5167 21.8299 35.0394 21.8359C35.1376 21.5296 35.2358 21.2232 35.337 20.9076C35.4692 20.5017 35.6014 20.0959 35.7377 19.6777C35.9321 19.0768 35.9321 19.0768 36.1304 18.4637C36.5384 17.3335 37.0184 16.2961 37.5785 15.2344ZM38.0863 21.8359C37.9187 22.8414 37.7511 23.8469 37.5785 24.8828C36.0703 24.7152 34.5621 24.5477 33.0082 24.375C33.6631 25.0736 34.3421 25.75 35.0394 26.4062C35.3746 26.4062 35.7097 26.4062 36.0551 26.4062C35.8875 27.5793 35.7199 28.7523 35.5472 29.9609C36.3956 29.5839 36.3956 29.5839 37.2611 29.1992C39.1019 28.4375 39.1019 28.4375 40.1176 28.4375C40.2851 28.7727 40.4527 29.1078 40.6254 29.4531C40.5625 28.8875 40.5625 28.8875 40.4984 28.3105C40.6614 26.5172 41.3123 26.0171 42.6566 24.8828C42.1748 24.8514 41.693 24.82 41.1967 24.7876C40.4111 24.5834 40.4111 24.5834 39.6097 24.375C38.9115 23.0737 38.9115 23.0737 38.5941 21.8359C38.4265 21.8359 38.259 21.8359 38.0863 21.8359Z" fill="#103255"/>
<path d="M73.6328 66.0158C73.1752 69.7909 70.7173 72.786 68.3643 75.6325C68.1325 75.9313 67.9008 76.2301 67.662 76.538C66.4846 77.9619 65.7791 78.66 63.9388 79.0066C62.2583 78.6705 61.5674 78.2321 60.3345 77.0607C60.0026 76.7543 59.6707 76.448 59.3288 76.1323C56.875 73.5582 56.875 73.5582 56.875 71.6017C59.4017 71.4559 60.5015 71.5711 62.4609 73.1251C63.9044 73.018 64.4066 72.7099 65.3967 71.6394C65.6848 71.2394 65.9728 70.8395 66.2695 70.4274C69.6981 65.7131 69.6981 65.7131 73.6328 66.0158Z" fill="#103255"/>
<path d="M88.0103 109.212C90.0517 109.924 90.7163 110.938 91.9141 112.735C91.8703 114.311 91.5151 114.657 90.3906 115.781C88.8623 115.703 88.0918 115.497 86.9629 114.448C86.1391 112.883 85.9884 111.436 85.8203 109.688C86.8359 109.18 86.8359 109.18 88.0103 109.212Z" fill="#103255"/>
<path d="M42.1484 108.672C42.8188 109.007 43.4891 109.342 44.1797 109.688C44.1215 110.418 44.0568 111.148 43.9893 111.877C43.9539 112.284 43.9186 112.69 43.8821 113.109C43.6719 114.258 43.6719 114.258 42.6562 115.781C39.6729 115.337 39.6729 115.337 39.1016 114.766C39.1892 112.487 39.3905 111.462 40.9106 109.719C41.3191 109.374 41.7276 109.028 42.1484 108.672Z" fill="#103255"/>
<path d="M27.4219 92.4218C27.8345 93.5327 27.8345 93.5327 27.9297 94.9609C26.7236 96.3574 26.7236 96.3574 25.3906 97.5C25.223 97.6675 25.0555 97.8351 24.8828 98.0078C23.645 98.103 23.645 98.103 22.3438 98.0078C21.3281 96.9921 21.3281 96.9921 21.2646 95.6591C21.2856 95.2611 21.3065 94.8631 21.3281 94.4531C25.0279 92.1317 25.0279 92.1317 27.4219 92.4218Z" fill="#103255"/>
<path d="M105.183 92.6877C105.59 92.8304 105.998 92.9731 106.418 93.1201C106.827 93.2602 107.237 93.4003 107.658 93.5446C108.672 93.9453 108.672 93.9453 109.18 94.4531C109.275 95.6909 109.275 95.6909 109.18 96.9922C108.844 97.3274 108.509 97.6625 108.164 98.0078C106.195 97.9349 104.965 97.7493 103.34 96.6114C102.578 95.4688 102.578 95.4688 102.641 94.104C103.218 92.5791 103.583 92.2945 105.183 92.6877Z" fill="#103255"/>
<path d="M63.9842 115.273C65.4924 115.525 65.4924 115.525 67.0311 115.781C67.1296 116.701 67.2241 117.622 67.3168 118.542C67.3698 119.055 67.4228 119.568 67.4774 120.096C67.5079 120.725 67.5079 120.725 67.5389 121.367C67.0311 121.875 67.0311 121.875 65.5394 121.97C63.9842 121.875 63.9842 121.875 62.9686 120.859C62.7331 117.15 62.7331 117.15 63.9842 115.273Z" fill="#103255"/>
</svg>
